<svg xmlns="http://www.w3.org/2000/svg" width="502" height="481" viewBox="0 0 502 481">
  <g id="Group_3249" data-name="Group 3249" transform="translate(-768 -6770.5)">
    <rect id="Mask" width="502" height="481" rx="12" transform="translate(768 6770.5)" fill="#004aad"/>
    <g id="Group_2514" data-name="Group 2514" transform="translate(311 6635.77)">
      <path id="Path_2258" data-name="Path 2258" d="M31.517,76.567Q30.5,75.41,29.565,74.186a5.237,5.237,0,0,0-4.158-2.054c-3.144,0-7.941,0-7.941,0a5.671,5.671,0,0,1-5.671-5.671h0a5.671,5.671,0,0,1,5.671-5.667H35.385a5.671,5.671,0,0,0,5.671-5.671h0a5.67,5.67,0,0,0-5.671-5.672H5.671A5.671,5.671,0,0,1,0,43.778H0a5.671,5.671,0,0,1,5.671-5.671H26.085a5.67,5.67,0,0,0,5.671-5.671h0a5.671,5.671,0,0,0-5.671-5.671H14.971A5.671,5.671,0,0,1,9.3,21.095h0a5.67,5.67,0,0,1,5.671-5.67H29.548a5.241,5.241,0,0,0,3.763-1.593,46.137,46.137,0,0,1,73.441,10.21,5.236,5.236,0,0,0,4.592,2.72c3.445,0,8.422,0,8.422,0a5.671,5.671,0,0,1,5.671,5.671h0a5.67,5.67,0,0,1-5.671,5.67H108.65a5.671,5.671,0,0,0-5.671,5.671h0a5.671,5.671,0,0,0,5.671,5.671h18.373a5.671,5.671,0,0,1,5.671,5.671h0a5.671,5.671,0,0,1-5.671,5.673H113.639A5.241,5.241,0,0,0,108.808,64a46.174,46.174,0,0,1-7.86,12.569Z" transform="translate(457 536.696)" fill="rgba(255,255,255,0.1)" fill-rule="evenodd"/>
      <g id="Layer_2" data-name="Layer 2" transform="translate(486.327 453.993)">
        <g id="Layer_1" data-name="Layer 1" transform="translate(0 0)">
          <g id="Layout1">
            <g id="Background14" transform="translate(291.266 55.971)">
              <path id="Path_2209" data-name="Path 2209" d="M43.087,104.676q-1.386-1.582-2.668-3.255a7.159,7.159,0,0,0-5.684-2.809c-4.3,0-10.857,0-10.857,0a7.752,7.752,0,0,1-7.753-7.753h0a7.753,7.753,0,0,1,7.753-7.747h24.5a7.753,7.753,0,0,0,7.753-7.753h0A7.752,7.752,0,0,0,48.375,67.6H7.753A7.753,7.753,0,0,1,0,59.849H0A7.753,7.753,0,0,1,7.753,52.1H35.661a7.752,7.752,0,0,0,7.753-7.753h0a7.753,7.753,0,0,0-7.753-7.753H20.467a7.753,7.753,0,0,1-7.753-7.753h0a7.752,7.752,0,0,1,7.753-7.752H40.4a7.164,7.164,0,0,0,5.144-2.178,63.075,63.075,0,0,1,100.4,13.958,7.158,7.158,0,0,0,6.277,3.718c4.709.006,11.513.006,11.513.006a7.753,7.753,0,0,1,7.753,7.753h0a7.752,7.752,0,0,1-7.753,7.752H148.537a7.753,7.753,0,0,0-7.753,7.753h0a7.753,7.753,0,0,0,7.753,7.753h25.118a7.752,7.752,0,0,1,7.753,7.753h0a7.753,7.753,0,0,1-7.753,7.756h-18.3a7.165,7.165,0,0,0-6.6,4.386,63.125,63.125,0,0,1-10.746,17.184Z" transform="translate(0 0)" fill="rgba(255,255,255,0.1)" fill-rule="evenodd"/>
              <path id="Path_2210" data-name="Path 2210" d="M1251.85,1818.77h-91.42a.43.43,0,1,0,0,.86h91.42a.43.43,0,1,0,0-.86Z" transform="translate(-1093.513 -1714.525)" fill="#0d3875" fill-rule="evenodd"/>
              <path id="Path_2211" data-name="Path 2211" d="M467.469,1818.77H430.2a.43.43,0,1,0,0,.86h37.269a.43.43,0,1,0,0-.86Z" transform="translate(-405.137 -1714.525)" fill="#2d2e85" fill-rule="evenodd"/>
            </g>
            <g id="Group_2512" data-name="Group 2512" transform="translate(432.737)">
              <path id="Path_2212" data-name="Path 2212" d="M2171.59,696.536a1.484,1.484,0,0,1,1.486-1.486h17.084l11.142,8.914v29.712a1.485,1.485,0,0,1-1.486,1.485h-26.74a1.486,1.486,0,0,1-1.486-1.485v-37.14Z" transform="translate(-2171.002 -694.503)" fill="#b2bfeb" fill-rule="evenodd"/>
              <path id="Path_2213" data-name="Path 2213" d="M2425.531,695.06l11.142,8.913h-9.653a1.486,1.486,0,0,1-1.485-1.485Z" transform="translate(-2406.372 -694.512)" fill="#255498" fill-rule="evenodd"/>
              <circle id="Ellipse_68" data-name="Ellipse 68" cx="3.714" cy="3.714" r="3.714" transform="translate(11.13 28.065) rotate(-80.01)" fill="#b2bfeb"/>
              <path id="Path_2214" data-name="Path 2214" d="M2261.764,924.692a7.429,7.429,0,1,1,7.428-7.428,6.652,6.652,0,0,1-1.15,3.985.743.743,0,0,0,1.114.983,8.276,8.276,0,0,0,1.522-4.968,8.914,8.914,0,1,0-8.914,8.914.743.743,0,1,0,0-1.485Z" transform="translate(-2246.32 -892.204)" fill="#255498" fill-rule="evenodd"/>
              <path id="Path_2215" data-name="Path 2215" d="M2318.238,969.3a4.457,4.457,0,1,0,4.457,4.461A4.458,4.458,0,0,0,2318.238,969.3Zm0,1.486a2.971,2.971,0,1,1-2.971,2.971A2.971,2.971,0,0,1,2318.238,970.786Z" transform="translate(-2302.793 -948.697)" fill="#255498" fill-rule="evenodd"/>
              <path id="Path_2216" data-name="Path 2216" d="M2408.858,1047.715a1.505,1.505,0,0,1-2.408-1.77.743.743,0,1,0-1.291-.731,2.99,2.99,0,0,0,4.783,3.521.743.743,0,0,0-1.084-1.015Z" transform="translate(-2387.13 -1018.675)" fill="#255498" fill-rule="evenodd"/>
              <path id="Path_2217" data-name="Path 2217" d="M2164.653,716.133c-.015-9.644-.009-22.231.032-26.533a.955.955,0,0,1,.275-.668.936.936,0,0,1,.662-.274h16.893l10.786,8.629v4.859a.549.549,0,1,0,1.1,0v-5.119a.549.549,0,0,0-.206-.429l-11.143-8.917a.549.549,0,0,0-.342-.12h-17.084a2.034,2.034,0,0,0-2.034,2.029c-.043,4.3-.048,16.9-.033,26.546a.548.548,0,1,0,1.1,0Z" transform="translate(-2163.549 -687.56)" fill="#0d3875" fill-rule="evenodd"/>
              <path id="Path_2218" data-name="Path 2218" d="M2193.552,961.789V980.4a.938.938,0,0,1-.937.937h-26.742a.941.941,0,0,1-.937-.941c-.007-1.062-.014-2.648-.02-4.582a.548.548,0,1,0-1.1,0c.006,1.936.012,3.524.02,4.587a2.038,2.038,0,0,0,2.034,2.03h26.742a2.034,2.034,0,0,0,2.033-2.034V961.789a.548.548,0,1,0-1.1,0Z" transform="translate(-2163.801 -941.226)" fill="#0d3875" fill-rule="evenodd"/>
            </g>
            <g id="Group_2511" data-name="Group 2511" transform="translate(171.235 71.458)">
              <path id="Path_2219" data-name="Path 2219" d="M403.21,361.86a1.17,1.17,0,0,1,1.17-1.17h13.456l8.776,7.02v23.407a1.17,1.17,0,0,1-1.17,1.17H404.38a1.17,1.17,0,0,1-1.17-1.17Z" transform="translate(-402.665 -360.143)" fill="rgba(255,255,255,0.3)" fill-rule="evenodd"/>
              <path id="Path_2220" data-name="Path 2220" d="M443.805,457.88h7.605a.585.585,0,1,0,0-1.17h-7.605a.585.585,0,1,0,0,1.17Z" transform="translate(-439.749 -449.141)" fill="#255498" fill-rule="evenodd"/>
              <path id="Path_2221" data-name="Path 2221" d="M443.805,505.89h14.041a.585.585,0,0,0,0-1.17H443.805a.585.585,0,0,0,0,1.17Z" transform="translate(-439.749 -493.64)" fill="#255498" fill-rule="evenodd"/>
              <path id="Path_2222" data-name="Path 2222" d="M443.805,553.9h14.041a.585.585,0,1,0,0-1.17H443.805a.585.585,0,1,0,0,1.17Z" transform="translate(-439.749 -538.139)" fill="#255498" fill-rule="evenodd"/>
              <path id="Path_2223" data-name="Path 2223" d="M443.805,601.91h14.041a.585.585,0,1,0,0-1.17H443.805a.585.585,0,1,0,0,1.17Z" transform="translate(-439.749 -582.638)" fill="#255498" fill-rule="evenodd"/>
              <path id="Path_2224" data-name="Path 2224" d="M443.805,649.91h14.041a.585.585,0,1,0,0-1.17H443.805a.585.585,0,1,0,0,1.17Z" transform="translate(-439.749 -627.128)" fill="#255498" fill-rule="evenodd"/>
              <path id="Path_2225" data-name="Path 2225" d="M443.805,697.93h7.605a.585.585,0,1,0,0-1.17h-7.605a.585.585,0,1,0,0,1.17Z" transform="translate(-439.749 -671.637)" fill="#255498" fill-rule="evenodd"/>
              <path id="Path_2226" data-name="Path 2226" d="M721.062,668.86l2.968,2.968a1.17,1.17,0,0,1-1.652,1.656l-2.968-2.968c.349-.231-.007-1.072.284-1.37C719.949,668.881,720.859,669.167,721.062,668.86Z" transform="translate(-695.742 -645.776)" fill="#2a5ea9" fill-rule="evenodd"/>
              <path id="Path_2227" data-name="Path 2227" d="M715.738,685.282l.939.939a.622.622,0,0,1-.878.878l-2.968-2.968a.548.548,0,1,0-.776.775l2.968,2.968a1.719,1.719,0,0,0,2.431-2.431l-.94-.937a.549.549,0,0,0-.776.776Z" transform="translate(-688.776 -659.782)" fill="#0d3875" fill-rule="evenodd"/>
              <path id="Path_2228" data-name="Path 2228" d="M603.25,360.69l8.776,7.02H604.42a1.17,1.17,0,0,1-1.17-1.17Z" transform="translate(-588.076 -360.143)" fill="#b2bfeb" fill-rule="evenodd"/>
              <path id="Path_2229" data-name="Path 2229" d="M419.172,527.225v2.311a.622.622,0,0,1-.622.622H397.489a.622.622,0,0,1-.622-.622V510.579a.548.548,0,1,0-1.1,0v18.957a1.718,1.718,0,0,0,1.719,1.719H418.55a1.719,1.719,0,0,0,1.719-1.719v-2.311a.549.549,0,0,0-1.1,0Z" transform="translate(-395.769 -498.562)" fill="#0d3875" fill-rule="evenodd"/>
              <path id="Path_2230" data-name="Path 2230" d="M396.853,359.2v-4.269a.622.622,0,0,1,.622-.622h13.266l8.421,6.737v9.927a.548.548,0,1,0,1.1,0V360.779a.548.548,0,0,0-.206-.428l-8.775-7.02a.552.552,0,0,0-.343-.12H397.479a1.719,1.719,0,0,0-1.719,1.719V359.2a.548.548,0,0,0,1.1,0Z" transform="translate(-395.76 -353.21)" fill="#0d3875" fill-rule="evenodd"/>
              <circle id="Ellipse_69" data-name="Ellipse 69" cx="5.852" cy="5.852" r="5.852" transform="translate(14.589 14.005)" fill="#b2bfeb"/>
              <path id="Path_2231" data-name="Path 2231" d="M590.27,547.18a5.3,5.3,0,1,1,3.871,1.682.549.549,0,0,0,0,1.1,6.4,6.4,0,1,0-4.671-2.027.55.55,0,1,0,.8-.75Z" transform="translate(-573.701 -523.7)" fill="#0d3875" fill-rule="evenodd"/>
              <circle id="Ellipse_70" data-name="Ellipse 70" cx="4.681" cy="4.681" r="4.681" transform="translate(15.759 15.176)" fill="#fff"/>
            </g>
            <path id="Path_2232" data-name="Path 2232" d="M1812.618,1366.093a6.643,6.643,0,0,1-6.642,6.643H1777.09v-32.2a3.321,3.321,0,0,1,3.322-3.322H1809.3a3.321,3.321,0,0,1,3.322,3.322v25.56Z" transform="translate(-1387.932 -1227.098)" fill="#b2bfeb" fill-rule="evenodd"/>
            <path id="Path_2233" data-name="Path 2233" d="M1805.157,1350.894v8.248a6.1,6.1,0,0,1-6.094,6.094h-28.336V1333.58a2.774,2.774,0,0,1,2.773-2.773h28.886a2.774,2.774,0,0,1,2.773,2.773v5.331a.549.549,0,0,0,1.1,0v-5.331a3.87,3.87,0,0,0-3.87-3.87H1773.5a3.87,3.87,0,0,0-3.87,3.87v32.2a.549.549,0,0,0,.549.548h28.886a7.191,7.191,0,0,0,7.192-7.192v-8.247a.549.549,0,0,0-1.1,0Z" transform="translate(-1381.018 -1220.146)" fill="#0d3875" fill-rule="evenodd"/>
            <path id="Path_2235" data-name="Path 2235" d="M1063.09,1392.085h59.835a1.87,1.87,0,1,0,0-3.74H1063.09a1.87,1.87,0,1,0,0,3.739Z" transform="translate(-715.147 -1274.494)" fill="#b2bfeb" fill-rule="evenodd"/>
            <path id="Path_2236" data-name="Path 2236" d="M1063.09,1519.92h59.835a1.87,1.87,0,1,0,0-3.74H1063.09a1.87,1.87,0,0,0,0,3.74Z" transform="translate(-715.147 -1392.98)" fill="#b2bfeb" fill-rule="evenodd"/>
            <path id="Path_2237" data-name="Path 2237" d="M1168.454,701.741a3.74,3.74,0,0,0-3.741-3.741H1116.1a3.74,3.74,0,0,0-3.74,3.74v28.047a3.74,3.74,0,0,0,3.739,3.739h48.615a3.74,3.74,0,0,0,3.74-3.739Z" transform="translate(-762.31 -634.633)" fill="#b2bfeb" fill-rule="evenodd"/>
            <path id="Path_2238" data-name="Path 2238" d="M1112.36,749.15l28.047,16.828,28.047-16.828v28.465a3.321,3.321,0,0,1-3.32,3.321h-49.45a3.322,3.322,0,0,1-3.322-3.32V749.15Z" transform="translate(-762.31 -682.043)" fill="#255498" fill-rule="evenodd"/>
            <path id="Path_2239" data-name="Path 2239" d="M1688.287,741.727l-14.508,8.7a.549.549,0,0,0,.564.941l14.508-8.7a.549.549,0,1,0-.565-.941Z" transform="translate(-1283.205 -675.09)" fill="#0d3875" fill-rule="evenodd"/>
            <path id="Path_2240" data-name="Path 2240" d="M1147.407,754.932l-7.28,4.368-27.237-16.584a.549.549,0,0,0-.57.938l27.522,16.755a.548.548,0,0,0,.568,0l7.565-4.539a.549.549,0,0,0-.565-.94Z" transform="translate(-760.465 -676.005)" fill="#0d3875" fill-rule="evenodd"/>
            <path id="Path_2241" data-name="Path 2241" d="M926.959,508.251V489.082a2.779,2.779,0,0,1,2.775-2.77c8.55-.028,32.118-.091,51.332-.046a.548.548,0,1,0,0-1.1c-19.216-.045-42.786.018-51.337.046a3.876,3.876,0,0,0-3.868,3.869v19.167a.549.549,0,0,0,1.1,0Z" transform="translate(-588.044 -437.352)" fill="#0d3875" fill-rule="evenodd"/>
            <path id="Path_2242" data-name="Path 2242" d="M1011.691,582.883H933.072a6.1,6.1,0,0,1-6.095-6.094v-50.83a.548.548,0,1,0-1.1,0v50.83a7.191,7.191,0,0,0,7.192,7.191h83.107a.548.548,0,0,0,0-1.1h-.67a6.1,6.1,0,0,1-6.095-6.095V489.524a3.876,3.876,0,0,0-3.867-3.867c-2.768-.016-7.079-.021-12.277-.027a.548.548,0,0,0,0,1.1c5.2.006,9.507.011,12.272.027a2.779,2.779,0,0,1,2.779,2.773v87.261a7.191,7.191,0,0,0,3.375,6.1Z" transform="translate(-598.971 -437.794)" fill="#0d3875" fill-rule="evenodd"/>
            <path id="Path_2243" data-name="Path 2243" d="M1439.409,915.816h27.928a4.288,4.288,0,0,0,4.288-4.288v-16.9a.548.548,0,1,0-1.1,0v16.9a3.192,3.192,0,0,1-3.191,3.191h-27.929a.548.548,0,0,0,0,1.1Z" transform="translate(-1065.42 -816.374)" fill="#0d3875" fill-rule="evenodd"/>
            <path id="Path_2244" data-name="Path 2244" d="M1162.051,700.857V694.8a4.288,4.288,0,0,0-4.288-4.288h-48.614a4.288,4.288,0,0,0-4.288,4.289v28.046a4.287,4.287,0,0,0,4.288,4.288h6.6a.548.548,0,1,0,0-1.1h-6.6a3.191,3.191,0,0,1-3.191-3.192V694.8a3.191,3.191,0,0,1,3.191-3.192h48.614a3.191,3.191,0,0,1,3.191,3.192v6.059a.549.549,0,1,0,1.1,0Z" transform="translate(-755.393 -627.691)" fill="#0d3875" fill-rule="evenodd"/>
            <path id="Path_2245" data-name="Path 2245" d="M419.572,1308.938a9.726,9.726,0,0,0-13.285-3.56l-9.718,5.611a9.726,9.726,0,0,0-3.56,13.286l.748,1.294a9.726,9.726,0,0,0,13.285,3.56l9.718-5.608a9.726,9.726,0,0,0,3.559-13.287l-.748-1.3Zm-3.887,2.244.748,1.3a5.237,5.237,0,0,1-1.917,7.153l-9.718,5.611a5.237,5.237,0,0,1-7.154-1.917l-.748-1.3a5.237,5.237,0,0,1,1.917-7.154l9.718-5.61a5.237,5.237,0,0,1,7.154,1.917Z" transform="translate(-87.271 -1196.385)" fill="#b2bfeb" fill-rule="evenodd"/>
            <path id="Path_2246" data-name="Path 2246" d="M412.329,1565.349a10.274,10.274,0,0,0,14.035,3.76l9.718-5.611a.549.549,0,0,0-.549-.951l-9.718,5.61a9.177,9.177,0,0,1-12.537-3.359.549.549,0,0,0-.951.548Z" transform="translate(-106.095 -1435.889)" fill="#0d3875" fill-rule="evenodd"/>
            <path id="Path_2247" data-name="Path 2247" d="M414.913,1310.809a10.272,10.272,0,0,0-1.024-7.8l-.748-1.3a10.275,10.275,0,0,0-14.035-3.76l-9.718,5.611a10.274,10.274,0,0,0-5.137,9.016.548.548,0,1,0,1.1-.013,9.179,9.179,0,0,1,4.588-8.053l9.718-5.611a9.177,9.177,0,0,1,12.537,3.359l.748,1.3a9.18,9.18,0,0,1,.917,6.964.548.548,0,1,0,1.059.284Z" transform="translate(-80.38 -1189.438)" fill="#0d3875" fill-rule="evenodd"/>
            <path id="Path_2248" data-name="Path 2248" d="M638.01,1359.124a4.688,4.688,0,0,1,4.9,2.267l.748,1.3a4.688,4.688,0,0,1-1.716,6.4l-4.116,2.376a.549.549,0,0,0,.549.951l4.116-2.376a5.784,5.784,0,0,0,2.121-7.9l-.748-1.3a5.784,5.784,0,0,0-6.044-2.8.549.549,0,1,0,.2,1.079Z" transform="translate(-315.285 -1246.321)" fill="#0d3875" fill-rule="evenodd"/>
            <path id="Path_2249" data-name="Path 2249" d="M454.442,1420.5a4.689,4.689,0,0,1-6.4-1.716l-.748-1.3a4.689,4.689,0,0,1,1.716-6.4l4.68-2.7a.549.549,0,1,0-.548-.951l-4.68,2.7a5.786,5.786,0,0,0-2.121,7.9l.748,1.3a5.786,5.786,0,0,0,7.9,2.121.549.549,0,0,0-.548-.951Z" transform="translate(-136.313 -1292.113)" fill="#0d3875" fill-rule="evenodd"/>
            <path id="Path_2250" data-name="Path 2250" d="M212.692,1298.445a9.726,9.726,0,0,0-13.285-3.559l-9.718,5.611a9.726,9.726,0,0,0-3.56,13.285l.748,1.3a9.726,9.726,0,0,0,13.285,3.56l9.718-5.611a9.726,9.726,0,0,0,3.56-13.286Zm-3.888,2.244.75,1.3a5.237,5.237,0,0,1-1.917,7.154l-9.718,5.611a5.235,5.235,0,0,1-7.154-1.917l-.748-1.3a5.236,5.236,0,0,1,1.912-7.154l9.718-5.611a5.237,5.237,0,0,1,7.154,1.917Z" transform="translate(190.707 -1186.66)" fill="#255498" fill-rule="evenodd"/>
            <path id="Path_2251" data-name="Path 2251" d="M258.759,1477.629a4.69,4.69,0,0,1-1.444,1.3l-9.718,5.611a4.688,4.688,0,0,1-6.4-1.716l-.748-1.3a4.686,4.686,0,0,1-.468-3.558.548.548,0,1,0-1.06-.284,5.786,5.786,0,0,0,.578,4.388l.748,1.3a5.787,5.787,0,0,0,7.9,2.121l9.718-5.611a5.791,5.791,0,0,0,1.781-1.6.549.549,0,0,0-.886-.647Z" transform="translate(142.553 -1356.923)" fill="#0d3875" fill-rule="evenodd"/>
            <path id="Path_2252" data-name="Path 2252" d="M275.348,1354.835l9.718-5.611a4.73,4.73,0,0,1,6.421,1.7.549.549,0,1,0,.951-.548,5.825,5.825,0,0,0-7.92-2.1l-9.719,5.611a.549.549,0,0,0,.548.951Z" transform="translate(22.886 -1236.636)" fill="#0d3875" fill-rule="evenodd"/>
            <path id="Path_2253" data-name="Path 2253" d="M387.878,1316.389l9.718-5.609a10.275,10.275,0,0,0,3.761-14.035l-.748-1.3a10.277,10.277,0,0,0-6.239-4.787.549.549,0,0,0-.284,1.06,9.18,9.18,0,0,1,5.573,4.276l.748,1.3a9.178,9.178,0,0,1-3.36,12.536l-9.718,5.611a.549.549,0,0,0,.548.951Z" transform="translate(-82.047 -1183.936)" fill="#0d3875" fill-rule="evenodd"/>
            <path id="Path_2254" data-name="Path 2254" d="M192.174,1303.978l-9.718,5.611a10.275,10.275,0,0,0-3.761,14.035l.749,1.3a10.275,10.275,0,0,0,9.385,5.125.549.549,0,1,0-.053-1.1,9.175,9.175,0,0,1-8.383-4.578l-.748-1.3A9.177,9.177,0,0,1,183,1310.538l9.72-5.609a.549.549,0,0,0-.548-.951Z" transform="translate(204.235 -1196.229)" fill="#0d3875" fill-rule="evenodd"/>
            <path id="Path_2255" data-name="Path 2255" d="M493.925,1333.93l-6.025,3.479,2.244,3.888,6.026-3.479-2.244-3.888Z" transform="translate(-175.756 -1224.058)" fill="#b2bfeb" fill-rule="evenodd"/>
            <path id="Path_2256" data-name="Path 2256" d="M486.694,1326.5l-6.025,3.478a.549.549,0,1,0,.548.951l6.022-3.479a.549.549,0,0,0-.548-.951Z" transform="translate(-168.68 -1217.101)" fill="#0d3875" fill-rule="evenodd"/>
            <path id="Path_2257" data-name="Path 2257" d="M511.908,1384.088l6.025-3.479a.549.549,0,1,0-.548-.951l-6.025,3.479a.549.549,0,0,0,.548.951Z" transform="translate(-197.332 -1266.374)" fill="#0d3875" fill-rule="evenodd"/>
            <g id="Group_2513" data-name="Group 2513" transform="translate(0 100.033)">
              <path id="Path_2212-2" data-name="Path 2212" d="M2171.59,696.536a1.484,1.484,0,0,1,1.486-1.486h17.084l11.142,8.914v29.712a1.485,1.485,0,0,1-1.486,1.485h-26.74a1.486,1.486,0,0,1-1.486-1.485v-37.14Z" transform="translate(-2171.002 -694.503)" fill="#b2bfeb" fill-rule="evenodd"/>
              <path id="Path_2213-2" data-name="Path 2213" d="M2425.531,695.06l11.142,8.913h-9.653a1.486,1.486,0,0,1-1.485-1.485Z" transform="translate(-2406.372 -694.512)" fill="#255498" fill-rule="evenodd"/>
              <circle id="Ellipse_68-2" data-name="Ellipse 68" cx="3.714" cy="3.714" r="3.714" transform="translate(11.13 28.065) rotate(-80.01)" fill="#b2bfeb"/>
              <path id="Path_2214-2" data-name="Path 2214" d="M2261.764,924.692a7.429,7.429,0,1,1,7.428-7.428,6.652,6.652,0,0,1-1.15,3.985.743.743,0,0,0,1.114.983,8.276,8.276,0,0,0,1.522-4.968,8.914,8.914,0,1,0-8.914,8.914.743.743,0,1,0,0-1.485Z" transform="translate(-2246.32 -892.204)" fill="#255498" fill-rule="evenodd"/>
              <path id="Path_2215-2" data-name="Path 2215" d="M2318.238,969.3a4.457,4.457,0,1,0,4.457,4.461A4.458,4.458,0,0,0,2318.238,969.3Zm0,1.486a2.971,2.971,0,1,1-2.971,2.971A2.971,2.971,0,0,1,2318.238,970.786Z" transform="translate(-2302.793 -948.697)" fill="#255498" fill-rule="evenodd"/>
              <path id="Path_2216-2" data-name="Path 2216" d="M2408.858,1047.715a1.505,1.505,0,0,1-2.408-1.77.743.743,0,1,0-1.291-.731,2.99,2.99,0,0,0,4.783,3.521.743.743,0,0,0-1.084-1.015Z" transform="translate(-2387.13 -1018.675)" fill="#255498" fill-rule="evenodd"/>
              <path id="Path_2217-2" data-name="Path 2217" d="M2164.653,716.133c-.015-9.644-.009-22.231.032-26.533a.955.955,0,0,1,.275-.668.936.936,0,0,1,.662-.274h16.893l10.786,8.629v4.859a.549.549,0,1,0,1.1,0v-5.119a.549.549,0,0,0-.206-.429l-11.143-8.917a.549.549,0,0,0-.342-.12h-17.084a2.034,2.034,0,0,0-2.034,2.029c-.043,4.3-.048,16.9-.033,26.546a.548.548,0,1,0,1.1,0Z" transform="translate(-2163.549 -687.56)" fill="#0d3875" fill-rule="evenodd"/>
              <path id="Path_2218-2" data-name="Path 2218" d="M2193.552,961.789V980.4a.938.938,0,0,1-.937.937h-26.742a.941.941,0,0,1-.937-.941c-.007-1.062-.014-2.648-.02-4.582a.548.548,0,1,0-1.1,0c.006,1.936.012,3.524.02,4.587a2.038,2.038,0,0,0,2.034,2.03h26.742a2.034,2.034,0,0,0,2.033-2.034V961.789a.548.548,0,1,0-1.1,0Z" transform="translate(-2163.801 -941.226)" fill="#0d3875" fill-rule="evenodd"/>
            </g>
          </g>
        </g>
      </g>
    </g>
  </g>
</svg>
