<svg xmlns="http://www.w3.org/2000/svg" xmlns:xlink="http://www.w3.org/1999/xlink" width="50" height="50" viewBox="0 0 50 50">
  <defs>
    <clipPath id="clip-path">
      <rect id="Bitmap" width="50" height="50" transform="translate(156 4989)" fill="#024aad"/>
    </clipPath>
  </defs>
  <g id="Mask_Group_20" data-name="Mask Group 20" transform="translate(-156 -4989)" clip-path="url(#clip-path)">
    <g id="Layer_2" data-name="Layer 2" transform="translate(156.001 4989)">
      <g id="Layer_1" data-name="Layer 1">
        <path id="Path_2742" data-name="Path 2742" d="M0,48.921a1.111,1.111,0,0,1,1.126-.5c.293.021.586,0,.927,0,.013-.251.032-.47.032-.689V8.766c0-.163-.008-.326,0-.488.052-.7.41-1,1.105-.865,1.5.286,2.993.594,4.486.908a.8.8,0,1,1-.329,1.554C6.154,9.642,4.963,9.4,3.734,9.147V48.388H11.62c-.618-1.5.044-2.915.249-4.353.22-1.542.557-3.066.827-4.6a2.958,2.958,0,0,1,2.929-2.612c2.015-.056,3.173.73,3.515,2.482.474,2.4.922,4.815,1.318,7.233a9.009,9.009,0,0,1-.089,1.883H36.081a1.417,1.417,0,0,1,.579.027,1.292,1.292,0,0,1,.623.514c.083.2-.05.509-.126.758-.033.107-.162.186-.247.276H0Zm16.741-.476a9.833,9.833,0,0,0,1.218-.1,1.248,1.248,0,0,0,.961-1.433c-.436-2.441-.879-4.882-1.349-7.318a1.6,1.6,0,0,0-.526-.888,1.768,1.768,0,0,0-2.8,1.13c-.228,1.326-.477,2.649-.719,3.972-.175.957-.365,1.911-.53,2.87a1.357,1.357,0,0,0,1.465,1.744h.678v-.572c0-1.269-.007-2.539,0-3.8a.794.794,0,0,1,.773-.884c.46-.012.768.293.814.84.012.129.008.26.008.391v4.053Z"/>
        <path id="Path_2743" data-name="Path 2743" d="M39.449,50c-.117-.109-.3-.2-.338-.331a1.485,1.485,0,0,1-.075-.781c.108-.368.453-.467.826-.466H46.27V42.65H25.493a3.209,3.209,0,0,1-.586-.033.761.761,0,0,1-.7-.8c0-2.441-.007-4.882,0-7.324a.75.75,0,0,1,.8-.8c.162-.01.325,0,.488,0h20.77V30H32.842a4.672,4.672,0,0,1-.586-.021.725.725,0,0,1-.676-.764.743.743,0,0,1,.622-.768,2.378,2.378,0,0,1,.535-.023H46.7c.976,0,1.208.229,1.209,1.2V48.364c.724.206,1.583-.255,2.087.561V50Zm6.822-14.709H25.819v5.7h5.738V37.976a2.286,2.286,0,0,1,.068-.576.657.657,0,0,1,.758-.541,1.364,1.364,0,0,1,.705.555,1.262,1.262,0,0,1,.082.663c.007.97,0,1.939,0,2.91h5.769V38.023c0-.8.246-1.172.769-1.191s.808.391.808,1.2v2.961h5.774V35.646A2.542,2.542,0,0,0,46.271,35.286Z"/>
        <path id="Path_2744" data-name="Path 2744" d="M21.873,0a2.1,2.1,0,0,1,1.381,1.887c.023.257.148.508.153.762a.915.915,0,0,0,.827.956.722.722,0,0,0,.477-.05c.474-.283.92-.613,1.389-.905a1.716,1.716,0,0,1,2.235.208c.323.293.636.608.931.933a1.71,1.71,0,0,1,.2,2.2c-.282.456-.6.892-.89,1.341a.939.939,0,0,0,.529,1.286c.539.118,1.083.212,1.618.348a1.744,1.744,0,0,1,1.39,1.764c.01.407.012.814,0,1.221a1.746,1.746,0,0,1-1.386,1.721c-.456.112-.918.214-1.383.284a.854.854,0,0,0-.8.636.761.761,0,0,0,.076.8c.293.391.558.8.817,1.213a1.732,1.732,0,0,1-.24,2.309c-.27.282-.546.56-.829.828a1.725,1.725,0,0,1-2.31.22c-.439-.277-.866-.577-1.3-.859a.953.953,0,0,0-1.269.5c-.124.537-.213,1.083-.344,1.619a1.755,1.755,0,0,1-1.79,1.422c-.407.007-.814.012-1.221,0a1.727,1.727,0,0,1-1.692-1.354c-.142-.55-.236-1.111-.358-1.666a.947.947,0,0,0-1.293-.512c-.414.27-.836.565-1.261.836a1.744,1.744,0,0,1-2.348-.223c-.318-.3-.635-.609-.923-.94a1.694,1.694,0,0,1-.184-2.078c.285-.473.606-.924.909-1.387A.917.917,0,0,0,12.444,14c-.53-.117-1.052-.2-1.573-.328a1.719,1.719,0,0,1-1.4-1.75c0-.423-.007-.846,0-1.269a1.678,1.678,0,0,1,1.306-1.671c.58-.151,1.172-.25,1.758-.381a.992.992,0,0,0,.5-1.207c-.3-.465-.62-.916-.913-1.384a1.729,1.729,0,0,1,.2-2.239c.293-.323.606-.637.931-.932a1.718,1.718,0,0,1,2.2-.206c.442.272.867.574,1.3.86a.917.917,0,0,0,1.343-.531c.105-.488.2-.986.3-1.48A1.987,1.987,0,0,1,19.725,0Zm6.294,5.016a3.014,3.014,0,0,0-.2-.273c-.179-.189-.379-.359-.546-.558a.415.415,0,0,0-.66-.074c-.54.391-1.107.742-1.66,1.118a.934.934,0,0,1-1.007.089c-.453-.214-.922-.4-1.39-.578a.938.938,0,0,1-.654-.771c-.07-.432-.172-.859-.267-1.287-.293-1.318.033-1.074-1.367-1.111a.416.416,0,0,0-.493.4c-.087.5-.235.983-.282,1.482-.074.791-.519,1.1-1.206,1.49a2.458,2.458,0,0,1-3.064-.433c-.9-.7-.93-.64-1.736.2a.42.42,0,0,0-.057.629c.382.546.738,1.109,1.117,1.66a.955.955,0,0,1,.082,1.05c-.212.436-.384.892-.555,1.348a.964.964,0,0,1-.81.678c-.432.068-.857.18-1.287.267-1.1.222-1.089.22-1.08,1.341a.448.448,0,0,0,.433.518A14.108,14.108,0,0,0,13,12.483c.788.059,1.031.562,1.4,1.183a2.427,2.427,0,0,1-.414,3.066c-.7.9-.64.931.185,1.734a.416.416,0,0,0,.628.066c.531-.375,1.084-.719,1.617-1.092a1,1,0,0,1,1.136-.092,9.179,9.179,0,0,0,1.257.519.993.993,0,0,1,.736.869c.058.4.164.794.247,1.191.24,1.151.24,1.141,1.405,1.109.284-.008.406-.108.455-.376a15.428,15.428,0,0,0,.293-1.528c.063-.8.549-1.069,1.2-1.44a2.42,2.42,0,0,1,3.027.4c.965.744,1.01.7,1.794-.221a.578.578,0,0,0,.041-.529,8.35,8.35,0,0,0-.862-1.3c-.522-.621-.368-1.172-.166-1.909A2.4,2.4,0,0,1,29.411,12.3c1.164-.145,1.148-.2,1.1-1.4a.405.405,0,0,0-.391-.452c-.654-.12-1.3-.272-1.959-.384a.985.985,0,0,1-.825-.723,9.764,9.764,0,0,0-.52-1.258A1,1,0,0,1,26.9,6.952c.364-.519.709-1.052,1.058-1.581C28.036,5.26,28.094,5.145,28.167,5.016Z"/>
        <path id="Path_2745" data-name="Path 2745" d="M16.307,29.994v3.985c0,.18.008.359-.008.537a.757.757,0,0,1-.761.732.737.737,0,0,1-.791-.748q-.022-2.658,0-5.319a.737.737,0,0,1,.781-.759c.553-.018,1.105-.006,1.66-.006H28.806a3.858,3.858,0,0,1,.488.011.756.756,0,0,1,.684.807.715.715,0,0,1-.691.742,4.849,4.849,0,0,1-.586.018Z"/>
        <path id="Path_2746" data-name="Path 2746" d="M39.471,20.8v4.828a3.618,3.618,0,0,1-.021.543.724.724,0,0,1-.768.668.752.752,0,0,1-.772-.674,2.686,2.686,0,0,1-.016-.488q0-4.511.007-9.022c0-.348-.069-.5-.453-.572-1.387-.255-2.764-.561-4.144-.851-.608-.128-.89-.462-.809-.952s.469-.728,1.074-.607q2.552.5,5.1,1.043c.635.135.8.359.8,1.018C39.475,17.422,39.471,19.112,39.471,20.8Z"/>
        <path id="Path_2747" data-name="Path 2747" d="M20.784,15.252a3.943,3.943,0,1,1,3.944-3.925,3.933,3.933,0,0,1-3.944,3.925ZM18.441,11.32a2.356,2.356,0,0,0,2.352,2.35,2.385,2.385,0,0,0,2.349-2.362,2.353,2.353,0,0,0-2.364-2.337,2.321,2.321,0,0,0-2.335,2.348Z"/>
      </g>
    </g>
  </g>
</svg>
