<?xml version="1.0" encoding="utf-8"?>
<!-- Generator: Adobe Illustrator 16.0.0, SVG Export Plug-In . SVG Version: 6.00 Build 0)  -->
<!DOCTYPE svg PUBLIC "-//W3C//DTD SVG 1.1//EN" "http://www.w3.org/Graphics/SVG/1.1/DTD/svg11.dtd">
<svg version="1.1" id="Layer_1" xmlns="http://www.w3.org/2000/svg" xmlns:xlink="http://www.w3.org/1999/xlink" x="0px" y="0px"
	 width="134.787px" height="40px" viewBox="0 0 134.787 40" enable-background="new 0 0 134.787 40" xml:space="preserve">
<g id="logo" transform="translate(0 0)">
	<path id="Combined_Shape" fill="#004AAD" d="M20,40L20,40L9.069,29.07l6.8-6.801L22.3,28.7l-2.143,2.143L15.9,26.584l-2.484,2.486
		l6.707,6.707l6.8-6.801L8.975,11.025L20,0l11.243,11.243l-6.8,6.8l-6.583-6.584L20,9.319l4.411,4.41l2.483-2.486L20,4.349l-6.8,6.8
		l17.825,17.826L20,40z M6.833,26.833L6.833,26.833L0,20l6.8-6.8l2.174,2.175L4.347,20l4.658,4.659L6.833,26.833L6.833,26.833z
		 M33.2,26.8L33.2,26.8l-2.049-2.048l4.626-4.628L31.151,15.5l2.174-2.174L40,20L33.2,26.8z M28.7,22.3L28.7,22.3l-2.173-2.172
		l2.143-2.143l2.174,2.174L28.7,22.3z M11.5,22.175L11.5,22.175L9.316,20l2.145-2.142l2.174,2.173l-2.142,2.142L11.5,22.175z"/>
	<path id="Path" fill="#FFFFFF" d="M56.307,29.92c1.261,0.031,2.512-0.233,3.653-0.773c0.966-0.457,1.784-1.179,2.36-2.08
		c0.542-0.871,0.825-1.88,0.813-2.906c0.043-0.982-0.249-1.951-0.827-2.747c-0.52-0.686-1.191-1.242-1.96-1.627
		c-0.956-0.454-1.94-0.845-2.946-1.172c-0.924-0.272-1.818-0.639-2.667-1.094c-0.529-0.271-0.859-0.818-0.853-1.413
		c-0.03-0.477,0.156-0.942,0.507-1.267c0.375-0.306,0.85-0.463,1.333-0.44c0.57-0.023,1.129,0.162,1.573,0.52
		c0.416,0.359,0.658,0.878,0.667,1.427h4.933c-0.015-1.61-0.761-3.126-2.027-4.12c-1.446-1.044-3.205-1.566-4.986-1.48
		c-1.765-0.081-3.504,0.441-4.933,1.48c-1.258,0.976-1.964,2.502-1.894,4.093c-0.047,1.017,0.244,2.021,0.827,2.854
		c0.517,0.7,1.193,1.267,1.973,1.653c0.957,0.446,1.947,0.821,2.96,1.12c0.656,0.186,1.301,0.408,1.933,0.667
		c0.425,0.177,0.813,0.43,1.147,0.747c0.31,0.299,0.479,0.715,0.467,1.146c0.023,0.501-0.195,0.981-0.587,1.293
		c-0.464,0.335-1.029,0.499-1.6,0.468c-0.583,0.025-1.155-0.17-1.6-0.547c-0.435-0.418-0.692-0.986-0.72-1.588H49
		c0.004,1.131,0.363,2.232,1.027,3.147c0.668,0.885,1.568,1.567,2.6,1.973C53.798,29.714,55.048,29.94,56.307,29.92z"/>
	<path id="Path-2" fill="#FFFFFF" d="M70.493,29.732v-8.08c-0.053-0.844,0.225-1.675,0.773-2.319
		c0.541-0.563,1.299-0.864,2.08-0.827c0.779-0.037,1.537,0.265,2.079,0.827c0.549,0.644,0.825,1.476,0.773,2.319l0,0v8.08h4.534
		V21.04c0.097-1.691-0.457-3.356-1.547-4.653c-1.055-1.14-2.556-1.759-4.106-1.694c-0.931-0.014-1.853,0.187-2.692,0.587
		c-0.756,0.354-1.408,0.895-1.895,1.573l0,0V10h-4.56v19.732H70.493z"/>
	<path id="Path-3" fill="#FFFFFF" d="M89.533,29.895c0.911,0.011,1.812-0.195,2.627-0.601c0.749-0.364,1.396-0.909,1.88-1.587l0,0
		v2.027h4.561v-14.88H94.04v8.08c0.053,0.845-0.225,1.676-0.773,2.32c-0.551,0.566-1.318,0.867-2.106,0.827
		c-0.78,0.036-1.538-0.265-2.08-0.827c-0.548-0.645-0.825-1.476-0.772-2.32l0,0v-8.08h-4.535v8.693
		c-0.027,1.17,0.219,2.33,0.721,3.387c0.441,0.919,1.147,1.686,2.027,2.2C87.438,29.652,88.479,29.915,89.533,29.895z"/>
	<path id="Path-4" fill="#FFFFFF" d="M111.026,29.947c1.18,0.013,2.338-0.316,3.334-0.947c1.021-0.66,1.839-1.594,2.359-2.693
		c0.6-1.261,0.896-2.645,0.867-4.039c0.03-1.393-0.267-2.771-0.867-4.027c-0.521-1.093-1.339-2.017-2.359-2.667
		c-1-0.624-2.156-0.947-3.334-0.933c-0.954-0.018-1.898,0.202-2.746,0.64c-0.754,0.384-1.39,0.964-1.84,1.68l0,0V10h-4.561v19.732
		h4.561v-2.08c0.457,0.707,1.092,1.281,1.84,1.668C109.13,29.754,110.073,29.969,111.026,29.947z"/>
	<path id="Path-5" fill="#17181C" d="M109.666,25.973c-0.874,0.014-1.712-0.345-2.306-0.986c-0.66-0.736-1.002-1.705-0.947-2.693
		c-0.055-0.988,0.287-1.957,0.947-2.693c0.594-0.642,1.432-1,2.306-0.987c0.88-0.019,1.728,0.334,2.334,0.973
		c0.661,0.73,1.003,1.695,0.946,2.68c0.053,0.994-0.292,1.969-0.959,2.707C111.391,25.621,110.546,25.984,109.666,25.973z"/>
	<path id="Path-6" fill="#FFFFFF" d="M124.547,29.732v-8.08c-0.052-0.844,0.225-1.675,0.772-2.319
		c0.543-0.563,1.301-0.864,2.08-0.827c0.781-0.037,1.539,0.265,2.08,0.827c0.549,0.644,0.826,1.476,0.773,2.319l0,0v8.08h4.534
		V21.04c0.097-1.691-0.456-3.356-1.547-4.653c-1.054-1.14-2.556-1.759-4.106-1.694c-0.931-0.014-1.852,0.187-2.693,0.587
		c-0.755,0.354-1.407,0.895-1.894,1.573l0,0V10h-4.56v19.732H124.547z"/>
</g>
</svg>
