<svg xmlns="http://www.w3.org/2000/svg" xmlns:xlink="http://www.w3.org/1999/xlink" width="30.05" height="30.05" viewBox="0 0 30.05 30.05">
  <defs>
    <clipPath id="clip-path">
      <rect id="Rectangle" width="30.05" height="30.05" transform="translate(20 20)" fill="#fff"/>
    </clipPath>
  </defs>
  <g id="Mask_Group_8" data-name="Mask Group 8" transform="translate(-20 -20)" clip-path="url(#clip-path)">
    <g id="Layer_2" data-name="Layer 2" transform="translate(20.001 20)">
      <g id="Character" transform="translate(0)">
        <path id="Path_2681" data-name="Path 2681" d="M14.5,0a7.193,7.193,0,0,1,1.217.54,2.366,2.366,0,0,1,1.064,2.021q.021,5.836,0,11.672a2.6,2.6,0,0,1-2.649,2.548c-2.835.008-5.67,0-8.5,0-.968,0-1.936,0-2.9,0A2.635,2.635,0,0,1,0,14.057Q0,8.412,0,2.768A2.628,2.628,0,0,1,2.184.045.619.619,0,0,0,2.293,0ZM1.764,8.36v5.63a.906.906,0,0,0,1.021,1.032h11.2a.912.912,0,0,0,1.039-1.043V2.808a.913.913,0,0,0-1.035-1.046H2.787A.9.9,0,0,0,1.764,2.788Z" transform="translate(0.001)" fill="#fff"/>
        <path id="Path_2682" data-name="Path 2682" d="M21.763,19.476c-.039.14-.076.281-.118.42A2.635,2.635,0,0,1,19.2,21.759c-.606.014-1.211.01-1.817,0A.879.879,0,1,1,17.392,20c.547-.006,1.094,0,1.641,0A.892.892,0,0,0,20,19.04c0-.508,0-1.016,0-1.524a.916.916,0,0,1,.7-1.012.9.9,0,0,1,1.019.592c.008.015.028.023.043.035Z" transform="translate(8.283 8.282)" fill="#fff"/>
        <path id="Path_2683" data-name="Path 2683" d="M21.764,4.636c-.029.047-.062.093-.088.142a.876.876,0,0,1-1.667-.41c-.006-.547,0-1.094,0-1.641a.89.89,0,0,0-.969-.963H17.516a.917.917,0,0,1-1.011-.7A.9.9,0,0,1,17.1.043c.015-.008.024-.028.035-.043h2.347c.074.021.148.044.222.063a2.641,2.641,0,0,1,1.932,1.749c.056.155.091.318.135.476Z" transform="translate(8.282)" fill="#fff"/>
        <path id="Path_2684" data-name="Path 2684" d="M15.531,0l.194.118a.878.878,0,0,1,.435.941.865.865,0,0,1-.8.694q-.935.025-1.873,0a.866.866,0,0,1-.8-.694.869.869,0,0,1,.43-.941L13.3,0Z" transform="translate(6.36)" fill="#fff"/>
        <path id="Path_2685" data-name="Path 2685" d="M20.588,7.874c-.039.065-.078.129-.118.193a.882.882,0,0,1-.944.433.868.868,0,0,1-.694-.8q-.024-.937,0-1.873a.867.867,0,0,1,.694-.8.882.882,0,0,1,.945.433c.038.065.077.129.118.194Z" transform="translate(9.458 2.513)" fill="#fff"/>
        <path id="Path_2686" data-name="Path 2686" d="M20.588,11.7c-.039.065-.078.129-.118.193a.882.882,0,0,1-.944.433.868.868,0,0,1-.694-.8q-.024-.937,0-1.874a.867.867,0,0,1,.694-.8.882.882,0,0,1,.945.433c.038.065.077.129.118.194Z" transform="translate(9.458 4.436)" fill="#fff"/>
        <path id="Path_2687" data-name="Path 2687" d="M20.588,15.529c-.039.065-.078.129-.118.193a.883.883,0,0,1-.944.433.868.868,0,0,1-.694-.8q-.024-.937,0-1.874a.867.867,0,0,1,.694-.8.882.882,0,0,1,.945.433c.038.065.077.129.118.194Z" transform="translate(9.458 6.359)" fill="#fff"/>
        <path id="Path_2688" data-name="Path 2688" d="M19.035,17.768c0-1.09-.008-2.107,0-3.123a.873.873,0,0,1,1.335-.761.847.847,0,0,1,.421.759q0,2.625,0,5.249a.865.865,0,0,1-.914.9q-2.609.006-5.22,0a.879.879,0,1,1,0-1.758c.919-.006,1.838,0,2.757,0h.35c-.114-.122-.187-.205-.265-.283q-2.872-2.873-5.745-5.743a.933.933,0,0,1-.328-.917.873.873,0,0,1,1.478-.422c.483.457.941.936,1.411,1.406l4.438,4.437C18.836,17.584,18.913,17.653,19.035,17.768Z" transform="translate(5.732 5.732)" fill="#fff"/>
        <path id="Path_2689" data-name="Path 2689" d="M0,18.3c0-.313-.008-.626,0-.938a.878.878,0,1,1,1.755,0c.011.557,0,1.114,0,1.671a.892.892,0,0,0,.967.971c.537,0,1.075,0,1.612,0a.882.882,0,1,1,.011,1.761,17.47,17.47,0,0,1-2.193-.062A2.573,2.573,0,0,1,.007,19.243c-.011-.312,0-.626,0-.941Z" transform="translate(0 8.274)" fill="#fff"/>
        <path id="Path_2690" data-name="Path 2690" d="M0,14.416c0-.294-.006-.588,0-.878a.878.878,0,1,1,1.756.012q.013.863,0,1.726A.878.878,0,1,1,0,15.265C0,14.984,0,14.7,0,14.416Z" transform="translate(0 6.36)" fill="#fff"/>
        <path id="Path_2691" data-name="Path 2691" d="M6.744,20.587c-.283,0-.566.006-.848,0a.878.878,0,1,1-.012-1.756q.877-.014,1.756,0a.878.878,0,0,1,.009,1.755C7.349,20.594,7.046,20.587,6.744,20.587Z" transform="translate(2.514 9.459)" fill="#fff"/>
        <path id="Path_2692" data-name="Path 2692" d="M10.616,18.827c.283,0,.566-.006.848,0a.877.877,0,0,1,.015,1.753q-.893.018-1.785,0a.876.876,0,0,1,.015-1.753C10.014,18.822,10.316,18.827,10.616,18.827Z" transform="translate(4.437 9.459)" fill="#fff"/>
        <path id="Path_2693" data-name="Path 2693" d="M14.4,20.586c-.283,0-.566.005-.848,0a.879.879,0,1,1,.012-1.757q.848-.009,1.7,0a.88.88,0,1,1-.012,1.758C14.968,20.59,14.685,20.586,14.4,20.586Z" transform="translate(6.361 9.459)" fill="#fff"/>
      </g>
    </g>
  </g>
</svg>
