<svg xmlns="http://www.w3.org/2000/svg" xmlns:xlink="http://www.w3.org/1999/xlink" width="50" height="50" viewBox="0 0 50 50">
  <defs>
    <clipPath id="clip-path">
      <rect id="Bitmap" width="50" height="50" transform="translate(947 4989)" fill="#024aad"/>
    </clipPath>
  </defs>
  <g id="Mask_Group_21" data-name="Mask Group 21" transform="translate(-947 -4989)" clip-path="url(#clip-path)">
    <g id="Layer_2" data-name="Layer 2" transform="translate(947.099 4989)">
      <g id="Layer_1" data-name="Layer 1">
        <path id="Path_2748" data-name="Path 2748" d="M21.093,50c-.762-.586-.827-.924-.34-1.768q1.582-2.734,3.164-5.478c.565-.977,1.4-.977,1.969,0q1.585,2.734,3.164,5.478c.488.843.421,1.183-.34,1.77Zm5.566-1.97c-.6-1.032-1.151-1.99-1.758-3.034l-1.749,3.034Z"/>
        <path id="Path_2749" data-name="Path 2749" d="M27.245,0a1.437,1.437,0,0,1,.63,1.367c-.032,1.121,0,2.246-.012,3.365-.007.852-.37,1.2-1.23,1.206q-1.731.006-3.464,0c-.86,0-1.224-.355-1.229-1.206-.008-1.122.021-2.246-.012-3.365A1.438,1.438,0,0,1,22.558,0ZM25.861,1.984h-1.92V3.906h1.92Z"/>
        <path id="Path_2750" data-name="Path 2750" d="M0,24.511c.05-.133.1-.265.148-.4a2.982,2.982,0,0,1,3.367-2.032,2.968,2.968,0,0,1,0,5.839A2.982,2.982,0,0,1,.149,25.887c-.044-.135-.1-.267-.148-.4Zm3.969.5a.988.988,0,1,0-1,.972.988.988,0,0,0,1-.972Z"/>
        <path id="Path_2751" data-name="Path 2751" d="M49.8,25.487c-.051.133-.106.264-.15.4a2.966,2.966,0,1,1,0-1.774c.044.136.1.267.149.4Zm-1.993-.494a.988.988,0,1,0-.977.99.988.988,0,0,0,.977-.99Z"/>
        <path id="Path_2752" data-name="Path 2752" d="M26.585,13.207c.3-.7.626-1.456.955-2.213a1.033,1.033,0,0,1,1.592-.64q1.748.741,3.491,1.5a1.026,1.026,0,0,1,.614,1.568c-.276.659-.573,1.31-.829,1.976a.565.565,0,0,0,.058.5c.655.63,1.34,1.228,2.1,1.912.594-.237,1.372-.554,2.155-.86a1.01,1.01,0,0,1,1.512.654q.722,1.782,1.424,3.573a1.03,1.03,0,0,1-.674,1.542c-.66.27-1.32.545-1.989.793a.393.393,0,0,0-.3.46c.022.879.009,1.752.009,2.716l2.132.928c.894.391,1.067.808.692,1.685q-.727,1.7-1.459,3.4a1.035,1.035,0,0,1-1.6.636c-.658-.277-1.307-.578-1.975-.829a.6.6,0,0,0-.521.116c-.6.637-1.172,1.3-1.855,2.074.208.528.511,1.291.811,2.051.328.838.147,1.282-.684,1.616q-1.758.709-3.528,1.4A1.012,1.012,0,0,1,27.2,39.1c-.277-.675-.533-1.36-.83-2.026a.565.565,0,0,0-.4-.272c-.826-.044-1.66-.062-2.482-.057a.515.515,0,0,0-.36.272c-.309.661-.586,1.339-.879,2.008a1.026,1.026,0,0,1-1.562.621q-1.77-.75-3.536-1.517a1.014,1.014,0,0,1-.6-1.537c.282-.673.562-1.348.866-2.012a.4.4,0,0,0-.13-.539c-.561-.541-1.108-1.1-1.633-1.674a.391.391,0,0,0-.525-.14c-.672.285-1.352.551-2.032.816a1.021,1.021,0,0,1-1.542-.672q-.712-1.758-1.405-3.527a1.039,1.039,0,0,1,.69-1.572c.647-.262,1.293-.528,1.953-.767a.427.427,0,0,0,.319-.5c-.012-.8.037-1.592.032-2.387a.506.506,0,0,0-.229-.384c-.676-.316-1.367-.595-2.051-.894a1.009,1.009,0,0,1-.624-1.521q.756-1.8,1.531-3.582a1.011,1.011,0,0,1,1.5-.608c.689.286,1.367.6,2.063.868a.547.547,0,0,0,.488-.1c.611-.652,1.193-1.331,1.874-2.1-.22-.553-.535-1.331-.842-2.113a1.01,1.01,0,0,1,.64-1.517q1.8-.732,3.618-1.443a1,1,0,0,1,1.477.632c.287.689.55,1.389.852,2.071a.513.513,0,0,0,.369.26C24.706,13.218,25.618,13.207,26.585,13.207ZM13.109,30.918c.753-.3,1.444-.577,2.14-.847a1.031,1.031,0,0,1,1.493.462,9.949,9.949,0,0,0,2.405,2.474,1.067,1.067,0,0,1,.435,1.551c-.293.684-.586,1.367-.891,2.089l2.024.867A.846.846,0,0,0,20.8,37.4q.4-.915.792-1.833c.382-.886.671-.964,1.632-.879a21.35,21.35,0,0,0,3.249.029c.8-.048,1.126.059,1.434.819.278.684.552,1.379.837,2.095l2.076-.842c-.293-.75-.575-1.441-.846-2.137a1.03,1.03,0,0,1,.462-1.493,10.016,10.016,0,0,0,2.474-2.406,1.064,1.064,0,0,1,1.55-.436c.684.293,1.367.586,2.09.891l.868-2.022A.842.842,0,0,0,37.3,29.1c-.61-.265-1.221-.53-1.833-.792-.879-.378-.967-.674-.879-1.631a21.462,21.462,0,0,0,.031-3.248c-.049-.8.057-1.128.816-1.435.689-.278,1.381-.55,2.1-.834-.293-.714-.56-1.385-.841-2.078-.745.293-1.436.571-2.131.842a1.031,1.031,0,0,1-1.5-.458A9.986,9.986,0,0,0,30.663,17c-.655-.474-.743-.828-.419-1.592l.871-2.051-2.056-.886-.843,1.953c-.382.887-.675.97-1.63.879a21.463,21.463,0,0,0-3.248-.033c-.8.049-1.132-.056-1.437-.811-.279-.689-.552-1.381-.837-2.1l-2.077.842c.293.744.573,1.435.844,2.131a1.034,1.034,0,0,1-.459,1.5,9.978,9.978,0,0,0-2.473,2.41c-.473.653-.829.742-1.594.417l-2.051-.87-.879,2.057c.684.293,1.319.566,1.953.845.893.391.967.672.879,1.631a21.211,21.211,0,0,0-.03,3.248c.048.8-.06,1.128-.817,1.435-.688.279-1.38.554-2.091.839.285.7.55,1.361.839,2.079Z"/>
        <path id="Path_2753" data-name="Path 2753" d="M5.6,34.27c.759,1.046,1.465,2.14,2.287,3.13a21.672,21.672,0,0,0,9.588,6.628c.106.038.215.072.32.115a.988.988,0,1,1-.682,1.848,23.941,23.941,0,0,1-7.477-4.1A23.356,23.356,0,0,1,4.17,35.574c-.058-.1-.122-.189-.24-.37-.2.614-.351,1.159-.532,1.7a.977.977,0,0,1-1.51.586.966.966,0,0,1-.378-1.163q.586-1.934,1.2-3.856A.922.922,0,0,1,3.9,31.739q2.078.409,4.14.888a.951.951,0,0,1,.729,1.194,1,1,0,0,1-1.214.712c-.616-.125-1.229-.265-1.844-.4Z"/>
        <path id="Path_2754" data-name="Path 2754" d="M44.2,14.913a21.906,21.906,0,0,0-11.99-9.949c-.649-.222-.972-.614-.931-1.092a1.014,1.014,0,0,1,1.449-.822,24.023,24.023,0,0,1,7.546,4.177A23.526,23.526,0,0,1,45.6,13.4c.073.123.157.239.274.415.184-.586.344-1.111.515-1.633a.987.987,0,0,1,1.261-.763.974.974,0,0,1,.623,1.332q-.57,1.893-1.166,3.767a.963.963,0,0,1-1.3.75q-1.933-.391-3.859-.81a1.015,1.015,0,0,1-.919-1.249c.127-.555.653-.815,1.353-.673Z"/>
        <path id="Path_2755" data-name="Path 2755" d="M12.323,4.083c-.6-.185-1.095-.332-1.585-.488-.676-.215-1-.715-.832-1.269a1.024,1.024,0,0,1,1.422-.619c1.226.374,2.451.751,3.672,1.14a1.019,1.019,0,0,1,.781,1.347q-.409,1.928-.84,3.852a1.015,1.015,0,0,1-1.163.912,1.025,1.025,0,0,1-.768-1.312c.115-.586.253-1.172.408-1.874-.355.2-.618.342-.868.5a21.745,21.745,0,0,0-9.027,11.29c-.039.107-.071.216-.111.322a1.014,1.014,0,0,1-1.325.737.975.975,0,0,1-.526-1.374,44.162,44.162,0,0,1,1.99-4.38,22.929,22.929,0,0,1,8.351-8.5C12.011,4.3,12.116,4.222,12.323,4.083Z"/>
        <path id="Path_2756" data-name="Path 2756" d="M36.394,43.26a20.776,20.776,0,0,0,4.059-2.947A21.819,21.819,0,0,0,46.3,31.4c.164-.469.324-.939.911-1.023a.976.976,0,0,1,1.05,1.393,23.332,23.332,0,0,1-2.539,5.3,23.67,23.67,0,0,1-7.83,7.616c-.084.051-.169.1-.248.155-.023.016-.031.053-.072.131.569.183,1.132.354,1.689.543a.823.823,0,0,1,.646.821,1.562,1.562,0,0,1-.435.9.921.921,0,0,1-.759.108c-1.329-.366-2.647-.769-3.966-1.172a1,1,0,0,1-.736-1.289q.418-2,.866-3.994a1,1,0,0,1,1.1-.817A.959.959,0,0,1,36.8,41.2C36.711,41.854,36.549,42.5,36.394,43.26Z"/>
        <path id="Path_2757" data-name="Path 2757" d="M30.684,24.955a5.792,5.792,0,0,1-11.516.937,5.612,5.612,0,0,1,.868-4.056c.414-.636.955-.806,1.475-.475s.592.879.2,1.531a3.7,3.7,0,0,0-.129,3.976,3.81,3.81,0,0,0,6.64,0,3.718,3.718,0,0,0-.054-3.853,2.643,2.643,0,0,1-.332-.693.919.919,0,0,1,.571-1.065.953.953,0,0,1,1.172.334A5.515,5.515,0,0,1,30.684,24.955Z"/>
        <path id="Path_2758" data-name="Path 2758" d="M25.878,20.181a.977.977,0,1,1-.962-.914A.977.977,0,0,1,25.878,20.181Z"/>
      </g>
    </g>
  </g>
</svg>
