<svg xmlns="http://www.w3.org/2000/svg" xmlns:xlink="http://www.w3.org/1999/xlink" width="60" height="60" viewBox="0 0 60 60">
  <defs>
    <clipPath id="clip-path">
      <rect id="Rectangle_70" data-name="Rectangle 70" width="60" height="60" transform="translate(165 2486.5)" fill="#fff" stroke="#707070" stroke-width="1"/>
    </clipPath>
  </defs>
  <g id="Group_3247" data-name="Group 3247" transform="translate(-165 -2486.5)">
    <g id="Mask_Group_11" data-name="Mask Group 11" clip-path="url(#clip-path)">
      <g id="Layer_2" data-name="Layer 2" transform="translate(165.003 2486.5)">
        <g id="Character">
          <path id="Path_2699" data-name="Path 2699" d="M28.946,0a14.361,14.361,0,0,1,2.429,1.078A4.724,4.724,0,0,1,33.5,5.113q.041,11.653,0,23.3a5.2,5.2,0,0,1-5.29,5.088c-5.66.016-11.321,0-16.981,0-1.932,0-3.865.007-5.8,0A5.261,5.261,0,0,1,.007,28.066Q0,16.8.007,5.526A5.247,5.247,0,0,1,4.361.089,1.236,1.236,0,0,0,4.579,0ZM3.522,16.693V27.935A1.81,1.81,0,0,0,5.56,30H27.926A1.821,1.821,0,0,0,30,27.913V5.607a1.822,1.822,0,0,0-2.067-2.089H5.565A1.806,1.806,0,0,0,3.522,5.567Z"/>
          <path id="Path_2700" data-name="Path 2700" d="M59.991,55.421c-.079.279-.151.561-.235.839a5.261,5.261,0,0,1-4.876,3.72c-1.209.028-2.418.02-3.628.006a1.755,1.755,0,1,1,.012-3.509c1.092-.013,2.185,0,3.277,0a1.78,1.78,0,0,0,1.935-1.927c.006-1.014,0-2.029,0-3.043a1.828,1.828,0,0,1,1.395-2.02A1.787,1.787,0,0,1,59.9,50.669c.015.029.056.046.086.069Z"/>
          <path id="Path_2701" data-name="Path 2701" d="M59.991,9.257c-.059.094-.123.185-.176.283a1.749,1.749,0,0,1-3.329-.818c-.012-1.092,0-2.184,0-3.277A1.776,1.776,0,0,0,54.55,3.522H51.509a1.83,1.83,0,0,1-2.019-1.4,1.79,1.79,0,0,1,1.18-2.04C50.7.07,50.716.029,50.74,0h4.687c.148.042.295.088.444.126a5.272,5.272,0,0,1,3.857,3.493c.112.31.181.634.269.951Z"/>
          <path id="Path_2702" data-name="Path 2702" d="M43.709,0,44.1.235a1.754,1.754,0,0,1,.868,1.878A1.728,1.728,0,0,1,43.358,3.5q-1.868.049-3.739,0a1.729,1.729,0,0,1-1.607-1.385A1.735,1.735,0,0,1,38.869.235L39.257,0Z"/>
          <path id="Path_2703" data-name="Path 2703" d="M59.991,20.738c-.077.129-.155.257-.235.386a1.761,1.761,0,0,1-1.885.864,1.734,1.734,0,0,1-1.385-1.606q-.047-1.87,0-3.74a1.732,1.732,0,0,1,1.386-1.607,1.761,1.761,0,0,1,1.887.864c.075.13.154.258.235.387Z"/>
          <path id="Path_2704" data-name="Path 2704" d="M59.991,32.221c-.077.129-.155.257-.235.386a1.761,1.761,0,0,1-1.885.864,1.734,1.734,0,0,1-1.385-1.606q-.047-1.87,0-3.741a1.731,1.731,0,0,1,1.386-1.606,1.761,1.761,0,0,1,1.887.864c.075.13.154.258.235.387Z"/>
          <path id="Path_2705" data-name="Path 2705" d="M59.991,43.7c-.077.129-.155.257-.235.386a1.763,1.763,0,0,1-1.885.864,1.734,1.734,0,0,1-1.385-1.606q-.047-1.87,0-3.741A1.73,1.73,0,0,1,57.872,38a1.761,1.761,0,0,1,1.887.864c.075.13.154.258.235.387Z"/>
          <path id="Path_2706" data-name="Path 2706" d="M49.451,46.921c0-2.177-.016-4.206,0-6.235a1.744,1.744,0,0,1,2.665-1.519,1.692,1.692,0,0,1,.841,1.516q.007,5.241,0,10.48a1.728,1.728,0,0,1-1.824,1.8q-5.21.013-10.423,0a1.756,1.756,0,1,1,.007-3.51c1.835-.013,3.67,0,5.5,0h.7c-.228-.244-.373-.41-.528-.566Q40.657,43.145,34.92,37.414a1.863,1.863,0,0,1-.655-1.831,1.743,1.743,0,0,1,2.95-.842c.964.912,1.878,1.869,2.818,2.808l8.861,8.859C49.051,46.553,49.206,46.691,49.451,46.921Z"/>
          <path id="Path_2707" data-name="Path 2707" d="M.006,53.064c0-.625-.015-1.249,0-1.873a1.753,1.753,0,1,1,3.5.008c.021,1.112,0,2.224.007,3.336a1.781,1.781,0,0,0,1.93,1.938c1.073.006,2.146,0,3.219,0a1.761,1.761,0,1,1,.021,3.516,34.882,34.882,0,0,1-4.379-.124A5.138,5.138,0,0,1,.014,54.942c-.021-.623,0-1.249,0-1.878Z"/>
          <path id="Path_2708" data-name="Path 2708" d="M.006,41.483c0-.587-.013-1.174,0-1.753a1.754,1.754,0,1,1,3.507.025q.026,1.722,0,3.446a1.754,1.754,0,1,1-3.506-.023C0,42.616,0,42.047.006,41.483Z"/>
          <path id="Path_2709" data-name="Path 2709" d="M18.483,59.991c-.565,0-1.129.012-1.694,0a1.753,1.753,0,1,1-.023-3.507q1.752-.027,3.506,0a1.753,1.753,0,0,1,.019,3.5C19.691,60.006,19.087,59.991,18.483,59.991Z"/>
          <path id="Path_2710" data-name="Path 2710" d="M30.054,56.477c.565,0,1.129-.013,1.694,0a1.75,1.75,0,0,1,.029,3.5q-1.782.036-3.563,0a1.75,1.75,0,0,1,.031-3.5C28.852,56.469,29.455,56.477,30.054,56.477Z"/>
          <path id="Path_2711" data-name="Path 2711" d="M41.456,59.991c-.565,0-1.131.011-1.694,0a1.755,1.755,0,1,1,.025-3.509q1.694-.019,3.388,0a1.757,1.757,0,1,1-.025,3.51C42.585,60,42.02,59.991,41.456,59.991Z"/>
        </g>
      </g>
    </g>
  </g>
</svg>
