<svg xmlns="http://www.w3.org/2000/svg" width="354.357" height="242.828" viewBox="0 0 354.357 242.828">
  <g id="industry_image" transform="translate(0 1.414)">
    <circle id="Ellipse_1" cx="84.853" cy="84.853" r="84.853" transform="translate(57.179 120) rotate(-45)" fill="none" stroke="#0c569c" stroke-miterlimit="10" stroke-width="2"/>
    <g id="Group_19" transform="translate(100.572 43.397)">
      <circle id="Ellipse_2" cx="76.603" cy="76.603" r="76.603" transform="translate(0.004 0)" fill="#024aad"/>
      <g id="Group_1" transform="translate(11.756 11.753)">
        <path id="Path_1" d="M64.148,129.7l.012-1.172c.236,0,.475.008.708,0,2.111,0,4.24-.1,6.328-.311l.116,1.166c-2.129.214-4.3.32-6.445.32C64.632,129.7,64.388,129.7,64.148,129.7Zm-9.5-.794.184-1.158a64.143,64.143,0,0,0,7,.714l-.055,1.172A65.812,65.812,0,0,1,54.65,128.9Zm18.853-.958a63.94,63.94,0,0,0,6.913-1.333l.284,1.134a64.712,64.712,0,0,1-7.039,1.361Zm-28.136-1.222.354-1.119a63.452,63.452,0,0,0,6.826,1.736l-.228,1.151A64.415,64.415,0,0,1,45.367,126.723ZM82.659,126a63.293,63.293,0,0,0,6.641-2.339l.45,1.083a64.04,64.04,0,0,1-6.763,2.381ZM36.5,123.193l.513-1.056a63.32,63.32,0,0,0,6.5,2.726l-.393,1.105A65.084,65.084,0,0,1,36.5,123.193Zm54.922-.455a63.451,63.451,0,0,0,6.222-3.291l.6,1a64.791,64.791,0,0,1-6.336,3.351ZM28.255,118.4l.663-.967a63.764,63.764,0,0,0,6.024,3.652l-.553,1.036A65.324,65.324,0,0,1,28.255,118.4Zm71.358-.183a63.892,63.892,0,0,0,5.674-4.169l.746.907a65.838,65.838,0,0,1-5.783,4.244ZM20.8,112.444l.8-.86a64.251,64.251,0,0,0,5.423,4.494l-.7.942A65.185,65.185,0,0,1,20.8,112.444Zm87.026.969-.78-.879a64.179,64.179,0,0,0,5.008-4.951l.869.787a65.593,65.593,0,0,1-5.1,5.045ZM14.3,105.476l.914-.735a64.564,64.564,0,0,0,4.71,5.235l-.827.831A65.644,65.644,0,0,1,14.3,105.476Zm100.184,1.112-.9-.754a64.2,64.2,0,0,0,4.232-5.63l.975.652a65.172,65.172,0,0,1-4.311,5.736ZM8.887,97.634,9.9,97.041a63.813,63.813,0,0,0,3.9,5.864l-.937.7A65.214,65.214,0,0,1,8.887,97.634Zm111.191,1.224h0l0,.005Zm-1-.616a63.714,63.714,0,0,0,3.362-6.189l1.063.5a65.332,65.332,0,0,1-3.427,6.3ZM4.68,89.089l1.088-.438a63.421,63.421,0,0,0,2.991,6.37l-1.031.557A65.216,65.216,0,0,1,4.68,89.089Zm118.717.847a63.718,63.718,0,0,0,2.409-6.618l1.122.34a64.774,64.774,0,0,1-2.454,6.741ZM1.782,80.009l1.141-.274a63.339,63.339,0,0,0,2.019,6.745l-1.1.4A64.771,64.771,0,0,1,1.782,80.009Zm124.659,1.075a63.835,63.835,0,0,0,1.408-6.9l1.161.171a65.272,65.272,0,0,1-1.435,7.026ZM.251,70.6l1.167-.1a64.048,64.048,0,0,0,1,6.97l-1.151.23A65.239,65.239,0,0,1,.251,70.6Zm127.894,1.279a64.571,64.571,0,0,0,.04-13.684l1.167-.121a65.837,65.837,0,0,1-.041,13.932ZM0,64.85c0-1.259.036-2.531.108-3.781l1.171.068c-.07,1.228-.107,2.48-.107,3.713,0,1.111.03,2.231.086,3.331L.087,68.24C.029,67.121,0,65.98,0,64.85Zm.286-6.139A64.985,64.985,0,0,1,1.349,51.62l1.148.238A64.224,64.224,0,0,0,1.454,58.82Zm126.249-9.727,1.133-.292a64.936,64.936,0,0,1,1.393,7.035l-1.159.164A63.687,63.687,0,0,0,126.535,48.984ZM1.873,49.308a64.714,64.714,0,0,1,2.1-6.861l1.1.4a63.464,63.464,0,0,0-2.06,6.739Zm121.674-9.194,1.08-.456a65.092,65.092,0,0,1,2.416,6.753l-1.125.333A63.622,63.622,0,0,0,123.547,40.115ZM4.832,40.24a65.2,65.2,0,0,1,3.089-6.475l1.029.563a64.046,64.046,0,0,0-3.033,6.358Zm114.453-8.447,1-.609a65.1,65.1,0,0,1,3.382,6.321L122.606,38A63.742,63.742,0,0,0,119.285,31.793ZM9.1,31.71A65.1,65.1,0,0,1,13.1,25.756l.934.708A64.105,64.105,0,0,0,10.1,32.307v0Zm104.75-7.531.9-.749a65.524,65.524,0,0,1,4.272,5.758l-.979.645A64.426,64.426,0,0,0,113.846,24.179ZM14.563,23.9a65.208,65.208,0,0,1,4.831-5.3l.822.836a64.07,64.07,0,0,0-4.742,5.2l0,0Zm92.794-6.464.779-.873a65.594,65.594,0,0,1,5.067,5.075l-.87.781A64.667,64.667,0,0,0,107.357,17.434ZM21.11,16.968a65.511,65.511,0,0,1,5.55-4.535l.692.947a63.982,63.982,0,0,0-5.45,4.455ZM99.95,11.709l.647-.978a65.4,65.4,0,0,1,5.755,4.282l-.75.9A64.311,64.311,0,0,0,99.95,11.709Zm-70.7.334h0Zm-.654-.972a65.168,65.168,0,0,1,6.154-3.679L35.3,8.43a64.13,64.13,0,0,0-6.043,3.612ZM91.781,7.13l.5-1.063A64.9,64.9,0,0,1,98.6,9.46l-.611,1A63.709,63.709,0,0,0,91.781,7.13Zm-54.413.261h0Zm-.5-1.057A64.813,64.813,0,0,1,43.493,3.6l.386,1.107a63.591,63.591,0,0,0-6.51,2.684ZM83.024,3.8l.334-1.124A64.579,64.579,0,0,1,90.111,5.1l-.457,1.08A63.324,63.324,0,0,0,83.024,3.8Zm-36.94.178h0v0Zm-.343-1.116A64.705,64.705,0,0,1,52.7,1.138l.217,1.153A63.724,63.724,0,0,0,46.086,3.98ZM73.881,1.811,74.047.649a64.916,64.916,0,0,1,7.033,1.4l-.292,1.136A63.44,63.44,0,0,0,73.881,1.811ZM55.036.738A65.418,65.418,0,0,1,62.173.054l.048,1.172a64.213,64.213,0,0,0-7.009.671Zm9.817.434h-.31L64.537,0h.313a65.83,65.83,0,0,1,6.843.355l-.118,1.167A64.992,64.992,0,0,0,64.853,1.172Z" fill="#8d8ffe"/>
      </g>
      <path id="Path_2" d="M22.439,130.77a76.59,76.59,0,1,1,54.183,22.439A76.6,76.6,0,0,1,22.439,130.77Z" transform="translate(0 0.001)" fill="#024aad"/>
      <g id="Group_2" transform="translate(6.045 6.04)">
        <path id="Path_3" d="M1.453,3.675c.319-.138.638-.276.96-.41L.959,0C.638.134.321.272,0,.411Z" transform="translate(42.481 5.423)" fill="#8d8ffe"/>
        <path id="Path_4" d="M2.3,3.39c.269-.221.541-.437.813-.655L.813,0C.541.217.269.433,0,.655Z" transform="translate(25.742 15.446)" fill="#8d8ffe"/>
        <path id="Path_5" d="M1.455,3.936q.678-.256,1.361-.5L1.828,0Q.907.321,0,.668Z" transform="translate(45.519 3.928)" fill="#8d8ffe"/>
        <path id="Path_6" d="M1.454,3.732c.311-.157.622-.313.936-.466L.936,0C.622.152.311.31,0,.466Z" transform="translate(39.057 6.969)" fill="#8d8ffe"/>
        <path id="Path_7" d="M.985,3.76c.33-.111.661-.213.992-.323L.992,0C.661.106.329.213,0,.323Z" transform="translate(48.148 3.327)" fill="#8d8ffe"/>
        <path id="Path_8" d="M1.893,3.592q.437-.283.878-.563L.879,0Q.437.279,0,.563Z" transform="translate(32.158 10.832)" fill="#8d8ffe"/>
        <path id="Path_9" d="M1.894,3.621c.283-.2.573-.4.862-.591L.863,0C.573.193.286.391,0,.588Z" transform="translate(30.589 11.86)" fill="#8d8ffe"/>
        <path id="Path_10" d="M2.3,3.883q.579-.432,1.167-.85L1.571,0Q.778.561,0,1.144Z" transform="translate(28.322 12.931)" fill="#8d8ffe"/>
        <path id="Path_11" d="M1.9,3.951q.634-.347,1.276-.68L1.715,0C1.139.3.568.605,0,.918Z" transform="translate(36.588 7.816)" fill="#8d8ffe"/>
        <path id="Path_12" d="M.985,3.734q.5-.153,1-.3L1,0Q.5.145,0,.3Z" transform="translate(49.944 2.772)" fill="#8d8ffe"/>
        <path id="Path_13" d="M1.893,3.566c.3-.181.6-.359.9-.536L.9,0Q.446.266,0,.538Z" transform="translate(33.752 9.847)" fill="#8d8ffe"/>
        <path id="Path_14" d="M0,3.565c.347.035.692.077,1.038.116L1.288.113C.942.074.6.035.249,0Z" transform="translate(77.294 0.342)" fill="#8d8ffe"/>
        <path id="Path_15" d="M3.576,2.062q.067-.722.151-1.44L.2,0Q.087.965,0,1.937Z" transform="translate(0.295 62.219)" fill="#8d8ffe"/>
        <path id="Path_16" d="M0,3.615q.521-.024,1.044-.04V0C.7.01.347.025,0,.04Z" transform="translate(67.46 0.03)" fill="#8d8ffe"/>
        <path id="Path_17" d="M.2,3.573H.256L.506,0,.2,0Z" transform="translate(71.033 0.006)" fill="#8d8ffe"/>
        <path id="Path_18" d="M.985,3.709c.335-.093.67-.186,1.007-.274L1.007,0C.67.088.335.181,0,.274Z" transform="translate(51.76 2.273)" fill="#8d8ffe"/>
        <path id="Path_19" d="M0,3.564c.348.025.694.055,1.04.085L1.29.084C.943.054.6.025.249,0Z" transform="translate(75.412 0.184)" fill="#8d8ffe"/>
        <path id="Path_20" d="M.5,3.678q.72-.057,1.444-.1V0Q.967.055,0,.135Z" transform="translate(64.673 0.111)" fill="#8d8ffe"/>
        <path id="Path_21" d="M.5,3.724q.512-.1,1.028-.185L1.028,0C.685.058.342.118,0,.181Z" transform="translate(57.679 1)" fill="#8d8ffe"/>
        <path id="Path_22" d="M.984,3.845c.471-.1.943-.207,1.417-.3L1.906,0Q.949.189,0,.4Z" transform="translate(54.944 1.34)" fill="#8d8ffe"/>
        <path id="Path_23" d="M.5,3.662c.344-.045.691-.083,1.037-.123L1.036,0C.69.04.344.079,0,.123Z" transform="translate(61.411 0.468)" fill="#8d8ffe"/>
        <path id="Path_24" d="M.5,3.692c.344-.054.688-.1,1.033-.154L1.032,0C.687.049.343.1,0,.152Z" transform="translate(59.542 0.709)" fill="#8d8ffe"/>
        <path id="Path_25" d="M1.454,3.7c.315-.148.629-.3.947-.439L.948,0C.63.142.315.291,0,.438Z" transform="translate(40.759 6.177)" fill="#8d8ffe"/>
        <path id="Path_26" d="M3.4,2.1c.1-.333.208-.664.314-.992L.315,0Q.155.5,0,.992Z" transform="translate(3.084 48.925)" fill="#8d8ffe"/>
        <path id="Path_27" d="M3.4,2.911q.266-.675.546-1.342L.73,0Q.352.9,0,1.805Z" transform="translate(4.781 43.229)" fill="#8d8ffe"/>
        <path id="Path_28" d="M3.4,2.089c.111-.33.228-.657.344-.985L.344,0C.227.327.111.656,0,.986Z" transform="translate(3.659 47.134)" fill="#8d8ffe"/>
        <path id="Path_29" d="M3.213,2.523c.142-.32.276-.638.42-.957L.42,0C.279.316.137.638,0,.956Z" transform="translate(5.848 41.498)" fill="#8d8ffe"/>
        <path id="Path_30" d="M3.211,2.5q.234-.466.475-.93L.474,0Q.233.462,0,.93Z" transform="translate(7.449 38.103)" fill="#8d8ffe"/>
        <path id="Path_31" d="M3.211,2.51c.147-.315.295-.631.447-.943L.447,0C.295.313.147.628,0,.943Z" transform="translate(6.626 39.786)" fill="#8d8ffe"/>
        <path id="Path_32" d="M3.519,1.651Q3.6,1.134,3.69.621L.171,0Q.082.515,0,1.03Z" transform="translate(0.868 58.48)" fill="#8d8ffe"/>
        <path id="Path_33" d="M3.4,2.109l.283-1L.283,0Q.137.5,0,1Z" transform="translate(2.556 50.728)" fill="#8d8ffe"/>
        <path id="Path_34" d="M2.3,3.413c.262-.228.528-.453.794-.678L.794,0C.529.225.262.449,0,.677Z" transform="translate(24.302 16.646)" fill="#8d8ffe"/>
        <path id="Path_35" d="M3.525,2.512q.168-.709.349-1.406L.473,0Q.224.941,0,1.889Z" transform="translate(1.862 52.548)" fill="#8d8ffe"/>
        <path id="Path_36" d="M3.519,1.646c.064-.342.128-.685.2-1.025L.2,0Q.095.512,0,1.025Z" transform="translate(1.189 56.624)" fill="#8d8ffe"/>
        <path id="Path_37" d="M3.517,1.655c.045-.346.1-.69.145-1.034L.142,0C.091.344.042.688,0,1.034Z" transform="translate(0.601 60.343)" fill="#8d8ffe"/>
        <path id="Path_38" d="M2.654,3.154q.354-.385.709-.764L.709,0Q.349.378,0,.763Z" transform="translate(18.603 22.11)" fill="#8d8ffe"/>
        <path id="Path_39" d="M2.654,3.169c.228-.263.461-.522.693-.78L.693,0Q.344.388,0,.78Z" transform="translate(17.343 23.501)" fill="#8d8ffe"/>
        <path id="Path_40" d="M2.658,3.191c.221-.269.446-.534.671-.8L.674,0C.449.265.222.529,0,.8Z" transform="translate(16.12 24.923)" fill="#8d8ffe"/>
        <path id="Path_41" d="M2.3,3.439q.384-.354.773-.7L.775,0C.515.232.256.464,0,.7Z" transform="translate(22.895 17.884)" fill="#8d8ffe"/>
        <path id="Path_42" d="M3.216,3.251Q3.57,2.622,3.941,2L.974,0Q.478.833,0,1.682Z" transform="translate(8.989 34.452)" fill="#8d8ffe"/>
        <path id="Path_43" d="M2.66,3.743q.514-.506,1.037-1L1.4,0Q.69.665,0,1.347Z" transform="translate(20.877 19.159)" fill="#8d8ffe"/>
        <path id="Path_44" d="M2.961,2.869c.19-.291.38-.583.574-.871L.574,0C.38.288.19.58,0,.872Z" transform="translate(11.412 31.261)" fill="#8d8ffe"/>
        <path id="Path_45" d="M2.962,2.884c.182-.3.368-.591.554-.885L.554,0Q.27.44,0,.885Z" transform="translate(10.401 32.842)" fill="#8d8ffe"/>
        <path id="Path_46" d="M2.966,3.527q.439-.574.889-1.134L1.2,0Q.589.757,0,1.529Z" transform="translate(14.392 26.382)" fill="#8d8ffe"/>
        <path id="Path_47" d="M2.962,2.854c.2-.283.395-.573.6-.855L.6,0C.394.283.2.567,0,.857Z" transform="translate(12.465 29.708)" fill="#8d8ffe"/>
        <path id="Path_48" d="M0,3.586c.347-.006.695-.012,1.043-.013V0C.695,0,.347.007,0,.013Z" transform="translate(69.348)" fill="#8d8ffe"/>
        <path id="Path_49" d="M0,1.339q.194.484.381.972L3.695.972Q3.506.484,3.313,0Z" transform="translate(132.743 44.287)" fill="#8d8ffe"/>
        <path id="Path_50" d="M0,1.79q.324.645.638,1.3l3.317-1.34Q3.539.868,3.1,0Z" transform="translate(130.447 38.762)" fill="#8d8ffe"/>
        <path id="Path_51" d="M0,1.339q.208.477.41.96L3.724.96C3.59.639,3.452.322,3.314,0Z" transform="translate(132.012 42.549)" fill="#8d8ffe"/>
        <path id="Path_52" d="M0,1.339c.12.326.236.655.354.983L3.67.982C3.554.654,3.437.326,3.316,0Z" transform="translate(133.424 46.052)" fill="#8d8ffe"/>
        <path id="Path_53" d="M0,1.341q.232.685.448,1.377l3.473-.866Q3.631.921,3.317,0Z" transform="translate(134.056 47.829)" fill="#8d8ffe"/>
        <path id="Path_54" d="M0,2.2c.206.283.413.56.615.843L3.432.843C3.229.56,3.022.281,2.816,0Z" transform="translate(124.578 28.781)" fill="#8d8ffe"/>
        <path id="Path_55" d="M0,3.57c.48.062.958.13,1.434.2l.745-3.5Q1.218.121.25,0Z" transform="translate(79.172 0.552)" fill="#8d8ffe"/>
        <path id="Path_56" d="M0,.865c.093.335.186.67.273,1.008l3.468-.865C3.653.67,3.56.335,3.468,0Z" transform="translate(135.135 51.832)" fill="#8d8ffe"/>
        <path id="Path_57" d="M0,1.786c.174.3.342.606.51.911L3.6.91C3.435.606,3.267.3,3.094,0Z" transform="translate(128.658 35.438)" fill="#8d8ffe"/>
        <path id="Path_58" d="M0,1.787c.181.3.36.6.537.894L3.631.9C3.454.6,3.276.3,3.095,0Z" transform="translate(127.69 33.816)" fill="#8d8ffe"/>
        <path id="Path_59" d="M0,1.787q.248.459.488.921L3.584.921C3.422.612,3.261.3,3.1,0Z" transform="translate(129.575 37.088)" fill="#8d8ffe"/>
        <path id="Path_60" d="M0,.373c.045.344.084.691.123,1.037l3.553-.373C3.638.691,3.6.344,3.556,0Z" transform="translate(136.993 61.482)" fill="#8d8ffe"/>
        <path id="Path_61" d="M.257,3.583.505.019.2,0V3.58Z" transform="translate(74.313 0.111)" fill="#8d8ffe"/>
        <path id="Path_62" d="M3.573.4c0-.092,0-.184,0-.276L.006,0C.006.134,0,.266,0,.4c0,.213.006.429.009.644l3.575.125C3.58.913,3.573.658,3.573.4Z" transform="translate(0 70.163)" fill="#8d8ffe"/>
        <path id="Path_63" d="M3.556,0,0,.373c.026.347.046.695.067,1.043l3.556-.373C3.6.695,3.582.347,3.556,0Z" transform="translate(137.375 65.241)" fill="#8d8ffe"/>
        <path id="Path_64" d="M0,.864c.084.338.168.675.246,1.015l3.468-.865C3.636.674,3.551.337,3.467,0Z" transform="translate(135.612 53.66)" fill="#8d8ffe"/>
        <path id="Path_65" d="M.249,0,0,3.564c.266.018.532.036.8.051V.035C.615.021.432.009.249,0Z" transform="translate(65.817 137.405)" fill="#8d8ffe"/>
        <path id="Path_66" d="M2.48,0,0,2.57q.367.372.739.738L3.22.738Q2.846.373,2.48,0Z" transform="translate(20.355 117.521)" fill="#8d8ffe"/>
        <path id="Path_67" d="M0,.866q.133.709.25,1.427l3.56-.374Q3.653.955,3.472,0Z" transform="translate(136.413 57.351)" fill="#8d8ffe"/>
        <path id="Path_68" d="M0,.865c.071.339.146.68.213,1.022l3.473-.866C3.614.68,3.544.34,3.466,0Z" transform="translate(136.039 55.499)" fill="#8d8ffe"/>
        <path id="Path_69" d="M0,.373c.035.345.062.693.092,1.04L3.646,1.04C3.616.693,3.589.345,3.553,0Z" transform="translate(137.213 63.36)" fill="#8d8ffe"/>
        <path id="Path_70" d="M0,2.2q.32.411.638.828L3.452.828Q3.137.411,2.814,0Z" transform="translate(123.44 27.277)" fill="#8d8ffe"/>
        <path id="Path_71" d="M0,2.2Q.411,2.8.81,3.4l3.1-1.789Q3.375.8,2.819,0Z" transform="translate(125.675 30.317)" fill="#8d8ffe"/>
        <path id="Path_72" d="M0,3.36q.485.193.967.4L2.189.4q-.482-.2-.966-.4Z" transform="translate(95.405 4.988)" fill="#8d8ffe"/>
        <path id="Path_73" d="M0,3.358c.327.12.651.246.975.371L2.2.371C1.872.247,1.549.12,1.222,0Z" transform="translate(93.643 4.31)" fill="#8d8ffe"/>
        <path id="Path_74" d="M0,3.154c.307.164.611.333.915.5L2.592.5Q2.137.249,1.678,0Z" transform="translate(102.164 8.351)" fill="#8d8ffe"/>
        <path id="Path_75" d="M0,3.359c.33.111.658.227.985.344L2.208.345C1.88.229,1.553.111,1.223,0Z" transform="translate(91.861 3.682)" fill="#8d8ffe"/>
        <path id="Path_76" d="M0,3.364q.665.288,1.322.59L3,.8Q2.119.386,1.225,0Z" transform="translate(97.149 5.713)" fill="#8d8ffe"/>
        <path id="Path_77" d="M0,3.156q.466.234.93.474L2.607.476Q2.145.235,1.678,0Z" transform="translate(100.487 7.481)" fill="#8d8ffe"/>
        <path id="Path_78" d="M0,3.5c.34.071.681.142,1.019.223l.743-3.5C1.424.145,1.083.073.743,0Z" transform="translate(84.664 1.573)" fill="#8d8ffe"/>
        <path id="Path_79" d="M0,3.5c.342.064.685.128,1.025.2L1.768.2C1.427.126,1.085.064.743,0Z" transform="translate(82.813 1.201)" fill="#8d8ffe"/>
        <path id="Path_80" d="M0,3.5q.7.192,1.392.4L2.616.537Q1.686.254.744,0Z" transform="translate(88.335 2.467)" fill="#8d8ffe"/>
        <path id="Path_81" d="M0,3.5c.338.083.676.166,1.013.254L1.757.25C1.42.163,1.081.082.743,0Z" transform="translate(86.507 1.996)" fill="#8d8ffe"/>
        <path id="Path_82" d="M0,2.892q.558.459,1.1.93L3.59,1.248Q2.855.61,2.1,0Z" transform="translate(113.053 15.913)" fill="#8d8ffe"/>
        <path id="Path_83" d="M0,2.569q.385.354.764.709L3.244.709Q2.866.349,2.48,0Z" transform="translate(115.83 18.653)" fill="#8d8ffe"/>
        <path id="Path_84" d="M0,2.2c.221.268.437.541.655.812L3.469.813C3.252.541,3.035.269,2.814,0Z" transform="translate(122.261 25.801)" fill="#8d8ffe"/>
        <path id="Path_85" d="M0,2.569c.249.242.5.483.746.729L3.226.729C2.98.483,2.73.242,2.48,0Z" transform="translate(117.203 19.953)" fill="#8d8ffe"/>
        <path id="Path_86" d="M0,2.571c.243.249.485.5.724.753L3.208.751C2.969.5,2.725.249,2.482,0Z" transform="translate(118.541 21.284)" fill="#8d8ffe"/>
        <path id="Path_87" d="M0,2.572Q.489,3.1.966,3.645l2.819-2.2Q3.147.712,2.484,0Z" transform="translate(119.839 22.654)" fill="#8d8ffe"/>
        <path id="Path_88" d="M0,2.89c.283.2.573.394.857.6L2.956.6C2.673.395,2.389.2,2.1,0Z" transform="translate(108.527 12.507)" fill="#8d8ffe"/>
        <path id="Path_89" d="M0,3.162q.617.377,1.225.766l2.1-2.892Q2.512.508,1.681,0Z" transform="translate(105.442 10.225)" fill="#8d8ffe"/>
        <path id="Path_90" d="M0,3.154c.3.174.6.354.9.53L2.579.527c-.3-.177-.6-.354-.9-.527Z" transform="translate(103.816 9.266)" fill="#8d8ffe"/>
        <path id="Path_91" d="M0,2.889q.421.308.838.622l2.1-2.89C2.661.409,2.381.206,2.1,0Z" transform="translate(110.066 13.602)" fill="#8d8ffe"/>
        <path id="Path_92" d="M0,2.89q.412.32.819.648L2.921.645Q2.513.318,2.1,0Z" transform="translate(111.575 14.738)" fill="#8d8ffe"/>
        <path id="Path_93" d="M.043,0C.03.348.018.7,0,1.043l3.572.124C3.59.821,3.6.473,3.613.125Z" transform="translate(137.463 73.075)" fill="#8d8ffe"/>
        <path id="Path_94" d="M.889,0C.594.184.3.368,0,.547l1.894,3.03c.3-.179.593-.364.888-.548Z" transform="translate(105.018 127.449)" fill="#8d8ffe"/>
        <path id="Path_95" d="M.906,0Q.456.264,0,.52L1.9,3.553c.3-.172.6-.347.9-.522Z" transform="translate(103.385 128.427)" fill="#8d8ffe"/>
        <path id="Path_96" d="M1.276,0Q.642.347,0,.68L1.456,3.95q.865-.446,1.715-.921Z" transform="translate(101.371 129.36)" fill="#8d8ffe"/>
        <path id="Path_97" d="M.945,0Q.476.225,0,.442L1.454,3.707q.475-.218.945-.442Z" transform="translate(98.423 131.04)" fill="#8d8ffe"/>
        <path id="Path_98" d="M.872,0C.582.192.293.386,0,.574L1.892,3.6c.293-.188.583-.381.872-.573Z" transform="translate(106.624 126.428)" fill="#8d8ffe"/>
        <path id="Path_99" d="M1.037,0Q.523.507,0,1L2.3,3.743Q3.007,3.077,3.7,2.4Z" transform="translate(116.557 118.224)" fill="#8d8ffe"/>
        <path id="Path_100" d="M.73,0C.489.252.245.5,0,.748L2.656,3.139c.244-.248.489-.5.729-.747Z" transform="translate(118.193 116.879)" fill="#8d8ffe"/>
        <path id="Path_101" d="M1.167,0Q.587.432,0,.85L1.9,3.883q.793-.561,1.571-1.143Z" transform="translate(109.342 124.312)" fill="#8d8ffe"/>
        <path id="Path_102" d="M.955,0C.638.142.318.283,0,.419L1.453,3.682c.32-.137.638-.278.956-.419Z" transform="translate(96.697 131.829)" fill="#8d8ffe"/>
        <path id="Path_103" d="M.806,0Q.406.335,0,.663L2.3,3.4q.405-.33.806-.663Z" transform="translate(112.667 121.969)" fill="#8d8ffe"/>
        <path id="Path_104" d="M.826,0C.554.213.276.425,0,.638L2.3,3.376q.415-.319.825-.638Z" transform="translate(111.182 123.159)" fill="#8d8ffe"/>
        <path id="Path_105" d="M.786,0Q.395.347,0,.687L2.3,3.422q.4-.339.787-.685Z" transform="translate(114.118 120.736)" fill="#8d8ffe"/>
        <path id="Path_106" d="M.968,0C.646.133.325.264,0,.392L1.456,3.661c.324-.128.645-.262.967-.395Z" transform="translate(94.947 132.57)" fill="#8d8ffe"/>
        <path id="Path_107" d="M1.417,0Q.709.158,0,.3L.5,3.846q.957-.191,1.906-.4Z" transform="translate(83.785 135.94)" fill="#8d8ffe"/>
        <path id="Path_108" d="M3.57,1.167Q3.594.644,3.626.125L.054,0Q.023.52,0,1.043Z" transform="translate(0.074 66.388)" fill="#8d8ffe"/>
        <path id="Path_109" d="M1.039,0C.694.038.347.071,0,.1L.5,3.648q.521-.049,1.039-.107Z" transform="translate(76.803 137.159)" fill="#8d8ffe"/>
        <path id="Path_110" d="M1.444,0Q.725.057,0,.1V3.681q.974-.054,1.943-.136Z" transform="translate(74.516 137.338)" fill="#8d8ffe"/>
        <path id="Path_111" d="M1.035,0Q.518.071,0,.135L.5,3.674c.346-.042.69-.089,1.035-.135Z" transform="translate(78.682 136.928)" fill="#8d8ffe"/>
        <path id="Path_112" d="M1.014,0C.678.086.339.168,0,.248L.985,3.685C1.324,3.6,1.663,3.524,2,3.437Z" transform="translate(86.027 135.503)" fill="#8d8ffe"/>
        <path id="Path_113" d="M1,0C.668.1.334.2,0,.3L.985,3.738c.334-.1.668-.2,1-.3Z" transform="translate(89.676 134.471)" fill="#8d8ffe"/>
        <path id="Path_114" d="M1.36,0Q.683.255,0,.5L.987,3.937q.921-.322,1.828-.668Z" transform="translate(92.797 133.263)" fill="#8d8ffe"/>
        <path id="Path_115" d="M1.044,0C.7.009.348.01,0,.013V3.586c.348,0,.7,0,1.044-.013Z" transform="translate(71.236 137.534)" fill="#8d8ffe"/>
        <path id="Path_116" d="M1.007,0C.673.095.337.184,0,.274L.985,3.708c.336-.09.673-.178,1.007-.273Z" transform="translate(87.858 135.015)" fill="#8d8ffe"/>
        <path id="Path_117" d="M.349,0Q.181.709,0,1.406l3.4,1.1q.249-.94.473-1.889Z" transform="translate(135.395 86.068)" fill="#8d8ffe"/>
        <path id="Path_118" d="M.223,0C.152.342.077.681,0,1.021l3.522.621C3.6,1.3,3.674.962,3.745.621Z" transform="translate(135.933 84.223)" fill="#8d8ffe"/>
        <path id="Path_119" d="M.332,0Q.169.5,0,.992L3.4,2.1q.17-.5.332-.992Z" transform="translate(133.894 91.43)" fill="#8d8ffe"/>
        <path id="Path_120" d="M.3,0C.2.334.1.668,0,1L3.4,2.1c.1-.332.2-.665.3-1Z" transform="translate(134.488 89.628)" fill="#8d8ffe"/>
        <path id="Path_121" d="M.2,0C.135.343.067.684,0,1.025l3.519.621c.067-.342.135-.682.2-1.026Z" transform="translate(136.32 82.369)" fill="#8d8ffe"/>
        <path id="Path_122" d="M.071,0C.049.347.026.7,0,1.041l3.575.125C3.6.82,3.623.472,3.646.125Z" transform="translate(137.339 74.961)" fill="#8d8ffe"/>
        <path id="Path_123" d="M.164,0C.113.344.057.687,0,1.03l3.519.62c.057-.343.115-.685.167-1.03Z" transform="translate(136.655 80.505)" fill="#8d8ffe"/>
        <path id="Path_124" d="M0,.374c.021.481.04.963.052,1.446l3.574.125Q3.606.969,3.561,0Z" transform="translate(137.485 67.128)" fill="#8d8ffe"/>
        <path id="Path_125" d="M.013,0C.013.349.009.7,0,1.044l3.571.125c.009-.347.009-.7.013-1.044Z" transform="translate(137.537 71.187)" fill="#8d8ffe"/>
        <path id="Path_126" d="M.151,0Q.08.723,0,1.44l3.525.622q.113-.965.2-1.936Z" transform="translate(137.11 76.845)" fill="#8d8ffe"/>
        <path id="Path_127" d="M.363,0C.245.327.123.653,0,.979L3.4,2.084q.184-.488.36-.98Z" transform="translate(133.249 93.217)" fill="#8d8ffe"/>
        <path id="Path_128" d="M.442,0Q.224.474,0,.945L3.211,2.512q.225-.471.442-.945Z" transform="translate(131.062 98.378)" fill="#8d8ffe"/>
        <path id="Path_129" d="M.616,0C.412.283.208.567,0,.844l2.963,2q.311-.419.616-.843Z" transform="translate(124.286 109.701)" fill="#8d8ffe"/>
        <path id="Path_130" d="M.595,0C.4.288.2.573,0,.858l2.961,2c.2-.283.4-.567.595-.858Z" transform="translate(125.393 108.156)" fill="#8d8ffe"/>
        <path id="Path_131" d="M.573,0C.385.293.192.583,0,.872l2.961,2c.192-.289.386-.578.574-.871Z" transform="translate(126.457 106.581)" fill="#8d8ffe"/>
        <path id="Path_132" d="M.889,0Q.451.573,0,1.134L2.658,3.527Q3.266,2.77,3.856,2Z" transform="translate(122.884 111.218)" fill="#8d8ffe"/>
        <path id="Path_133" d="M.686,0Q.346.4,0,.787l2.654,2.39q.345-.39.687-.785Z" transform="translate(120.771 114.079)" fill="#8d8ffe"/>
        <path id="Path_134" d="M.546,0Q.281.674,0,1.341l3.218,1.57q.378-.9.729-1.806Z" transform="translate(132.403 94.987)" fill="#8d8ffe"/>
        <path id="Path_135" d="M.465,0C.311.312.158.625,0,.934L3.21,2.5c.159-.31.311-.622.465-.934Z" transform="translate(130.227 100.082)" fill="#8d8ffe"/>
        <path id="Path_136" d="M.709,0C.475.258.237.512,0,.765l2.654,2.39c.237-.254.476-.508.709-.766Z" transform="translate(119.502 115.498)" fill="#8d8ffe"/>
        <path id="Path_137" d="M.725,0Q.371.629,0,1.25l2.967,2q.5-.835.974-1.683Z" transform="translate(128.201 103.423)" fill="#8d8ffe"/>
        <path id="Path_138" d="M.5,0C.334.308.171.616,0,.921L3.216,2.49c.167-.305.327-.614.49-.921Z" transform="translate(129.337 101.764)" fill="#8d8ffe"/>
        <path id="Path_139" d="M1.03,0C.687.057.344.115,0,.167L.5,3.7c.345-.052.687-.108,1.031-.165Z" transform="translate(80.554 136.644)" fill="#8d8ffe"/>
        <path id="Path_140" d="M3.955,1.3Q3.63.654,3.317,0L0,1.34q.417.881.855,1.748Z" transform="translate(6.729 99.275)" fill="#8d8ffe"/>
        <path id="Path_141" d="M3.6.911C3.432.608,3.261.305,3.094,0L0,1.786c.167.305.338.609.51.911Z" transform="translate(8.63 102.558)" fill="#8d8ffe"/>
        <path id="Path_142" d="M3.739.952Q3.52.478,3.314,0L0,1.339c.142.319.283.638.425.953Z" transform="translate(5.949 97.557)" fill="#8d8ffe"/>
        <path id="Path_143" d="M3.712.964C3.575.644,3.444.322,3.313,0L0,1.338c.132.322.262.645.4.965Z" transform="translate(5.208 95.819)" fill="#8d8ffe"/>
        <path id="Path_144" d="M3.625.9Q3.355.451,3.094,0L0,1.786q.262.451.532.9Z" transform="translate(9.557 104.201)" fill="#8d8ffe"/>
        <path id="Path_145" d="M3.908,1.2Q3.5.6,3.1,0L0,1.787Q.534,2.6,1.089,3.4Z" transform="translate(11.548 107.41)" fill="#8d8ffe"/>
        <path id="Path_146" d="M3.65.885C3.461.592,3.279.3,3.095,0L0,1.787c.183.3.366.592.553.885Z" transform="translate(10.531 105.819)" fill="#8d8ffe"/>
        <path id="Path_147" d="M3.469.813C3.25.543,3.03.274,2.814,0L0,2.2c.213.274.436.542.655.813Z" transform="translate(15.089 111.928)" fill="#8d8ffe"/>
        <path id="Path_148" d="M3.49.8Q3.15.4,2.816,0L0,2.2q.334.4.675.8Z" transform="translate(16.278 113.394)" fill="#8d8ffe"/>
        <path id="Path_149" d="M3.446.831C3.234.556,3.021.279,2.816,0L0,2.2c.208.279.42.554.632.831Z" transform="translate(13.943 110.427)" fill="#8d8ffe"/>
        <path id="Path_150" d="M3.685.976C3.557.652,3.436.326,3.313,0L0,1.339c.123.326.244.653.371.976Z" transform="translate(4.517 94.06)" fill="#8d8ffe"/>
        <path id="Path_151" d="M3.921,1.378Q3.69.692,3.473,0L0,.866Q.289,1.8.6,2.718Z" transform="translate(3.154 90.576)" fill="#8d8ffe"/>
        <path id="Path_152" d="M3.646,1.04C3.614.694,3.581.347,3.554,0L0,.373c.028.347.06.694.093,1.04Z" transform="translate(0.225 75.859)" fill="#8d8ffe"/>
        <path id="Path_153" d="M3.785,1.072Q3.3.542,2.82,0L0,2.2q.638.731,1.3,1.442Z" transform="translate(17.507 114.828)" fill="#8d8ffe"/>
        <path id="Path_154" d="M3.627,1.572C3.605,1.091,3.586.609,3.575.125L0,0Q.02.976.066,1.946Z" transform="translate(0.019 72.053)" fill="#8d8ffe"/>
        <path id="Path_155" d="M3.571,1.168Q3.58.645,3.6.125L.025,0Q.009.521,0,1.043Z" transform="translate(0.016 68.271)" fill="#8d8ffe"/>
        <path id="Path_156" d="M3.7,1.035C3.646.691,3.6.345,3.556,0L0,.374c.046.345.094.69.145,1.034Z" transform="translate(0.634 79.613)" fill="#8d8ffe"/>
        <path id="Path_157" d="M3.673,1.037Q3.609.52,3.553,0L0,.373C.037.72.077,1.065.119,1.41Z" transform="translate(0.405 77.739)" fill="#8d8ffe"/>
        <path id="Path_158" d="M3.731,1.009C3.641.674,3.552.337,3.467,0L0,.865q.128.506.264,1.009Z" transform="translate(2.135 86.94)" fill="#8d8ffe"/>
        <path id="Path_159" d="M3.763,1c-.1-.334-.2-.667-.3-1L0,.865c.094.335.193.669.293,1Z" transform="translate(2.619 88.765)" fill="#8d8ffe"/>
        <path id="Path_160" d="M.8.007C.616.007.433,0,.25,0L0,3.57c.266,0,.532.009.8.01Z" transform="translate(69.592 137.546)" fill="#8d8ffe"/>
        <path id="Path_161" d="M3.809,1.427Q3.677.718,3.559,0L0,.374q.155.963.337,1.918Z" transform="translate(0.912 81.483)" fill="#8d8ffe"/>
        <path id="Path_162" d="M3.7,1.017C3.621.679,3.544.339,3.468,0L0,.865q.113.51.235,1.017Z" transform="translate(1.699 85.102)" fill="#8d8ffe"/>
        <path id="Path_163" d="M2.2.371C1.872.249,1.545.128,1.222,0L0,3.358c.323.128.649.249.975.371Z" transform="translate(44.827 132.91)" fill="#8d8ffe"/>
        <path id="Path_164" d="M1.76.235Q1.25.121.743,0L0,3.5q.507.12,1.017.233Z" transform="translate(54.221 135.717)" fill="#8d8ffe"/>
        <path id="Path_165" d="M2.616.4Q1.917.208,1.224,0L0,3.364q.931.283,1.872.536Z" transform="translate(50.18 134.759)" fill="#8d8ffe"/>
        <path id="Path_166" d="M2.215.323C1.882.219,1.553.111,1.223,0L0,3.36c.33.109.661.218.992.322Z" transform="translate(48.379 134.192)" fill="#8d8ffe"/>
        <path id="Path_167" d="M2.206.347Q1.71.177,1.223,0L0,3.357q.491.177.984.347Z" transform="translate(46.594 133.576)" fill="#8d8ffe"/>
        <path id="Path_168" d="M1.766.2C1.425.138,1.083.072.743,0L0,3.5c.34.071.682.142,1.023.2Z" transform="translate(56.063 136.132)" fill="#8d8ffe"/>
        <path id="Path_169" d="M1.289.092C.942.065.6.033.249,0L0,3.565c.347.032.692.065,1.04.092Z" transform="translate(63.934 137.25)" fill="#8d8ffe"/>
        <path id="Path_170" d="M1.773.173C1.429.116,1.085.062.743,0L0,3.5c.342.062.686.118,1.03.176Z" transform="translate(57.917 136.495)" fill="#8d8ffe"/>
        <path id="Path_171" d="M.249,0,0,3.566c.267.011.533.023.8.03V.021C.617.016.433.007.249,0Z" transform="translate(67.703 137.5)" fill="#8d8ffe"/>
        <path id="Path_172" d="M2.179.2Q1.459.109.744,0L0,3.5q.96.148,1.929.269Z" transform="translate(59.781 136.803)" fill="#8d8ffe"/>
        <path id="Path_173" d="M2.617.456C2.3.307,1.989.154,1.678,0L0,3.155c.312.154.623.31.938.46Z" transform="translate(39.278 130.645)" fill="#8d8ffe"/>
        <path id="Path_174" d="M2.95.606Q2.524.306,2.1,0L0,2.889Q.425,3.2.85,3.5Z" transform="translate(29.246 124.841)" fill="#8d8ffe"/>
        <path id="Path_175" d="M2.931.631C2.648.424,2.376.212,2.1,0L0,2.89c.276.213.552.425.831.631Z" transform="translate(27.733 123.711)" fill="#8d8ffe"/>
        <path id="Path_176" d="M2.968.58C2.678.388,2.387.2,2.1,0L0,2.89q.43.295.866.583Z" transform="translate(30.79 125.928)" fill="#8d8ffe"/>
        <path id="Path_177" d="M3.59.93C3.218.624,2.851.313,2.486,0L0,2.575q.735.638,1.488,1.248Z" transform="translate(24.488 121.391)" fill="#8d8ffe"/>
        <path id="Path_178" d="M3.26.693C3,.463,2.736.234,2.48,0L0,2.57c.257.234.519.464.78.695Z" transform="translate(23.077 120.141)" fill="#8d8ffe"/>
        <path id="Path_179" d="M3,.59Q2.337.3,1.68,0L0,3.159q.882.408,1.777.8Z" transform="translate(40.983 131.46)" fill="#8d8ffe"/>
        <path id="Path_180" d="M3.24.716C2.985.478,2.731.241,2.48,0L0,2.569c.25.241.5.478.759.716Z" transform="translate(21.697 118.85)" fill="#8d8ffe"/>
        <path id="Path_181" d="M2.6.485C2.288.327,1.982.163,1.677,0L0,3.154c.307.163.613.327.921.486Z" transform="translate(37.601 129.783)" fill="#8d8ffe"/>
        <path id="Path_182" d="M3.327.767C2.916.515,2.507.261,2.1,0L0,2.893q.816.532,1.646,1.035Z" transform="translate(32.366 126.974)" fill="#8d8ffe"/>
        <path id="Path_183" d="M2.588.51C2.283.343,1.98.172,1.678,0L0,3.155c.3.171.606.343.911.51Z" transform="translate(35.939 128.875)" fill="#8d8ffe"/>
      </g>
      <g id="Group_14" transform="translate(16.33 16.468)">
        <g id="Group_5" transform="translate(4.805 5.025)">
          <g id="Group_3" transform="translate(0)">
            <path id="Path_184" d="M17.7,14.2A55.47,55.47,0,0,1,47.548,0l-.539.758A55.373,55.373,0,0,0,.687,50.063H10.872a.33.33,0,1,1,0,.659H.326A.326.326,0,0,1,0,50.4v-.028A55.492,55.492,0,0,1,17.7,14.2Z" transform="translate(0 0)" fill="#8d8ffe"/>
            <path id="Path_185" d="M47.54,50.361a.314.314,0,0,1-.085.255.344.344,0,0,1-.241.106H37.037a.33.33,0,0,1,0-.659h9.816A55.373,55.373,0,0,0,.539.758L0,0A55.677,55.677,0,0,1,47.54,50.361Z" transform="translate(63.401)" fill="#8d8ffe"/>
          </g>
          <g id="Group_4" transform="translate(0 59.496)">
            <path id="Path_186" d="M47.824,50.085l.461.73A55.67,55.67,0,0,1,0,.361V.333A.335.335,0,0,1,.085.106.344.344,0,0,1,.326,0H10.872a.33.33,0,1,1,0,.659H.687A55.37,55.37,0,0,0,47.824,50.085Z" transform="translate(0)" fill="#8d8ffe"/>
            <path id="Path_187" d="M48.278.361A55.655,55.655,0,0,1,0,50.815l.461-.73A55.37,55.37,0,0,0,47.59.659H37.774a.33.33,0,1,1,0-.659H47.952a.344.344,0,0,1,.241.106A.314.314,0,0,1,48.278.361Z" transform="translate(62.664 0)" fill="#8d8ffe"/>
          </g>
        </g>
        <g id="Group_8" transform="translate(2.374 2.473)">
          <g id="Group_6" transform="translate(0 60.418)">
            <path id="Path_188" d="M51.849,54.245l.446.709A57.939,57.939,0,0,1,.007.347C0,.34,0,.34,0,.333A.328.328,0,0,1,.092.106.344.344,0,0,1,.333,0H13.3a.33.33,0,1,1,0,.659H.68A57.28,57.28,0,0,0,51.849,54.245Z" transform="translate(0 0)" fill="#8d8ffe"/>
            <path id="Path_189" d="M52.289.347A57.951,57.951,0,0,1,0,54.954l.454-.716A57.271,57.271,0,0,0,51.608.659H39.355a.33.33,0,1,1,0-.659h12.6A.344.344,0,0,1,52.2.106a.3.3,0,0,1,.092.241Z" transform="translate(63.515)" fill="#8d8ffe"/>
          </g>
          <g id="Group_7">
            <path id="Path_190" d="M51.807,0,51.29.723A57.278,57.278,0,0,0,.68,54.245H13.3a.33.33,0,0,1,0,.659H.333A.344.344,0,0,1,.092,54.8.328.328,0,0,1,0,54.571c0-.007,0-.007.007-.014A57.937,57.937,0,0,1,51.807,0Z" transform="translate(0 0)" fill="#8d8ffe"/>
            <path id="Path_191" d="M51.8,54.557a.315.315,0,0,1-.092.241.344.344,0,0,1-.241.106h-12.6a.33.33,0,0,1,0-.659H51.119A57.284,57.284,0,0,0,.517.723L0,0A57.955,57.955,0,0,1,51.8,54.557Z" transform="translate(64.004 0)" fill="#8d8ffe"/>
          </g>
        </g>
        <g id="Group_11">
          <g id="Group_9" transform="translate(0 61.049)">
            <path id="Path_192" d="M55.769,58.547l.439.687A60.282,60.282,0,0,1,0,.333V.326A.342.342,0,0,1,.092.1.334.334,0,0,1,.326,0H15.677a.33.33,0,0,1,0,.659H.666A59.984,59.984,0,0,0,55.769,58.547Z" transform="translate(0 0)" fill="#8d8ffe"/>
            <path id="Path_193" d="M56.194.333A60.283,60.283,0,0,1,0,59.234l.432-.687A59.994,59.994,0,0,0,55.528.659H40.886a.33.33,0,1,1,0-.659H55.868A.334.334,0,0,1,56.1.1a.283.283,0,0,1,.092.234Z" transform="translate(64.358)" fill="#8d8ffe"/>
          </g>
          <g id="Group_10">
            <path id="Path_194" d="M18.058,17.094A59.91,59.91,0,0,1,55.953,0l-.5.7A59.988,59.988,0,0,0,.666,58.561H15.677a.33.33,0,0,1,0,.659H.326a.334.334,0,0,1-.234-.1A.342.342,0,0,1,0,58.894v-.007A59.925,59.925,0,0,1,18.058,17.094Z" transform="translate(0 0)" fill="#8d8ffe"/>
            <path id="Path_195" d="M55.946,58.887a.3.3,0,0,1-.092.234.334.334,0,0,1-.234.1H40.638a.33.33,0,1,1,0-.659H55.28A59.987,59.987,0,0,0,.5.7L0,0A60.29,60.29,0,0,1,55.946,58.887Z" transform="translate(64.606)" fill="#8d8ffe"/>
          </g>
        </g>
        <g id="Group_12" transform="translate(104.763 54.776)">
          <rect id="Rectangle_2" width="1.289" height="1.289" transform="translate(1.289 0) rotate(90)" fill="#8d8ffe"/>
          <rect id="Rectangle_3" width="1.289" height="1.289" transform="translate(1.289 1.626) rotate(90)" fill="#8d8ffe"/>
          <rect id="Rectangle_4" width="1.289" height="1.289" transform="translate(1.289 3.471) rotate(90)" fill="#8d8ffe"/>
          <rect id="Rectangle_5" width="1.289" height="1.289" transform="translate(1.289 5.957) rotate(90)" fill="#8d8ffe"/>
          <rect id="Rectangle_6" width="1.289" height="1.289" transform="translate(1.289 7.802) rotate(90)" fill="#8d8ffe"/>
          <rect id="Rectangle_7" width="1.289" height="1.289" transform="translate(1.289 9.432) rotate(90)" fill="#8d8ffe"/>
        </g>
        <g id="Group_13" transform="translate(14.951 54.776)">
          <rect id="Rectangle_8" width="1.289" height="1.289" transform="translate(1.289 0) rotate(90)" fill="#8d8ffe"/>
          <rect id="Rectangle_9" width="1.289" height="1.289" transform="translate(1.289 1.626) rotate(90)" fill="#8d8ffe"/>
          <rect id="Rectangle_10" width="1.289" height="1.289" transform="translate(1.289 3.471) rotate(90)" fill="#8d8ffe"/>
          <rect id="Rectangle_11" width="1.289" height="1.289" transform="translate(1.289 5.957) rotate(90)" fill="#8d8ffe"/>
          <rect id="Rectangle_12" width="1.289" height="1.289" transform="translate(1.289 7.802) rotate(90)" fill="#8d8ffe"/>
          <rect id="Rectangle_13" width="1.289" height="1.289" transform="translate(1.289 9.432) rotate(90)" fill="#8d8ffe"/>
        </g>
      </g>
      <g id="Group_15" transform="translate(28.853 27.092)">
        <path id="Path_196" d="M37.215.667a.667.667,0,0,1-.6.659A51.145,51.145,0,0,1,0,31.949l.489-.772A50.494,50.494,0,0,0,36.017,1.071a.667.667,0,1,1,1.2-.4Z" transform="translate(58.292 67.448)" fill="#8d8ffe"/>
        <path id="Path_197" d="M35.825,0l-.588.815a50.483,50.483,0,0,0-34.1,29.773A.676.676,0,1,1,.5,30.425,51.128,51.128,0,0,1,35.825,0Z" transform="translate(0)" fill="#8d8ffe"/>
        <path id="Path_198" d="M27.186,0,26.5.957A46.333,46.333,0,0,0,1.12,24.968a.648.648,0,0,1,.22.489.67.67,0,1,1-1.339,0,.657.657,0,0,1,.461-.624A46.969,46.969,0,0,1,27.186,0Z" transform="translate(4.621 5.606)" fill="#8d8ffe"/>
        <path id="Path_199" d="M17.583,0l-.943,1.318A42.081,42.081,0,0,0,1.148,18.065a.653.653,0,0,1,.191.468.67.67,0,0,1-1.339,0A.659.659,0,0,1,.5,17.9,42.735,42.735,0,0,1,17.583,0Z" transform="translate(9.263 12.53)" fill="#8d8ffe"/>
        <path id="Path_200" d="M35.8,31.042a.67.67,0,0,1-1.339,0,.638.638,0,0,1,.17-.432A50.536,50.536,0,0,0,.581.808L0,0A51.13,51.13,0,0,1,35.251,30.4a.661.661,0,0,1,.553.645Z" transform="translate(59.702 0.021)" fill="#8d8ffe"/>
        <path id="Path_201" d="M27.158,25.422A.67.67,0,1,1,26,24.961,46.321,46.321,0,0,0,.687.957L0,0A46.93,46.93,0,0,1,26.641,24.784.666.666,0,0,1,27.158,25.422Z" transform="translate(63.727 5.641)" fill="#8d8ffe"/>
        <path id="Path_202" d="M17.541,18.476a.67.67,0,1,1-1.339,0,.647.647,0,0,1,.163-.425A42.027,42.027,0,0,0,.95,1.325L0,0A42.767,42.767,0,0,1,16.995,17.831a.667.667,0,0,1,.546.645Z" transform="translate(68.703 12.587)" fill="#8d8ffe"/>
        <path id="Path_203" d="M37.229,31.967A51.146,51.146,0,0,1,.539,1.315.661.661,0,0,1,0,.67a.67.67,0,1,1,1.162.446A50.506,50.506,0,0,0,36.747,31.2Z" transform="translate(0 67.448)" fill="#8d8ffe"/>
        <path id="Path_204" d="M29.321,26.761A46.956,46.956,0,0,1,.491,1.3.663.663,0,1,1,1.327.666a.653.653,0,0,1-.191.468A46.321,46.321,0,0,0,28.775,25.9Z" transform="translate(4.633 67.448)" fill="#8d8ffe"/>
        <path id="Path_205" d="M20.957,20.833A42.75,42.75,0,0,1,.539,1.315.661.661,0,0,1,0,.67a.67.67,0,0,1,1.339,0,.623.623,0,0,1-.17.432,42.118,42.118,0,0,0,19.149,18.71Z" transform="translate(9.263 67.445)" fill="#8d8ffe"/>
        <path id="Path_206" d="M11.425,13.2A38.477,38.477,0,0,1,.652,1.354.663.663,0,0,1,0,.688a.67.67,0,1,1,1.226.354,37.653,37.653,0,0,0,9.213,10.6Z" transform="translate(13.983 67.429)" fill="#8d8ffe"/>
        <path id="Path_207" d="M29.319.67a.656.656,0,0,1-.56.645A46.957,46.957,0,0,1,0,26.75l.553-.872A46.309,46.309,0,0,0,28.143,1.095.646.646,0,0,1,27.98.67a.67.67,0,1,1,1.339,0Z" transform="translate(61.566 67.445)" fill="#8d8ffe"/>
        <path id="Path_208" d="M20.935.67a.667.667,0,0,1-.6.659A42.8,42.8,0,0,1,0,20.811l.645-1.028A42.163,42.163,0,0,0,19.738,1.06.624.624,0,0,1,19.6.67a.67.67,0,0,1,1.339,0Z" transform="translate(65.308 67.445)" fill="#8d8ffe"/>
        <path id="Path_209" d="M11.375.667a.678.678,0,0,1-.673.673c-.007,0-.021-.007-.028-.007A38.586,38.586,0,0,1,0,13.115l.985-1.559A37.891,37.891,0,0,0,10.12.989.69.69,0,0,1,10.035.67a.67.67,0,0,1,1.339,0Z" transform="translate(70.148 67.448)" fill="#8d8ffe"/>
      </g>
      <g id="Group_8-2" data-name="Group 8" transform="translate(41.428 17.603)">
        <path id="Path" d="M0,0V41.666L35.075,57.4Z" transform="translate(35.081 0)" fill="#c0ccf7"/>
        <path id="Path-2" data-name="Path" d="M35.081,0,0,57.4,35.081,41.666Z" transform="translate(0 0)" fill="#fff"/>
        <path id="Path-3" data-name="Path" d="M0,20.443V48.755L35.1,0Z" transform="translate(35.081 66.245)" fill="#c0ccf7"/>
        <path id="Path-4" data-name="Path" d="M35.081,48.755V20.437L0,0Z" transform="translate(0 66.239)" fill="#fff"/>
        <path id="Path-5" data-name="Path" d="M0,36.175,35.075,15.727,0,0Z" transform="translate(35.081 41.669)" fill="#8198ee"/>
        <path id="Path-6" data-name="Path" d="M0,15.727,35.081,36.175V0Z" transform="translate(0 41.669)" fill="#c0ccf7"/>
      </g>
    </g>
    <g id="Group_58" transform="translate(243.311 66.352)">
      <g id="Group_20" transform="translate(51.169 108.95)">
        <circle id="Ellipse_3" cx="15.521" cy="15.521" r="15.521" transform="translate(0 0)" fill="#024aad"/>
        <path id="Path_216" d="M3.728,1.469v9.188H1.7A1.676,1.676,0,0,0,0,12.24a1.625,1.625,0,0,0,1.625,1.668H2.6a2.432,2.432,0,0,0,2.431-2.43V5.034a.3.3,0,0,1,.267-.3l5.47-.586a.3.3,0,0,1,.33.3V9.034H9.154a1.676,1.676,0,0,0-1.7,1.583,1.625,1.625,0,0,0,1.625,1.668h.97A2.432,2.432,0,0,0,12.48,9.853V.3a.3.3,0,0,0-.342-.3L3.981,1.174A.3.3,0,0,0,3.728,1.469Z" transform="translate(9.28 8.567)" fill="#fff"/>
      </g>
      <g id="Group_23" transform="translate(45.827 0)">
        <rect id="Rectangle_14" width="41.727" height="35.008" rx="4.503" fill="#024aad" opacity="0.69"/>
        <rect id="Rectangle_15" width="32.662" height="20.467" rx="2.176" transform="translate(4.532 4.33)" fill="#fff"/>
        <g id="Group_21" transform="translate(4.509 26.958)">
          <path id="Path_217" d="M25.487,0H.782a.759.759,0,1,0,0,1.517h24.7a.759.759,0,1,0,0-1.517Z" transform="translate(0)" fill="#8d8ffe"/>
          <path id="Path_218" d="M20.313,0H.782a.759.759,0,1,0,0,1.517H20.313a.759.759,0,1,0,0-1.517Z" transform="translate(0 2.515)" fill="#8d8ffe"/>
        </g>
        <g id="Group_22" transform="translate(6.881 6.613)">
          <path id="Path_219" d="M20.209,3.5,16.861,8.126a.681.681,0,0,1-1.1,0L10.08.282a.68.68,0,0,0-1.1,0L.129,12.506a.681.681,0,0,0,.551,1.08h26.6a.681.681,0,0,0,.551-1.08l-6.52-9a.68.68,0,0,0-1.1,0Z" transform="translate(0 1.04)" fill="#024aad"/>
          <circle id="Ellipse_4" cx="2.747" cy="2.747" r="2.747" transform="translate(13.433 0)" fill="#024aad"/>
        </g>
      </g>
      <g id="Group_25" transform="translate(2.027 27.429)">
        <g id="Group_24">
          <path id="Combined_Shape" data-name="Combined Shape" d="M.708,94.824a.709.709,0,0,1,0-1.418H36.267l14.2-18.038a.708.708,0,0,1,.557-.271h58v1.418H51.366l-14.2,18.038a.708.708,0,0,1-.557.271ZM3.19,87.855a.709.709,0,1,1,0-1.417h28.7a.709.709,0,1,1,0,1.417ZM7.437,81.24a.709.709,0,1,1,0-1.418H27.9l8.057-9.207a.708.708,0,0,1,.534-.243h72.525V71.79h-72.2L28.759,81a.707.707,0,0,1-.534.242ZM90.71,66.594a.714.714,0,0,1-.4-.127l-8.323-5.779H47.6a.709.709,0,0,1,0-1.417h34.61a.707.707,0,0,1,.4.127l8.322,5.779h18.086v1.418Zm-60.123,0a.709.709,0,1,1,0-1.418H76.654a.709.709,0,0,1,0,1.418ZM18.481,55.087a.709.709,0,1,1,0-1.417h66.85l11.275-6.745a.7.7,0,0,1,.365-.1h12.048v1.417H97.164L85.889,54.986a.71.71,0,0,1-.365.1Zm3.543-6.072a.709.709,0,0,1,0-1.417H85.331l11.275-6.745a.7.7,0,0,1,.365-.1h12.048v1.417H97.164L85.889,48.915a.709.709,0,0,1-.365.1ZM32.655,36.87a.709.709,0,0,1,0-1.417H85.331l11.275-6.746a.71.71,0,0,1,.365-.1h12.048v1.417H97.164L85.889,36.77a.71.71,0,0,1-.365.1Zm16.832-6.149a.709.709,0,0,1,0-1.417H79.431l14.2-7.5a.71.71,0,0,1,.331-.082h15.061v1.418H94.136l-14.2,7.5a.708.708,0,0,1-.331.083ZM39.21,25.439a.709.709,0,0,1,0-1.417H74.39l14.167-6.838H29.111a.709.709,0,1,1,0-1.418h79.907v1.418h-17.2L74.858,25.368a.694.694,0,0,1-.306.071Zm59-13.759a.709.709,0,1,1,0-1.418h10.808V11.68Zm-57.226-.957a.711.711,0,0,1-.6-.331l-4.93-7.867H23.441a.709.709,0,0,1,0-1.418h12.4a.707.707,0,0,1,.6.331l4.93,7.867h45.66L93.38.3a.708.708,0,0,1,.579-.3h15.061V1.418H94.329l-6.344,9.005a.711.711,0,0,1-.58.3ZM98.211,6.071a.709.709,0,1,1,0-1.418h10.808V6.071Z" fill="#024aad"/>
        </g>
      </g>
      <path id="Combined_Shape-2" data-name="Combined Shape" d="M0,94.307a2.138,2.138,0,1,1,2.138,2.137A2.137,2.137,0,0,1,0,94.307ZM2.291,87a2.138,2.138,0,1,1,2.137,2.138A2.137,2.137,0,0,1,2.291,87Zm93.053-4.775a1.639,1.639,0,1,1,1.639,1.64A1.639,1.639,0,0,1,95.343,82.228Zm-8.261,0a1.639,1.639,0,1,1,1.64,1.64A1.639,1.639,0,0,1,87.082,82.228Zm16.521,0a1.639,1.639,0,1,1,1.639,1.639A1.639,1.639,0,0,1,103.6,82.227ZM7.487,81.644a2.138,2.138,0,1,1,1.976,1.32A2.138,2.138,0,0,1,7.487,81.644ZM29.979,66.2a2.137,2.137,0,1,1,2.137,2.137A2.137,2.137,0,0,1,29.979,66.2Zm17.507-5.975a2.137,2.137,0,1,1,2.138,2.138A2.138,2.138,0,0,1,47.486,60.229ZM18.37,54.7a2.138,2.138,0,1,1,2.138,2.138A2.138,2.138,0,0,1,18.37,54.7Zm3.543-6.072a2.138,2.138,0,1,1,2.138,2.138A2.138,2.138,0,0,1,21.913,48.625Zm3.544-6.072a2.138,2.138,0,1,1,2.137,2.138A2.138,2.138,0,0,1,25.457,42.553Zm7.087-6.072a2.138,2.138,0,1,1,2.137,2.137A2.138,2.138,0,0,1,32.544,36.481Zm15.678-6.149a2.138,2.138,0,1,1,2.137,2.137A2.138,2.138,0,0,1,48.222,30.332Zm-8.959-4.465a2.137,2.137,0,1,1,1.975,1.32A2.137,2.137,0,0,1,39.263,25.867ZM27.842,16.794a2.137,2.137,0,1,1,2.137,2.138A2.138,2.138,0,0,1,27.842,16.794Zm70.259-5.5a2.137,2.137,0,1,1,2.137,2.137A2.137,2.137,0,0,1,98.1,11.291Zm0-5.61a2.137,2.137,0,1,1,2.137,2.138A2.138,2.138,0,0,1,98.1,5.681ZM22.545,2.138a2.137,2.137,0,1,1,2.138,2.138A2.137,2.137,0,0,1,22.545,2.138Z" transform="translate(0 27.109)" fill="#024aad"/>
      <g id="Group_42" transform="translate(25.457 62.107)">
        <g id="Group_41" transform="translate(0)">
          <g id="Group_40" transform="translate(1.429)">
            <path id="Path_238" d="M84.16,0H72.112a.716.716,0,0,0-.364.1L60.472,6.846H.709a.709.709,0,1,0,0,1.417H60.666a.709.709,0,0,0,.364-.1L72.305,1.417H84.16Z" fill="#024aad"/>
          </g>
        </g>
      </g>
    </g>
    <g id="Group_122" transform="translate(0 43.093)">
      <g id="Group_67" transform="translate(0 1.429)">
        <g id="Group_66" transform="translate(0 0)">
          <g id="Group_59" transform="translate(0 0)">
            <path id="Combined_Shape-3" data-name="Combined Shape" d="M23.548,144.59h0a.709.709,0,0,1-.635-.392L12.147,122.654H0v-1.417H12.582a.707.707,0,0,1,.637.391l10.763,21.545h32.3l10.876-21.545a.709.709,0,0,1,.633-.389H97.33a.709.709,0,1,1,0,1.417H68.225L57.348,144.2a.708.708,0,0,1-.633.39Zm41.89-3.066a.709.709,0,0,1,0-1.418h48.632a.709.709,0,1,1,0,1.418ZM0,141.524v-1.418H9.036a.709.709,0,1,1,0,1.418Zm27.8-3.243h0a.709.709,0,0,1-.634-.391L16.4,116.345H0v-1.417H16.835a.708.708,0,0,1,.637.392l10.763,21.545h24.5L63.612,115.32a.708.708,0,0,1,.633-.39h26a.709.709,0,0,1,0,1.418H64.68L53.8,137.893a.709.709,0,0,1-.633.389Zm40.472-2.5a.708.708,0,1,1,0-1.417H108.4a.708.708,0,1,1,0,1.417ZM0,135.781v-1.417H9.036a.708.708,0,1,1,0,1.417Zm72.525-5.742a.709.709,0,0,1,0-1.417H99.185a.709.709,0,1,1,0,1.417ZM0,130.039v-1.417H9.036a.709.709,0,1,1,0,1.417Zm0-22.3v-1.417H18.689a.709.709,0,0,1,0,1.417ZM0,102v-1.418H18.689a.709.709,0,0,1,0,1.418Zm29.812-.6a.709.709,0,0,1-.576-.3L21.191,89.879H0V88.461H21.552a.708.708,0,0,1,.575.3l8.045,11.221H60.124a.709.709,0,1,1,0,1.418ZM0,96.253V94.836H18.689a.709.709,0,0,1,0,1.418Zm32.806-1.237a.708.708,0,0,1-.566-.284l-9.8-13.009H15.557a.709.709,0,1,1,0-1.418H22.8a.711.711,0,0,1,.567.284L33.16,93.6H81.5a.708.708,0,0,1,0,1.417v0ZM34.9,88.457a.71.71,0,0,1-.567-.284L24.367,74.992H16.122a.709.709,0,0,1,0-1.417h8.6a.71.71,0,0,1,.567.284L35.254,87.04H81.5a.709.709,0,0,1,0,1.418Zm46.6-5.489H44.117a.709.709,0,0,1-.616-.359L39.18,74.992H31.393a.709.709,0,1,1,0-1.417h8.089a.705.705,0,0,1,.116-.008.866.866,0,0,1,.1.008H81.5a.709.709,0,0,1,0,1.417H40.811l3.724,6.561H81.5a.709.709,0,0,1,0,1.417Zm-81.5,0V81.551H9.305V69.592a.709.709,0,0,1,.709-.709H64.2a.709.709,0,0,1,0,1.418H10.723V82.26a.708.708,0,0,1-.708.708Zm0-7.977V73.574H5.234V64.9a.709.709,0,0,1,.708-.709H25.963v0a.709.709,0,0,1,0,1.417H6.651v8.682a.709.709,0,0,1-.709.708ZM35.741,64.373a.712.712,0,0,1-.367-.1L23.941,57.358H0V55.941H24.139a.711.711,0,0,1,.366.1l11.433,6.914H82.445a.708.708,0,1,1,0,1.417Zm4.045-7a.709.709,0,0,1,0-1.417H81.878a.709.709,0,0,1,0,1.417ZM0,51.764V50.346H23.84L35.234,38.705a.709.709,0,0,1,.507-.212h53.78a.709.709,0,0,1,0,1.417H36.039L24.645,51.551a.709.709,0,0,1-.506.212Zm39.785-.732a.709.709,0,0,1,0-1.418H81.878a.709.709,0,0,1,0,1.418Zm0-6.339a.709.709,0,0,1,0-1.417H81.878a.709.709,0,0,1,0,1.417ZM0,43.327V41.909H22.192a.709.709,0,0,1,0,1.417Zm0-6.232V35.677H22.192a.709.709,0,0,1,0,1.417ZM0,32V30.585H38.892a.709.709,0,1,1,0,1.417Zm0-5.056V25.529H53.685a.709.709,0,0,1,0,1.417Zm0-6.9V18.631H43.967L59.584.25a.71.71,0,0,1,.54-.25h53.122a.709.709,0,1,1,0,1.418H60.453L44.834,19.8a.708.708,0,0,1-.54.25Z" transform="translate(0 0)" fill="#024aad"/>
          </g>
        </g>
      </g>
      <g id="Group_68" transform="translate(26.939 106.88)">
        <circle id="Ellipse_10" cx="12.543" cy="12.543" r="12.543" transform="translate(0 24.762) rotate(-80.792)" fill="#024aad"/>
        <path id="Path_255" d="M0,0V10.253L10.253,5.127Z" transform="translate(10.926 9.263)" fill="#fff"/>
      </g>
      <g id="Group_72" transform="translate(7.464)">
        <circle id="Ellipse_11" cx="14.099" cy="14.099" r="14.099" transform="matrix(0.222, -0.975, 0.975, 0.222, 49.427, 32.264)" fill="#024aad"/>
        <g id="Group_71">
          <path id="Path_256" d="M17.3,6.672C17.3,2.987,13.427,0,8.65,0S0,2.987,0,6.672c0,3.634,3.768,6.583,8.454,6.662a20.615,20.615,0,0,0-1.063,2.2c.071-.017,1.87-1.392,3.123-2.354C14.393,12.528,17.3,9.864,17.3,6.672Z" transform="translate(57.653 14.972)" fill="#fff"/>
          <g id="Group_70">
            <g id="Group_69">
              <path id="Combined_Shape-4" data-name="Combined Shape" d="M105.033,142.244a2.138,2.138,0,1,1,2.138,2.137A2.138,2.138,0,0,1,105.033,142.244Zm-50.142,0a2.137,2.137,0,1,1,2.137,2.137A2.138,2.138,0,0,1,54.891,142.244ZM0,142.244a2.138,2.138,0,1,1,2.138,2.137A2.138,2.138,0,0,1,0,142.244ZM0,136.5a2.138,2.138,0,1,1,2.138,2.137A2.137,2.137,0,0,1,0,136.5Zm99.989,1.511a2.138,2.138,0,1,1,1.512.626A2.139,2.139,0,0,1,99.989,138.013Zm-41.637,0a2.138,2.138,0,1,1,1.512.626A2.135,2.135,0,0,1,58.352,138.013Zm3.626-7.31a2.138,2.138,0,1,1,2.138,2.137A2.137,2.137,0,0,1,61.979,130.7ZM0,130.7a2.138,2.138,0,1,1,2.138,2.137A2.137,2.137,0,0,1,0,130.7Zm90.776,1.511a2.138,2.138,0,1,1,1.512.626A2.139,2.139,0,0,1,90.776,132.215Zm-2-8.753a2.138,2.138,0,1,1,2.137,2.137A2.138,2.138,0,0,1,88.78,123.461Zm-7.087-6.309a2.138,2.138,0,1,1,2.138,2.138A2.138,2.138,0,0,1,81.693,117.152Zm-71.416-7.178a2.137,2.137,0,1,1,1.512.627A2.137,2.137,0,0,1,10.277,109.974Zm0-5.742a2.14,2.14,0,1,1,1.513.626A2.138,2.138,0,0,1,10.277,104.232Zm41.591-2.069a2.138,2.138,0,1,1,2.138,2.137A2.137,2.137,0,0,1,51.868,102.163Zm-41.591-3.73a2.14,2.14,0,1,1,1.513.626A2.138,2.138,0,0,1,10.277,98.433Zm62.568-2.7a2.138,2.138,0,1,1,2.138,2.137A2.137,2.137,0,0,1,72.845,95.737Zm0-6.559a2.138,2.138,0,1,1,2.138,2.138A2.137,2.137,0,0,1,72.845,89.177Zm0-5.562a2.138,2.138,0,1,1,2.138,2.137A2.137,2.137,0,0,1,72.845,83.615Zm-66.263.34a2.135,2.135,0,1,1,1.511.627A2.135,2.135,0,0,1,6.582,83.956Zm66.263-8.173a2.138,2.138,0,1,1,2.138,2.138A2.137,2.137,0,0,1,72.845,75.783Zm-50.5,0a2.137,2.137,0,1,1,2.137,2.138A2.138,2.138,0,0,1,22.35,75.783ZM5.955,75.712a2.137,2.137,0,1,1,2.137,2.137A2.138,2.138,0,0,1,5.955,75.712Zm49.527-4.833a2.138,2.138,0,1,1,2.138,2.137A2.138,2.138,0,0,1,55.482,70.879ZM17.3,67.838a2.137,2.137,0,1,1,1.512.627A2.137,2.137,0,0,1,17.3,67.838Zm56.738-2.743a2.137,2.137,0,1,1,2.137,2.138A2.138,2.138,0,0,1,74.038,65.094Zm-.484-7a2.138,2.138,0,1,1,2.138,2.138A2.138,2.138,0,0,1,73.553,58.09Zm-43.369,0a2.138,2.138,0,1,1,2.137,2.138A2.137,2.137,0,0,1,30.184,58.09Zm44-4.827a2.136,2.136,0,1,1,1.512.626A2.139,2.139,0,0,1,74.18,53.263Zm-43.37,0a2.138,2.138,0,1,1,1.513.626A2.137,2.137,0,0,1,30.81,53.263Zm42.744-7.85a2.138,2.138,0,1,1,2.138,2.138A2.138,2.138,0,0,1,73.553,45.413Zm-43.369,0a2.138,2.138,0,1,1,2.138,2.138A2.137,2.137,0,0,1,30.184,45.413ZM12.667,44.047A2.138,2.138,0,1,1,14.8,46.184,2.138,2.138,0,0,1,12.667,44.047Zm71.176-1.28a2.137,2.137,0,1,1,2.138-2.137,2.137,2.137,0,0,1-2.138,2.137ZM12.667,37.814A2.138,2.138,0,1,1,14.8,39.952,2.138,2.138,0,0,1,12.667,37.814Zm16.7-5.092A2.138,2.138,0,1,1,31.5,34.86,2.137,2.137,0,0,1,29.366,32.722ZM44.16,27.666A2.138,2.138,0,1,1,46.3,29.8,2.137,2.137,0,0,1,44.16,27.666Zm24.7-6.022A1.457,1.457,0,1,1,70.316,23.1,1.457,1.457,0,0,1,68.859,21.644Zm-4.013,0A1.457,1.457,0,1,1,66.3,23.1,1.457,1.457,0,0,1,64.846,21.644Zm-4.013,0A1.457,1.457,0,1,1,62.29,23.1,1.457,1.457,0,0,1,60.833,21.644ZM22.059,14.207a1.639,1.639,0,1,1,1.639,1.64A1.639,1.639,0,0,1,22.059,14.207Zm-8.262,0a1.639,1.639,0,1,1,1.64,1.64A1.639,1.639,0,0,1,13.8,14.207Zm-8.26,0a1.639,1.639,0,1,1,1.639,1.64A1.639,1.639,0,0,1,5.537,14.207Zm98.9-10.559a2.137,2.137,0,1,1,1.512.627A2.136,2.136,0,0,1,104.439,3.649Z" fill="#024aad"/>
            </g>
          </g>
        </g>
      </g>
    </g>
    <g id="Group_123" transform="translate(215.558 16.194)">
      <rect id="Rectangle_16" width="39.353" height="20.848" rx="8.168" fill="#024aad"/>
      <g id="BUY" transform="translate(7.711 3.541)">
        <g id="BUY-2" data-name="BUY">
          <path id="BUY-3" data-name="BUY" d="M8.98,6.591a3.388,3.388,0,0,1-.943-2.557V0H10.51V3.961A1.9,1.9,0,0,0,10.8,5.135a.994.994,0,0,0,.832.366,1,1,0,0,0,.833-.366,1.909,1.909,0,0,0,.288-1.174V0h2.431V4.034a3.388,3.388,0,0,1-.943,2.557,3.626,3.626,0,0,1-2.63.912A3.626,3.626,0,0,1,8.98,6.591Zm9.116.744V4.642L15.33,0h2.609l1.5,2.536L20.947,0h2.389L20.569,4.674V7.335ZM0,7.335V0H3.919A3.869,3.869,0,0,1,6.135.524a1.622,1.622,0,0,1,.749,1.394,1.7,1.7,0,0,1-.256.922,1.845,1.845,0,0,1-.76.661,2.195,2.195,0,0,1,1.006.7A1.766,1.766,0,0,1,7.23,5.313a1.693,1.693,0,0,1-.8,1.493,4.17,4.17,0,0,1-2.306.529Z" transform="translate(0.597 2.587)"/>
          <path id="Path-7" data-name="Path" d="M4.128,7.335a4.168,4.168,0,0,0,2.305-.529,1.692,1.692,0,0,0,.8-1.493A1.762,1.762,0,0,0,6.874,4.2a2.2,2.2,0,0,0-1.006-.7,1.84,1.84,0,0,0,.76-.66,1.7,1.7,0,0,0,.257-.922A1.622,1.622,0,0,0,6.135.524,3.867,3.867,0,0,0,3.919,0H0V7.335Z" transform="translate(0.597 2.587)" fill="#fff"/>
          <path id="Path-8" data-name="Path" d="M1.153,1.09H0V0H1.153q.807,0,.807.545t-.807.545Z" transform="translate(3.028 4.316)" fill="#024aad"/>
          <path id="Path-9" data-name="Path" d="M1.488,1.153H0V0H1.488q.817,0,.817.576t-.817.576Z" transform="translate(3.028 7.041)" fill="#024aad"/>
          <path id="Path-10" data-name="Path" d="M3.573,7.5A3.627,3.627,0,0,0,6.2,6.591a3.39,3.39,0,0,0,.943-2.557h0V0H4.715V3.961a1.906,1.906,0,0,1-.288,1.174,1,1,0,0,1-.833.367,1,1,0,0,1-.833-.367,1.906,1.906,0,0,1-.288-1.174h0V0H0V4.034A3.39,3.39,0,0,0,.943,6.591,3.627,3.627,0,0,0,3.573,7.5Z" transform="translate(8.634 2.587)" fill="#fff"/>
          <path id="Path-11" data-name="Path" d="M5.239,7.335V4.673L8.005,0H5.616L4.108,2.536,2.609,0H0L2.766,4.642V7.335Z" transform="translate(15.927 2.587)" fill="#fff"/>
        </g>
      </g>
    </g>
    <g id="Group_124" transform="translate(76.567 195.919)">
      <rect id="Rectangle_17" width="39.353" height="20.848" rx="8.168" transform="translate(0 0)" fill="#024aad"/>
      <g id="BUY-2-2" data-name="BUY-2" transform="translate(7.71 3.541)">
        <g id="BUY-4" data-name="BUY">
          <path id="BUY-5" data-name="BUY" d="M8.98,6.591a3.388,3.388,0,0,1-.943-2.557V0H10.51V3.961A1.9,1.9,0,0,0,10.8,5.135a.994.994,0,0,0,.832.366,1,1,0,0,0,.833-.366,1.909,1.909,0,0,0,.288-1.174V0h2.431V4.034a3.388,3.388,0,0,1-.943,2.557,3.626,3.626,0,0,1-2.63.912A3.626,3.626,0,0,1,8.98,6.591Zm9.116.744V4.642L15.33,0h2.609l1.5,2.536L20.947,0h2.389L20.569,4.674V7.335ZM0,7.335V0H3.919A3.869,3.869,0,0,1,6.135.524a1.622,1.622,0,0,1,.749,1.394,1.7,1.7,0,0,1-.256.922,1.845,1.845,0,0,1-.76.661,2.195,2.195,0,0,1,1.006.7A1.766,1.766,0,0,1,7.23,5.313a1.693,1.693,0,0,1-.8,1.493,4.17,4.17,0,0,1-2.306.529Z" transform="translate(0.597 2.587)"/>
          <path id="Path-12" data-name="Path" d="M4.128,7.335a4.168,4.168,0,0,0,2.305-.529,1.692,1.692,0,0,0,.8-1.493A1.762,1.762,0,0,0,6.874,4.2a2.2,2.2,0,0,0-1.006-.7,1.84,1.84,0,0,0,.76-.66,1.7,1.7,0,0,0,.257-.922A1.622,1.622,0,0,0,6.135.524,3.867,3.867,0,0,0,3.919,0H0V7.335Z" transform="translate(0.597 2.587)" fill="#fff"/>
          <path id="Path-13" data-name="Path" d="M1.153,1.09H0V0H1.153q.807,0,.807.545t-.807.545Z" transform="translate(3.028 4.316)" fill="#024aad"/>
          <path id="Path-14" data-name="Path" d="M1.488,1.153H0V0H1.488q.817,0,.817.576t-.817.576Z" transform="translate(3.028 7.04)" fill="#024aad"/>
          <path id="Path-15" data-name="Path" d="M3.573,7.5A3.627,3.627,0,0,0,6.2,6.591a3.39,3.39,0,0,0,.943-2.557h0V0H4.715V3.961a1.906,1.906,0,0,1-.288,1.174,1,1,0,0,1-.833.367,1,1,0,0,1-.833-.367,1.906,1.906,0,0,1-.288-1.174h0V0H0V4.034A3.39,3.39,0,0,0,.943,6.591,3.627,3.627,0,0,0,3.573,7.5Z" transform="translate(8.634 2.587)" fill="#fff"/>
          <path id="Path-16" data-name="Path" d="M5.239,7.335V4.673L8.005,0H5.616L4.108,2.536,2.609,0H0L2.766,4.642V7.335Z" transform="translate(15.927 2.587)" fill="#fff"/>
        </g>
      </g>
    </g>
    <g id="Group_125" transform="translate(251.475 199.432)">
      <rect id="Rectangle_18" width="39.353" height="20.848" rx="8.168" transform="translate(0 0)" fill="#024aad"/>
      <g id="BUY-3-2" data-name="BUY-3" transform="translate(7.711 3.541)">
        <g id="BUY-6" data-name="BUY">
          <path id="BUY-7" data-name="BUY" d="M8.98,6.591a3.388,3.388,0,0,1-.943-2.557V0H10.51V3.961A1.9,1.9,0,0,0,10.8,5.135a.994.994,0,0,0,.832.366,1,1,0,0,0,.833-.366,1.909,1.909,0,0,0,.288-1.174V0h2.431V4.034a3.388,3.388,0,0,1-.943,2.557,3.626,3.626,0,0,1-2.63.912A3.626,3.626,0,0,1,8.98,6.591Zm9.116.744V4.642L15.33,0h2.609l1.5,2.536L20.947,0h2.389L20.569,4.674V7.335ZM0,7.335V0H3.919A3.869,3.869,0,0,1,6.135.524a1.622,1.622,0,0,1,.749,1.394,1.7,1.7,0,0,1-.256.922,1.845,1.845,0,0,1-.76.661,2.195,2.195,0,0,1,1.006.7A1.766,1.766,0,0,1,7.23,5.313a1.693,1.693,0,0,1-.8,1.493,4.17,4.17,0,0,1-2.306.529Z" transform="translate(0.597 2.587)"/>
          <path id="Path-17" data-name="Path" d="M4.128,7.335a4.168,4.168,0,0,0,2.305-.529,1.692,1.692,0,0,0,.8-1.493A1.762,1.762,0,0,0,6.874,4.2a2.2,2.2,0,0,0-1.006-.7,1.84,1.84,0,0,0,.76-.66,1.7,1.7,0,0,0,.257-.922A1.622,1.622,0,0,0,6.135.524,3.867,3.867,0,0,0,3.919,0H0V7.335Z" transform="translate(0.597 2.587)" fill="#fff"/>
          <path id="Path-18" data-name="Path" d="M1.153,1.09H0V0H1.153q.807,0,.807.545t-.807.545Z" transform="translate(3.028 4.316)" fill="#024aad"/>
          <path id="Path-19" data-name="Path" d="M1.488,1.153H0V0H1.488q.817,0,.817.576t-.817.576Z" transform="translate(3.028 7.041)" fill="#024aad"/>
          <path id="Path-20" data-name="Path" d="M3.573,7.5A3.627,3.627,0,0,0,6.2,6.591a3.39,3.39,0,0,0,.943-2.557h0V0H4.715V3.961a1.906,1.906,0,0,1-.288,1.174,1,1,0,0,1-.833.367,1,1,0,0,1-.833-.367,1.906,1.906,0,0,1-.288-1.174h0V0H0V4.034A3.39,3.39,0,0,0,.943,6.591,3.627,3.627,0,0,0,3.573,7.5Z" transform="translate(8.634 2.587)" fill="#fff"/>
          <path id="Path-21" data-name="Path" d="M5.239,7.335V4.673L8.005,0H5.616L4.108,2.536,2.609,0H0L2.766,4.642V7.335Z" transform="translate(15.927 2.587)" fill="#fff"/>
        </g>
      </g>
    </g>
    <g id="Group_126" transform="translate(63.963 16.194)">
      <rect id="Rectangle_19" width="39.353" height="20.848" rx="8.168" transform="translate(0)" fill="#024aad"/>
      <g id="BUY-4-2" data-name="BUY-4" transform="translate(7.71 3.541)">
        <g id="BUY-8" data-name="BUY">
          <path id="BUY-9" data-name="BUY" d="M8.98,6.591a3.388,3.388,0,0,1-.943-2.557V0H10.51V3.961A1.9,1.9,0,0,0,10.8,5.135a.994.994,0,0,0,.832.366,1,1,0,0,0,.833-.366,1.909,1.909,0,0,0,.288-1.174V0h2.431V4.034a3.388,3.388,0,0,1-.943,2.557,3.626,3.626,0,0,1-2.63.912A3.626,3.626,0,0,1,8.98,6.591Zm9.116.744V4.642L15.33,0h2.609l1.5,2.536L20.947,0h2.389L20.569,4.674V7.335ZM0,7.335V0H3.919A3.869,3.869,0,0,1,6.135.524a1.622,1.622,0,0,1,.749,1.394,1.7,1.7,0,0,1-.256.922,1.845,1.845,0,0,1-.76.661,2.195,2.195,0,0,1,1.006.7A1.766,1.766,0,0,1,7.23,5.313a1.693,1.693,0,0,1-.8,1.493,4.17,4.17,0,0,1-2.306.529Z" transform="translate(0.597 2.587)"/>
          <path id="Path-22" data-name="Path" d="M4.128,7.335a4.168,4.168,0,0,0,2.305-.529,1.692,1.692,0,0,0,.8-1.493A1.762,1.762,0,0,0,6.874,4.2a2.2,2.2,0,0,0-1.006-.7,1.84,1.84,0,0,0,.76-.66,1.7,1.7,0,0,0,.257-.922A1.622,1.622,0,0,0,6.135.524,3.867,3.867,0,0,0,3.919,0H0V7.335Z" transform="translate(0.597 2.587)" fill="#fff"/>
          <path id="Path-23" data-name="Path" d="M1.153,1.09H0V0H1.153q.807,0,.807.545t-.807.545Z" transform="translate(3.028 4.316)" fill="#024aad"/>
          <path id="Path-24" data-name="Path" d="M1.488,1.153H0V0H1.488q.817,0,.817.576t-.817.576Z" transform="translate(3.028 7.041)" fill="#024aad"/>
          <path id="Path-25" data-name="Path" d="M3.573,7.5A3.627,3.627,0,0,0,6.2,6.591a3.39,3.39,0,0,0,.943-2.557h0V0H4.715V3.961a1.906,1.906,0,0,1-.288,1.174,1,1,0,0,1-.833.367,1,1,0,0,1-.833-.367,1.906,1.906,0,0,1-.288-1.174h0V0H0V4.034A3.39,3.39,0,0,0,.943,6.591,3.627,3.627,0,0,0,3.573,7.5Z" transform="translate(8.634 2.587)" fill="#fff"/>
          <path id="Path-26" data-name="Path" d="M5.239,7.335V4.673L8.005,0H5.616L4.108,2.536,2.609,0H0L2.766,4.642V7.335Z" transform="translate(15.927 2.587)" fill="#fff"/>
        </g>
      </g>
    </g>
    <g id="Group_127" transform="translate(259.371 32.829)">
      <path id="Path_317" d="M10.622.1.047,14.868a.25.25,0,0,0,.082.365L10.7,21.075a.25.25,0,0,0,.242,0l10.575-5.841a.25.25,0,0,0,.082-.365L11.029.1a.25.25,0,0,0-.407,0Z" fill="#024aad"/>
      <path id="Path_318" d="M10.567,5.836,20.5.034a.25.25,0,0,1,.337.349L10.653,16.566a.249.249,0,0,1-.425,0L.039.384A.25.25,0,0,1,.377.034l9.936,5.8a.247.247,0,0,0,.254,0Z" transform="translate(0.385 17.22)" fill="#024aad"/>
    </g>
    <g id="Group_128" transform="translate(50.836 201.422)">
      <path id="Path_319" d="M8.336.082.035,11.671a.2.2,0,0,0,.064.283l8.3,4.585a.2.2,0,0,0,.189,0l8.3-4.585a.2.2,0,0,0,.064-.283L8.655.082a.2.2,0,0,0-.32,0Z" transform="translate(0 0)" fill="#024aad"/>
      <path id="Path_320" d="M8.292,4.58l7.8-4.553A.2.2,0,0,1,16.353.3L8.36,13a.2.2,0,0,1-.332,0L.03.3A.2.2,0,0,1,.3.027l7.8,4.553a.193.193,0,0,0,.2,0Z" transform="translate(0.303 13.516)" fill="#024aad"/>
    </g>
    <g id="Group_129" transform="translate(113.785 15.109)">
      <path id="Path_321" d="M6.173.063.028,8.642a.145.145,0,0,0,.048.213l6.145,3.394a.142.142,0,0,0,.142,0l6.145-3.394a.145.145,0,0,0,.048-.213L6.412.063a.146.146,0,0,0-.24,0Z" transform="translate(0 0)" fill="#024aad"/>
      <path id="Path_322" d="M6.152,3.4,11.925.031a.142.142,0,0,1,.2.2L6.2,9.637a.142.142,0,0,1-.246,0L.034.234a.142.142,0,0,1,.2-.2L6,3.4A.147.147,0,0,0,6.152,3.4Z" transform="translate(0.213 9.998)" fill="#024aad"/>
    </g>
    <g id="Group_130" transform="translate(229.274 194.999)">
      <path id="Path_323" d="M6.175.063.029,8.642a.142.142,0,0,0,.047.213L6.222,12.25a.147.147,0,0,0,.142,0l6.145-3.395a.142.142,0,0,0,.047-.213L6.411.063a.142.142,0,0,0-.236,0Z" transform="translate(0)" fill="#024aad"/>
      <path id="Path_324" d="M6.141,3.392,11.913.02a.145.145,0,0,1,.2.2L6.19,9.627a.142.142,0,0,1-.246,0L.023.224a.145.145,0,0,1,.2-.2L5.994,3.392a.142.142,0,0,0,.147,0Z" transform="translate(0.226 10.009)" fill="#024aad"/>
    </g>
  </g>
</svg>
