<svg xmlns="http://www.w3.org/2000/svg" width="475.375" height="354.258" viewBox="0 0 475.375 354.258">
  <g id="Group_3221" data-name="Group 3221" transform="translate(0 -54.953)">
    <g id="Background_Complete" data-name="Background Complete" transform="translate(0 54.953)">
      <g id="Group_3177" data-name="Group 3177">
        <rect id="Rectangle_77" data-name="Rectangle 77" width="475.375" height="0.238" transform="translate(0 311.319)" fill="#ebebeb"/>
        <rect id="Rectangle_78" data-name="Rectangle 78" width="15.27" height="0.238" transform="translate(49.875 320.373)" fill="#ebebeb"/>
        <rect id="Rectangle_79" data-name="Rectangle 79" width="50.891" height="0.238" transform="translate(162.711 317.793)" fill="#ebebeb"/>
        <rect id="Rectangle_80" data-name="Rectangle 80" width="34.468" height="0.238" transform="translate(66.097 329.202)" fill="#ebebeb"/>
        <rect id="Rectangle_81" data-name="Rectangle 81" width="41.066" height="0.238" transform="translate(360.467 317.674)" fill="#ebebeb"/>
        <rect id="Rectangle_82" data-name="Rectangle 82" width="6.021" height="0.238" transform="translate(409.998 317.674)" fill="#ebebeb"/>
        <rect id="Rectangle_83" data-name="Rectangle 83" width="51.235" height="0.238" transform="translate(301.388 323.59)" fill="#ebebeb"/>
        <path id="Path_2760" data-name="Path 2760" d="M227.223,323.87H43.634a5.433,5.433,0,0,1-5.427-5.427V60.379a5.433,5.433,0,0,1,5.427-5.426H227.223a5.432,5.432,0,0,1,5.426,5.426V318.443A5.433,5.433,0,0,1,227.223,323.87ZM43.634,55.191a5.194,5.194,0,0,0-5.189,5.188V318.443a5.2,5.2,0,0,0,5.189,5.189H227.223a5.194,5.194,0,0,0,5.188-5.189V60.379a5.194,5.194,0,0,0-5.188-5.188Z" transform="translate(-1.882 -54.953)" fill="#ebebeb"/>
        <path id="Path_2761" data-name="Path 2761" d="M443.519,323.87H259.931a5.433,5.433,0,0,1-5.426-5.427V60.379a5.432,5.432,0,0,1,5.426-5.426H443.519a5.433,5.433,0,0,1,5.428,5.426V318.443A5.434,5.434,0,0,1,443.519,323.87ZM259.931,55.191a5.194,5.194,0,0,0-5.188,5.188V318.443a5.194,5.194,0,0,0,5.188,5.189H443.519a5.2,5.2,0,0,0,5.19-5.189V60.379a5.2,5.2,0,0,0-5.19-5.188Z" transform="translate(-12.534 -54.953)" fill="#ebebeb"/>
      </g>
      <g id="Group_3187" data-name="Group 3187" transform="translate(53.348 16.695)">
        <g id="Group_3180" data-name="Group 3180" transform="translate(169.92 145.898)">
          <g id="Group_3178" data-name="Group 3178" transform="translate(0 67.745)">
            <rect id="Rectangle_84" data-name="Rectangle 84" width="6.313" height="79.476" transform="translate(147.249 1.505)" fill="#f5f5f5"/>
            <rect id="Rectangle_85" data-name="Rectangle 85" width="5.493" height="79.476" transform="translate(150.816 1.505)" fill="#f0f0f0"/>
            <rect id="Rectangle_86" data-name="Rectangle 86" width="6.313" height="79.476" transform="translate(0 1.505)" fill="#f5f5f5"/>
            <rect id="Rectangle_87" data-name="Rectangle 87" width="5.493" height="79.476" transform="translate(3.567 1.505)" fill="#f0f0f0"/>
            <rect id="Rectangle_88" data-name="Rectangle 88" width="6.313" height="79.476" transform="translate(171.176 1.505)" fill="#f5f5f5"/>
            <rect id="Rectangle_89" data-name="Rectangle 89" width="5.493" height="79.476" transform="translate(174.743 1.505)" fill="#f0f0f0"/>
            <rect id="Rectangle_90" data-name="Rectangle 90" width="6.313" height="79.476" transform="translate(23.927 1.505)" fill="#f5f5f5"/>
            <rect id="Rectangle_91" data-name="Rectangle 91" width="180.236" height="3.011" transform="translate(180.236 3.011) rotate(180)" fill="#f0f0f0"/>
            <rect id="Rectangle_92" data-name="Rectangle 92" width="27.494" height="3.011" transform="translate(27.494 3.011) rotate(180)" fill="#e6e6e6"/>
            <rect id="Rectangle_93" data-name="Rectangle 93" width="5.493" height="79.476" transform="translate(27.494 1.505)" fill="#f0f0f0"/>
          </g>
          <g id="Group_3179" data-name="Group 3179" transform="translate(71.228 0)">
            <rect id="Rectangle_94" data-name="Rectangle 94" width="17.05" height="57.881" transform="translate(1.863 9.864)" fill="#ebebeb"/>
            <path id="Path_2762" data-name="Path 2762" d="M374.885,293.713H318.3l-8.546-67.745h56.589Z" transform="translate(-309.751 -225.968)" fill="#e0e0e0"/>
            <path id="Path_2763" data-name="Path 2763" d="M378.288,293.713H319.836l-8.546-67.745h58.452Z" transform="translate(-309.826 -225.968)" fill="#f0f0f0"/>
            <path id="Path_2764" data-name="Path 2764" d="M346.68,293.713H335.339l3.194-67.745h11.341Z" transform="translate(-311.011 -225.968)" fill="#fafafa"/>
            <path id="Path_2765" data-name="Path 2765" d="M360.363,293.713H349.2l3.194-67.745h11.165Z" transform="translate(-311.693 -225.968)" fill="#fafafa"/>
          </g>
        </g>
        <g id="Group_3181" data-name="Group 3181" transform="translate(209.366)">
          <rect id="Rectangle_95" data-name="Rectangle 95" width="147.017" height="115.027" fill="#e6e6e6"/>
          <rect id="Rectangle_96" data-name="Rectangle 96" width="149.367" height="115.027" transform="translate(2.061)" fill="#f0f0f0"/>
          <rect id="Rectangle_97" data-name="Rectangle 97" width="147.017" height="3.85" transform="translate(0 115.027)" fill="#e6e6e6"/>
          <rect id="Rectangle_98" data-name="Rectangle 98" width="149.367" height="3.85" transform="translate(4.412 115.027)" fill="#f0f0f0"/>
          <rect id="Rectangle_99" data-name="Rectangle 99" width="102.677" height="137.017" transform="translate(145.253 6.175) rotate(90)" fill="#fafafa"/>
          <path id="Path_2766" data-name="Path 2766" d="M363.852,181.685l9.889-102.677H390.85l-9.889,102.677Z" transform="translate(-280.633 -72.832)" fill="#fff"/>
          <path id="Path_2767" data-name="Path 2767" d="M318.432,181.685l9.889-102.677H345.43l-9.889,102.677Z" transform="translate(-278.396 -72.832)" fill="#fff"/>
          <path id="Path_2768" data-name="Path 2768" d="M287.968,147.064a.473.473,0,0,1-.473-.473V83.209a.473.473,0,1,1,.945,0v63.383A.472.472,0,0,1,287.968,147.064Z" transform="translate(-276.872 -73.016)" fill="#f0f0f0"/>
          <path id="Path_2769" data-name="Path 2769" d="M385.713,181.685,395.6,79.007h6.67l-9.889,102.677Z" transform="translate(-281.71 -72.832)" fill="#fff"/>
          <rect id="Rectangle_100" data-name="Rectangle 100" width="102.677" height="0.784" transform="translate(145.253 6.175) rotate(90)" fill="#e6e6e6"/>
          <path id="Path_2770" data-name="Path 2770" d="M429.485,90.328H282.468l-.568-8.8H428.917Z" transform="translate(-276.597 -72.957)" fill="#e0e0e0" opacity="0.5"/>
          <path id="Path_2771" data-name="Path 2771" d="M429.485,105.535H282.468l-.568-8.8H428.917Z" transform="translate(-276.597 -73.706)" fill="#e0e0e0" opacity="0.5"/>
          <path id="Path_2772" data-name="Path 2772" d="M429.485,120.743H282.468l-.568-8.8H428.917Z" transform="translate(-276.597 -74.455)" fill="#e0e0e0" opacity="0.5"/>
          <path id="Path_2773" data-name="Path 2773" d="M429.485,135.95H282.468l-.568-8.8H428.917Z" transform="translate(-276.597 -75.204)" fill="#e0e0e0" opacity="0.5"/>
          <path id="Path_2774" data-name="Path 2774" d="M429.485,151.158H282.468l-.568-8.8H428.917Z" transform="translate(-276.597 -75.953)" fill="#e0e0e0" opacity="0.5"/>
          <path id="Path_2775" data-name="Path 2775" d="M429.485,166.366H282.468l-.568-8.8H428.917Z" transform="translate(-276.597 -76.702)" fill="#e0e0e0" opacity="0.5"/>
          <path id="Path_2776" data-name="Path 2776" d="M429.485,97.931H282.468l-.568-8.8H428.917Z" transform="translate(-276.597 -73.331)" fill="#e0e0e0" opacity="0.5"/>
          <path id="Path_2777" data-name="Path 2777" d="M429.485,113.139H282.468l-.568-8.8H428.917Z" transform="translate(-276.597 -74.08)" fill="#e0e0e0" opacity="0.5"/>
          <path id="Path_2778" data-name="Path 2778" d="M429.485,128.347H282.468l-.568-8.8H428.917Z" transform="translate(-276.597 -74.829)" fill="#e0e0e0" opacity="0.5"/>
          <path id="Path_2779" data-name="Path 2779" d="M429.485,143.554H282.468l-.568-8.8H428.917Z" transform="translate(-276.597 -75.578)" fill="#e0e0e0" opacity="0.5"/>
          <path id="Path_2780" data-name="Path 2780" d="M429.485,158.762H282.468l-.568-8.8H428.917Z" transform="translate(-276.597 -76.327)" fill="#e0e0e0" opacity="0.5"/>
          <path id="Path_2781" data-name="Path 2781" d="M429.485,173.969H282.468l-.568-8.8H428.917Z" transform="translate(-276.597 -77.076)" fill="#e0e0e0" opacity="0.5"/>
        </g>
        <g id="Group_3186" data-name="Group 3186" transform="translate(0 17.592)">
          <g id="Group_3183" data-name="Group 3183" transform="translate(36.393)">
            <g id="Group_3182" data-name="Group 3182">
              <rect id="Rectangle_101" data-name="Rectangle 101" width="29.118" height="16.831" rx="4.817" transform="translate(29.118 39.493) rotate(180)" fill="#f5f5f5"/>
              <rect id="Rectangle_102" data-name="Rectangle 102" width="29.118" height="16.831" rx="4.817" transform="translate(29.118 22.663) rotate(180)" fill="#f5f5f5"/>
              <rect id="Rectangle_103" data-name="Rectangle 103" width="10.09" height="5.832" rx="1.669" transform="translate(19.604 5.832) rotate(180)" fill="#e0e0e0"/>
              <rect id="Rectangle_104" data-name="Rectangle 104" width="29.118" height="16.831" rx="4.817" transform="translate(29.118 56.324) rotate(-180)" fill="#f5f5f5"/>
            </g>
            <path id="Path_2782" data-name="Path 2782" d="M206.591,137.963s-.964,11.69-37.93,11.69-37.931-11.69-37.931-11.69Z" transform="translate(-96.179 -93.329)" fill="#f0f0f0"/>
          </g>
          <g id="Group_3185" data-name="Group 3185" transform="translate(0 56.325)">
            <g id="Group_3184" data-name="Group 3184" transform="translate(4.095 2.366)">
              <rect id="Rectangle_105" data-name="Rectangle 105" width="29.299" height="207.483" fill="#f0f0f0"/>
              <rect id="Rectangle_106" data-name="Rectangle 106" width="144.491" height="10.858" transform="translate(5.626 207.483)" fill="#f0f0f0"/>
              <rect id="Rectangle_107" data-name="Rectangle 107" width="126.443" height="207.483" transform="translate(155.742 207.483) rotate(180)" fill="#f5f5f5"/>
              <rect id="Rectangle_108" data-name="Rectangle 108" width="103.404" height="48.963" transform="translate(144.223 122.692) rotate(180)" fill="#f0f0f0"/>
              <rect id="Rectangle_109" data-name="Rectangle 109" width="103.404" height="48.963" transform="translate(144.223 182.577) rotate(180)" fill="#f0f0f0"/>
              <rect id="Rectangle_110" data-name="Rectangle 110" width="103.404" height="7.464" transform="translate(144.223 200.236) rotate(180)" fill="#f0f0f0"/>
              <path id="Path_2783" data-name="Path 2783" d="M182.438,233.948H129.874a4.118,4.118,0,0,1-4.106-4.106h0a4.118,4.118,0,0,1,4.106-4.105h52.564a4.117,4.117,0,0,1,4.106,4.105h0A4.118,4.118,0,0,1,182.438,233.948Z" transform="translate(-63.636 -156.342)" fill="#f5f5f5"/>
              <rect id="Rectangle_111" data-name="Rectangle 111" width="103.404" height="48.963" transform="translate(144.223 62.807) rotate(180)" fill="#f0f0f0"/>
              <path id="Path_2784" data-name="Path 2784" d="M182.438,170.961H129.874a4.118,4.118,0,0,1-4.106-4.106h0a4.119,4.119,0,0,1,4.106-4.106h52.564a4.118,4.118,0,0,1,4.106,4.106h0A4.118,4.118,0,0,1,182.438,170.961Z" transform="translate(-63.636 -153.239)" fill="#f5f5f5"/>
              <path id="Path_2785" data-name="Path 2785" d="M182.438,296.935H129.874a4.118,4.118,0,0,1-4.106-4.105h0a4.118,4.118,0,0,1,4.106-4.106h52.564a4.118,4.118,0,0,1,4.106,4.106h0A4.117,4.117,0,0,1,182.438,296.935Z" transform="translate(-63.636 -159.444)" fill="#f5f5f5"/>
            </g>
            <rect id="Rectangle_112" data-name="Rectangle 112" width="130.347" height="2.366" transform="translate(33.393)" fill="#f0f0f0"/>
            <rect id="Rectangle_113" data-name="Rectangle 113" width="33.393" height="2.366" transform="translate(33.393 2.366) rotate(180)" fill="#e6e6e6"/>
          </g>
        </g>
      </g>
    </g>
    <g id="Shadow" transform="translate(53.348 387.679)">
      <ellipse id="_Path_" data-name="&lt;Path&gt;" cx="184.34" cy="10.766" rx="184.34" ry="10.766" fill="#f5f5f5"/>
    </g>
    <g id="Table" transform="translate(48.352 297.825)">
      <g id="Group_3194" data-name="Group 3194">
        <g id="Group_3188" data-name="Group 3188">
          <path id="Path_2786" data-name="Path 2786" d="M422.79,316.781H57.594l-6.738-6.375H429.528Z" transform="translate(-50.857 -310.406)" fill="#024aad"/>
          <path id="Path_2787" data-name="Path 2787" d="M422.79,316.781H57.594l-6.738-6.375H429.528Z" transform="translate(-50.857 -310.406)" fill="#fff" opacity="0.5"/>
        </g>
        <g id="Group_3189" data-name="Group 3189" transform="translate(32.468 6.375)">
          <path id="Path_2788" data-name="Path 2788" d="M393.16,320.544H90.588l-5.582-3.433H398.742Z" transform="translate(-85.006 -317.111)" fill="#024aad"/>
        </g>
        <g id="Group_3190" data-name="Group 3190" transform="translate(31.312 9.808)">
          <path id="Path_2790" data-name="Path 2790" d="M88.133,411.534H83.791l13.475-90.812h9.685Z" transform="translate(-83.791 -320.722)" fill="#024aad"/>
        </g>
        <g id="Group_3191" data-name="Group 3191" transform="translate(54.84 9.808)">
          <path id="Path_2792" data-name="Path 2792" d="M112.879,411.534h-4.342l13.475-90.812H131.7Z" transform="translate(-108.537 -320.722)" fill="#024aad"/>
        </g>
        <g id="Group_3192" data-name="Group 3192" transform="translate(324.199 9.808)">
          <path id="Path_2794" data-name="Path 2794" d="M410.667,411.534h4.342l-13.475-90.812h-9.685Z" transform="translate(-391.849 -320.722)" fill="#024aad"/>
        </g>
        <g id="Group_3193" data-name="Group 3193" transform="translate(300.672 9.808)">
          <path id="Path_2796" data-name="Path 2796" d="M385.921,411.534h4.342l-13.475-90.812H367.1Z" transform="translate(-367.103 -320.722)" fill="#024aad"/>
        </g>
      </g>
    </g>
    <g id="Gear" transform="translate(176.797 93.159)">
      <g id="Group_3196" data-name="Group 3196" transform="translate(0 0)">
        <path id="Path_2798" data-name="Path 2798" d="M222.393,95.144l12.277.821a2.628,2.628,0,0,1,2.223,1.546l1.292,2.88a2.632,2.632,0,0,0,1.415,1.35,35.722,35.722,0,0,1,4.471,2.211,2.629,2.629,0,0,0,1.932.305l3.073-.72a2.629,2.629,0,0,1,2.578.828l8.1,9.261a2.627,2.627,0,0,1,.479,2.665l-1.123,2.949a2.635,2.635,0,0,0,.046,1.956,35.691,35.691,0,0,1,1.6,4.726,2.631,2.631,0,0,0,1.149,1.582l2.681,1.663a2.628,2.628,0,0,1,1.237,2.408L265,143.853a2.627,2.627,0,0,1-1.546,2.223l-2.88,1.292a2.639,2.639,0,0,0-1.349,1.416,35.858,35.858,0,0,1-2.212,4.471,2.628,2.628,0,0,0-.305,1.931l.72,3.074a2.629,2.629,0,0,1-.828,2.577l-9.261,8.1a2.627,2.627,0,0,1-2.665.478l-2.951-1.123a2.632,2.632,0,0,0-1.955.046,35.7,35.7,0,0,1-4.724,1.6,2.636,2.636,0,0,0-1.582,1.15L231.8,173.77a2.628,2.628,0,0,1-2.409,1.237l-12.277-.82a2.627,2.627,0,0,1-2.222-1.546L213.6,169.76a2.634,2.634,0,0,0-1.416-1.35,35.828,35.828,0,0,1-4.469-2.211,2.628,2.628,0,0,0-1.931-.305l-3.075.721a2.629,2.629,0,0,1-2.577-.828l-8.1-9.261a2.627,2.627,0,0,1-.478-2.665l1.121-2.947a2.628,2.628,0,0,0-.046-1.955,35.806,35.806,0,0,1-1.6-4.731,2.634,2.634,0,0,0-1.149-1.582l-2.679-1.662a2.626,2.626,0,0,1-1.236-2.408l.82-12.277a2.628,2.628,0,0,1,1.546-2.223l2.876-1.29a2.637,2.637,0,0,0,1.349-1.415,35.884,35.884,0,0,1,2.215-4.477,2.635,2.635,0,0,0,.306-1.932l-.72-3.069a2.629,2.629,0,0,1,.828-2.577l9.261-8.1a2.627,2.627,0,0,1,2.665-.479l2.949,1.123a2.64,2.64,0,0,0,1.956-.046,35.719,35.719,0,0,1,4.725-1.6,2.637,2.637,0,0,0,1.583-1.149l1.663-2.683A2.631,2.631,0,0,1,222.393,95.144Zm-19.728,38.38a23.28,23.28,0,1,0,24.779-21.677A23.277,23.277,0,0,0,202.665,133.524Z" transform="translate(-185.956 -95.138)" fill="#024aad"/>
        <g id="Group_3195" data-name="Group 3195" transform="translate(76.771 50.404)">
          <path id="Path_2799" data-name="Path 2799" d="M275.016,149.647l4.218-1.426a1.287,1.287,0,0,1,1.3.283l.7.66a1.289,1.289,0,0,0,.884.343,13.94,13.94,0,0,1,1.729.116,1.286,1.286,0,0,0,.921-.223l.782-.561a1.286,1.286,0,0,1,1.323-.108l3.991,1.974a1.288,1.288,0,0,1,.717,1.118l.029.961a1.286,1.286,0,0,0,.381.868,14.125,14.125,0,0,1,1.142,1.3,1.289,1.289,0,0,0,.81.494l.948.156a1.29,1.29,0,0,1,1.013.859l1.426,4.218a1.289,1.289,0,0,1-.284,1.3l-.66.7a1.285,1.285,0,0,0-.343.884,13.934,13.934,0,0,1-.116,1.728,1.29,1.29,0,0,0,.223.922l.561.781a1.288,1.288,0,0,1,.108,1.324l-1.974,3.991a1.292,1.292,0,0,1-1.118.717l-.962.028a1.287,1.287,0,0,0-.868.382,13.963,13.963,0,0,1-1.3,1.14,1.289,1.289,0,0,0-.494.81l-.156.95a1.287,1.287,0,0,1-.859,1.013l-4.219,1.426a1.289,1.289,0,0,1-1.3-.283l-.7-.66a1.285,1.285,0,0,0-.884-.344,13.912,13.912,0,0,1-1.728-.116,1.291,1.291,0,0,0-.921.223l-.782.562a1.291,1.291,0,0,1-1.323.108l-3.992-1.975a1.289,1.289,0,0,1-.717-1.118l-.028-.959a1.287,1.287,0,0,0-.382-.869,13.873,13.873,0,0,1-1.142-1.305,1.293,1.293,0,0,0-.81-.494l-.948-.155a1.288,1.288,0,0,1-1.013-.859l-1.426-4.218a1.289,1.289,0,0,1,.283-1.3l.659-.7a1.285,1.285,0,0,0,.343-.884,13.98,13.98,0,0,1,.116-1.731,1.285,1.285,0,0,0-.223-.922l-.56-.78a1.291,1.291,0,0,1-.108-1.323l1.975-3.991a1.289,1.289,0,0,1,1.118-.717l.96-.029a1.29,1.29,0,0,0,.869-.381,13.832,13.832,0,0,1,1.3-1.141,1.285,1.285,0,0,0,.494-.81l.156-.949A1.288,1.288,0,0,1,275.016,149.647Zm2.52,15.377a4.764,4.764,0,1,0,2.987-6.039A4.763,4.763,0,0,0,277.537,165.024Z" transform="translate(-266.703 -148.152)" fill="#024aad"/>
          <path id="Path_2800" data-name="Path 2800" d="M275.016,149.647l4.218-1.426a1.287,1.287,0,0,1,1.3.283l.7.66a1.289,1.289,0,0,0,.884.343,13.94,13.94,0,0,1,1.729.116,1.286,1.286,0,0,0,.921-.223l.782-.561a1.286,1.286,0,0,1,1.323-.108l3.991,1.974a1.288,1.288,0,0,1,.717,1.118l.029.961a1.286,1.286,0,0,0,.381.868,14.125,14.125,0,0,1,1.142,1.3,1.289,1.289,0,0,0,.81.494l.948.156a1.29,1.29,0,0,1,1.013.859l1.426,4.218a1.289,1.289,0,0,1-.284,1.3l-.66.7a1.285,1.285,0,0,0-.343.884,13.934,13.934,0,0,1-.116,1.728,1.29,1.29,0,0,0,.223.922l.561.781a1.288,1.288,0,0,1,.108,1.324l-1.974,3.991a1.292,1.292,0,0,1-1.118.717l-.962.028a1.287,1.287,0,0,0-.868.382,13.963,13.963,0,0,1-1.3,1.14,1.289,1.289,0,0,0-.494.81l-.156.95a1.287,1.287,0,0,1-.859,1.013l-4.219,1.426a1.289,1.289,0,0,1-1.3-.283l-.7-.66a1.285,1.285,0,0,0-.884-.344,13.912,13.912,0,0,1-1.728-.116,1.291,1.291,0,0,0-.921.223l-.782.562a1.291,1.291,0,0,1-1.323.108l-3.992-1.975a1.289,1.289,0,0,1-.717-1.118l-.028-.959a1.287,1.287,0,0,0-.382-.869,13.873,13.873,0,0,1-1.142-1.305,1.293,1.293,0,0,0-.81-.494l-.948-.155a1.288,1.288,0,0,1-1.013-.859l-1.426-4.218a1.289,1.289,0,0,1,.283-1.3l.659-.7a1.285,1.285,0,0,0,.343-.884,13.98,13.98,0,0,1,.116-1.731,1.285,1.285,0,0,0-.223-.922l-.56-.78a1.291,1.291,0,0,1-.108-1.323l1.975-3.991a1.289,1.289,0,0,1,1.118-.717l.96-.029a1.29,1.29,0,0,0,.869-.381,13.832,13.832,0,0,1,1.3-1.141,1.285,1.285,0,0,0,.494-.81l.156-.949A1.288,1.288,0,0,1,275.016,149.647Zm2.52,15.377a4.764,4.764,0,1,0,2.987-6.039A4.763,4.763,0,0,0,277.537,165.024Z" transform="translate(-266.703 -148.152)" fill="#fff" opacity="0.5"/>
        </g>
        <path id="Path_2801" data-name="Path 2801" d="M249.413,197.1l5.231-9.06a2.23,2.23,0,0,0-1.931-3.345H242.251a2.23,2.23,0,0,0-1.931,3.345l5.231,9.06A2.23,2.23,0,0,0,249.413,197.1Z" transform="translate(-188.618 -99.548)" fill="#024aad"/>
      </g>
    </g>
    <g id="Character_1" data-name="Character 1" transform="translate(59.722 128.504)">
      <g id="Group_3208" data-name="Group 3208">
        <g id="Group_3204" data-name="Group 3204" transform="translate(0 67.123)">
          <g id="Group_3203" data-name="Group 3203">
            <g id="Group_3197" data-name="Group 3197">
              <path id="Path_2802" data-name="Path 2802" d="M69.354,301.325H197.518a3.269,3.269,0,0,0,3.279-3.391l-3.033-91.628a3.542,3.542,0,0,0-3.5-3.392H66.1a3.269,3.269,0,0,0-3.279,3.392l3.032,91.628A3.542,3.542,0,0,0,69.354,301.325Z" transform="translate(-62.816 -202.914)" fill="#024aad"/>
            </g>
            <g id="Group_3200" data-name="Group 3200" transform="translate(1.046)">
              <g id="Group_3198" data-name="Group 3198">
                <path id="Path_2803" data-name="Path 2803" d="M70.455,301.325H198.618a3.269,3.269,0,0,0,3.28-3.391l-3.033-91.628a3.543,3.543,0,0,0-3.5-3.392H67.2a3.27,3.27,0,0,0-3.28,3.392l3.033,91.628A3.542,3.542,0,0,0,70.455,301.325Z" transform="translate(-63.916 -202.914)" fill="#024aad"/>
              </g>
            </g>
            <g id="Group_3202" data-name="Group 3202" transform="translate(5.463 98.245)">
              <g id="Group_3201" data-name="Group 3201">
                <path id="Path_2805" data-name="Path 2805" d="M72.335,306.248H227.122a4.054,4.054,0,0,1,3.657,2.286,1.167,1.167,0,0,1-1.07,1.668H69.748a1.167,1.167,0,0,1-1.07-1.668A4.054,4.054,0,0,1,72.335,306.248Z" transform="translate(-68.562 -306.248)" fill="#024aad"/>
              </g>
              <path id="Path_2806" data-name="Path 2806" d="M228.742,306.248H105.223a4.053,4.053,0,0,0-3.657,2.286,1.167,1.167,0,0,0,1.07,1.668H231.329a1.167,1.167,0,0,0,1.07-1.668A4.054,4.054,0,0,0,228.742,306.248Z" transform="translate(-70.182 -306.248)" fill="#263238" opacity="0.6"/>
              <path id="Path_2807" data-name="Path 2807" d="M157.6,308.892h32.135a1.444,1.444,0,0,1,1.438,1.439H156.163A1.445,1.445,0,0,1,157.6,308.892Z" transform="translate(-72.877 -306.378)" fill="#fff" opacity="0.3"/>
            </g>
            <path id="Path_2808" data-name="Path 2808" d="M198.995,294.9l-2.813-85a1.379,1.379,0,0,0-1.364-1.321H68.417a1.273,1.273,0,0,0-1.278,1.321l2.813,85a1.38,1.38,0,0,0,1.365,1.321h126.4A1.273,1.273,0,0,0,198.995,294.9Z" transform="translate(-63.029 -203.193)" fill="#fff" opacity="0.9"/>
            <path id="Path_2809" data-name="Path 2809" d="M95.358,296.224H77.927l20.087-87.646h17.43Z" transform="translate(-63.56 -203.193)" fill="#fff"/>
            <path id="Path_2810" data-name="Path 2810" d="M107.613,296.224h-6.271l20.087-87.646H127.7Z" transform="translate(-64.713 -203.193)" fill="#fff"/>
            <path id="Path_2811" data-name="Path 2811" d="M175.04,296.224h-6.271l20.087-87.646h6.271Z" transform="translate(-68.034 -203.193)" fill="#fff"/>
            <path id="Path_2812" data-name="Path 2812" d="M133.822,205.85a1.036,1.036,0,0,0,1.028.994.954.954,0,0,0,.96-.994,1.034,1.034,0,0,0-1.027-.994A.956.956,0,0,0,133.822,205.85Z" transform="translate(-66.313 -203.01)" fill="#fff" opacity="0.4"/>
          </g>
        </g>
        <g id="Group_3207" data-name="Group 3207" transform="translate(35.786)">
          <path id="Path_2813" data-name="Path 2813" d="M176.138,196.058c1.689,2.7,3.5,5.569,5.315,8.319,1.839,2.758,3.686,5.511,5.582,8.214a173.668,173.668,0,0,0,11.947,15.43,61.092,61.092,0,0,0,6.515,6.4l.82.654c.185.131.325.279.565.422a15.177,15.177,0,0,0,1.528.888,28.377,28.377,0,0,0,3.973,1.577c1.434.489,2.945.917,4.491,1.3,1.544.4,3.124.762,4.723,1.1,3.182.68,6.509,1.295,9.713,1.847l0,6.671c-1.826.268-3.542.4-5.32.525s-3.535.167-5.318.181a66.467,66.467,0,0,1-10.9-.864,39.769,39.769,0,0,1-5.752-1.451,22.073,22.073,0,0,1-3.067-1.308c-.516-.248-1.069-.6-1.6-.92l-1.231-.859a65.618,65.618,0,0,1-8.457-7.409,150.795,150.795,0,0,1-13.59-16.327q-3.1-4.231-5.954-8.6c-1.919-2.93-3.762-5.8-5.57-8.922Z" transform="translate(-103.613 -135.453)" fill="#ffc3bd"/>
          <path id="Path_2814" data-name="Path 2814" d="M159.913,197.554c-.935,8.35,18.941,28.3,18.941,28.3l13.452-11.222a181.811,181.811,0,0,0-13.064-19.218C171.6,185.935,160.968,188.127,159.913,197.554Z" transform="translate(-103.383 -135.121)" fill="#024aad"/>
          <path id="Path_2815" data-name="Path 2815" d="M170.783,203.924c-5.315-5.665-7.854-7.177-10.909-4.911.408,8.819,18.978,27.265,18.978,27.265C180.107,216.811,175.281,210.731,170.783,203.924Z" transform="translate(-103.382 -135.549)" opacity="0.3"/>
          <g id="Group_3205" data-name="Group 3205" transform="translate(71.222 75.655)">
            <path id="Path_2816" data-name="Path 2816" d="M191.988,211.888,193.4,216l-15.059,12.359-2.978-3.095Z" transform="translate(-175.367 -211.888)" fill="#024aad"/>
            <path id="Path_2817" data-name="Path 2817" d="M191.988,211.888,193.4,216l-15.059,12.359-2.978-3.095Z" transform="translate(-175.367 -211.888)" fill="#263238" opacity="0.3"/>
          </g>
          <path id="Path_2818" data-name="Path 2818" d="M233.813,244.446l10.446,1.8-5.751,9.138c-1.363.223-6.826-2.737-9.236-6.4Z" transform="translate(-106.8 -137.837)" fill="#ffc3bd"/>
          <path id="Path_2819" data-name="Path 2819" d="M251.172,252.543,247,257.277l-8.011-1.8,5.751-9.138Z" transform="translate(-107.279 -137.93)" fill="#ffc3bd"/>
          <path id="Path_2820" data-name="Path 2820" d="M168.722,189.449s11.419,26.832,3.191,76.8H124.385c-.58-7.3,2.77-42.885-5.459-77.26a122.347,122.347,0,0,1,15.839-2.009,174.755,174.755,0,0,1,20.2,0A90.957,90.957,0,0,1,168.722,189.449Z" transform="translate(-101.366 -134.992)" fill="#024aad"/>
          <path id="Path_2821" data-name="Path 2821" d="M129.584,197.766c.988,5.657-.328,19.193-5.172,34.834a228.49,228.49,0,0,0-4.667-39.9l0-.068C122.862,192.311,128.643,192.463,129.584,197.766Z" transform="translate(-101.406 -135.28)" opacity="0.3"/>
          <path id="Path_2822" data-name="Path 2822" d="M136.8,163.07c1.5,6.5,3.185,18.411-1.212,22.749,0,0,1.9,5.386,13.976,5.386,13.282,0,6.227-5.385,6.227-5.385-7.309-1.731-7.308-7.109-6.221-12.16Z" transform="translate(-102.186 -133.829)" fill="#ffc3bd"/>
          <path id="Path_2823" data-name="Path 2823" d="M150.958,193.177l2.834,3.021a.611.611,0,0,1,.106.679l-1.421,2.981a.609.609,0,0,1-.521.346l-2.159.1a.609.609,0,0,1-.53-.261l-1.99-2.864a.608.608,0,0,1,.034-.74l2.737-3.243A.609.609,0,0,1,150.958,193.177Z" transform="translate(-102.757 -135.302)" fill="#fff"/>
          <path id="Path_2824" data-name="Path 2824" d="M149.777,192.249a15.466,15.466,0,0,0-2.311,7.319s-15.428-5.274-14.729-13a30.483,30.483,0,0,0,3.947-2.284S137.192,189.154,149.777,192.249Z" transform="translate(-102.045 -134.874)" fill="#263238"/>
          <path id="Path_2825" data-name="Path 2825" d="M150.661,192.321a20.949,20.949,0,0,1,2.915,6.855s7.154-4.9,5.121-12.537c0,0-2.292-.486-4.208-.9C154.489,185.737,155.378,190.668,150.661,192.321Z" transform="translate(-102.929 -134.945)" fill="#263238"/>
          <path id="Path_2826" data-name="Path 2826" d="M152.354,200.225c.971,3.156,8.118,26.561,8.3,32.163a.572.572,0,0,1-.013.14c-.659,3.017-3.646,8.3-4.865,10.376a.5.5,0,0,1-.9-.063c-.837-2.039-2.862-6.934-4.183-9.8a.47.47,0,0,1-.044-.176c-.634-10.22-.8-26.109-1.115-32.469a.5.5,0,0,1,.506-.527h1.836A.5.5,0,0,1,152.354,200.225Z" transform="translate(-102.873 -135.641)" fill="#fff"/>
          <path id="Path_2827" data-name="Path 2827" d="M142.328,167.615l7.558,6.263a20.537,20.537,0,0,0-.5,3.586c-2.783-.4-6.692-3.44-7.087-6.34A9.709,9.709,0,0,1,142.328,167.615Z" transform="translate(-102.51 -134.053)" opacity="0.2"/>
          <path id="Path_2828" data-name="Path 2828" d="M156.3,142.711c1.8,1.342,4.867,7.013.938,8.491S151.9,139.427,156.3,142.711Z" transform="translate(-103.072 -132.8)" fill="#263238"/>
          <path id="Path_2829" data-name="Path 2829" d="M134.382,154.14c1.8,8.657,2.418,13.8,7.486,17.788a11.5,11.5,0,0,0,18.669-8.111c.742-8.038-2.331-20.844-11.4-23.371A11.632,11.632,0,0,0,134.382,154.14Z" transform="translate(-102.114 -132.691)" fill="#ffc3bd"/>
          <path id="Path_2830" data-name="Path 2830" d="M134.912,160.286l3.639-2.429.231-2.107a15.733,15.733,0,0,0-1.64-8.893h0s17.651.661,19.845-4.867-4.038-9.676-4.038-9.676-6.247,3.578-10.47,3.87-17.123-4.985-17.123,5.922c-5.688,1.76-5.509,11.142,9.555,18.179" transform="translate(-101.513 -132.314)" fill="#263238"/>
          <path id="Path_2831" data-name="Path 2831" d="M126.1,142.674s-2.337-1.862-.594-7.526C123.365,136.218,122.336,142,126.1,142.674Z" transform="translate(-101.595 -132.454)" fill="#263238"/>
          <path id="Path_2832" data-name="Path 2832" d="M131.653,165.113a8.781,8.781,0,0,0,5.725,3.094c2.944.312,3.832-2.409,2.526-4.9-1.176-2.246-4.125-5.115-6.845-4.268C130.379,159.868,129.9,162.978,131.653,165.113Z" transform="translate(-101.942 -133.622)" fill="#ffc3bd"/>
          <path id="Path_2833" data-name="Path 2833" d="M177.051,299.267H146.679c-2.732-16.493-4.926-28.9-4.926-28.9h31.283S174.8,282.571,177.051,299.267Z" transform="translate(-102.49 -139.113)" fill="#263238"/>
          <path id="Path_2834" data-name="Path 2834" d="M125.819,299.267c-.683-16.493-1.2-28.9-1.2-28.9h30.671s.155,12.561.216,28.9Z" transform="translate(-101.646 -139.113)" fill="#263238"/>
          <path id="Path_2835" data-name="Path 2835" d="M148.726,155.829c.1.71.564,1.244,1.03,1.192s.76-.667.657-1.378-.564-1.243-1.03-1.192S148.623,155.12,148.726,155.829Z" transform="translate(-102.832 -133.404)" fill="#263238"/>
          <path id="Path_2836" data-name="Path 2836" d="M157.2,154.9c.1.71.564,1.244,1.03,1.192s.76-.667.656-1.378-.564-1.244-1.03-1.192S157.092,154.189,157.2,154.9Z" transform="translate(-103.249 -133.358)" fill="#263238"/>
          <path id="Path_2837" data-name="Path 2837" d="M154.558,155.638a26.8,26.8,0,0,0,4.284,5.7c-1.09,1.311-3.311,1.011-3.311,1.011Z" transform="translate(-103.121 -133.463)" fill="#ed847e"/>
          <path id="Path_2838" data-name="Path 2838" d="M151.937,164.885a6.861,6.861,0,0,0,1.477-.006.21.21,0,0,0-.047-.418,5.916,5.916,0,0,1-4.927-1.7.211.211,0,0,0-.319.275A6.119,6.119,0,0,0,151.937,164.885Z" transform="translate(-102.801 -133.81)" fill="#263238"/>
          <path id="Path_2839" data-name="Path 2839" d="M145.65,153.322a.421.421,0,0,0,.411-.211,3.205,3.205,0,0,1,2.47-1.678.421.421,0,0,0-.035-.84,4.043,4.043,0,0,0-3.167,2.1.421.421,0,0,0,.159.574A.408.408,0,0,0,145.65,153.322Z" transform="translate(-102.663 -133.214)" fill="#263238"/>
          <path id="Path_2840" data-name="Path 2840" d="M160.2,151.528a.421.421,0,0,0,.395-.652,4.338,4.338,0,0,0-3.332-2.007.421.421,0,1,0-.014.841,3.5,3.5,0,0,1,2.647,1.633A.417.417,0,0,0,160.2,151.528Z" transform="translate(-103.233 -133.129)" fill="#263238"/>
          <path id="Path_2841" data-name="Path 2841" d="M127.087,202.787l-2.108,3.636q-1.07,1.87-2.085,3.779c-1.362,2.537-2.682,5.093-3.936,7.662-1.227,2.577-2.408,5.166-3.462,7.764-.513,1.3-1.019,2.605-1.46,3.9l-.67,1.949-.567,1.941-.143.486-.071.242c-.025.083-.011.032-.021.054-.025.012-.044.107-.069.216a5.133,5.133,0,0,0,0,1.114,16.693,16.693,0,0,0,.7,3.331,58.128,58.128,0,0,0,3.038,7.6c2.4,5.159,5.338,10.369,8.215,15.453L119.2,266.03c-2.247-2.25-4.255-4.546-6.236-6.964s-3.832-4.924-5.6-7.572a57.042,57.042,0,0,1-4.787-8.647,28.517,28.517,0,0,1-1.75-5.34,16.99,16.99,0,0,1-.364-3.377,13.42,13.42,0,0,1,.151-2.028l.084-.5.061-.305.124-.611a71.27,71.27,0,0,1,2.508-9.477c1-3.06,2.184-6.008,3.432-8.915s2.639-5.724,4.109-8.5q1.111-2.075,2.285-4.118c.784-1.389,1.571-2.669,2.511-4.119Z" transform="translate(-100.456 -135.429)" fill="#ffc3bd"/>
          <path id="Path_2842" data-name="Path 2842" d="M118.046,189.1c-8.365,1.223-16.982,30.355-16.982,30.355l18,9.972s7.3-13.855,10.774-24.143C133.485,194.5,127.018,187.79,118.046,189.1Z" transform="translate(-100.486 -135.103)" fill="#024aad"/>
          <g id="Group_3206" data-name="Group 3206" transform="translate(0.183 80.25)">
            <path id="Path_2843" data-name="Path 2843" d="M101.411,216.721,100.649,221l18.5,10.174,2.463-3.518Z" transform="translate(-100.649 -216.721)" fill="#024aad"/>
            <path id="Path_2844" data-name="Path 2844" d="M101.411,216.721,100.649,221l18.5,10.174,2.463-3.518Z" transform="translate(-100.649 -216.721)" fill="#263238" opacity="0.3"/>
          </g>
          <path id="Path_2845" data-name="Path 2845" d="M123.021,263.209l8.848-1.541-4.541,10.24s-8.075-.047-7.7-4.209Z" transform="translate(-101.399 -138.685)" fill="#ffc3bd"/>
          <path id="Path_2846" data-name="Path 2846" d="M138.869,266.814l-4.156,8.274-6.985-3.18,4.54-10.24Z" transform="translate(-101.799 -138.685)" fill="#ffc3bd"/>
        </g>
      </g>
    </g>
    <g id="Character_2" data-name="Character 2" transform="translate(227.91 129.884)">
      <g id="Group_3220" data-name="Group 3220">
        <g id="Group_3214" data-name="Group 3214" transform="translate(19.947 65.743)">
          <g id="Group_3213" data-name="Group 3213">
            <g id="Group_3209" data-name="Group 3209" transform="translate(29.812)">
              <path id="Path_2847" data-name="Path 2847" d="M423.5,301.325H295.334a3.269,3.269,0,0,1-3.279-3.391l3.033-91.628a3.542,3.542,0,0,1,3.5-3.392H426.755a3.269,3.269,0,0,1,3.279,3.392L427,297.934A3.542,3.542,0,0,1,423.5,301.325Z" transform="translate(-292.053 -202.914)" fill="#024aad"/>
            </g>
            <g id="Group_3210" data-name="Group 3210" transform="translate(28.766)">
              <path id="Path_2849" data-name="Path 2849" d="M422.4,301.325H294.234a3.269,3.269,0,0,1-3.28-3.391l3.033-91.628a3.543,3.543,0,0,1,3.5-3.392H425.654a3.27,3.27,0,0,1,3.28,3.392L425.9,297.934A3.542,3.542,0,0,1,422.4,301.325Z" transform="translate(-291.952 -202.914)" fill="#024aad"/>
            </g>
            <g id="Group_3212" data-name="Group 3212" transform="translate(0 98.245)">
              <g id="Group_3211" data-name="Group 3211">
                <path id="Path_2850" data-name="Path 2850" d="M419.256,306.248H264.469a4.054,4.054,0,0,0-3.657,2.286,1.167,1.167,0,0,0,1.07,1.668H421.843a1.167,1.167,0,0,0,1.07-1.668A4.054,4.054,0,0,0,419.256,306.248Z" transform="translate(-260.696 -306.248)" fill="#024aad"/>
              </g>
              <path id="Path_2851" data-name="Path 2851" d="M426.046,306.248H402.323a4.056,4.056,0,0,0-3.658,2.286,1.168,1.168,0,0,0,1.071,1.668h28.9a1.167,1.167,0,0,0,1.07-1.668A4.054,4.054,0,0,0,426.046,306.248Z" transform="translate(-267.485 -306.248)" fill="#263238" opacity="0.6"/>
              <path id="Path_2852" data-name="Path 2852" d="M340.584,308.892H308.448a1.444,1.444,0,0,0-1.438,1.439h35.013A1.445,1.445,0,0,0,340.584,308.892Z" transform="translate(-262.977 -306.378)" opacity="0.2"/>
            </g>
            <path id="Path_2853" data-name="Path 2853" d="M294.175,294.9l2.813-85a1.379,1.379,0,0,1,1.364-1.321h126.4a1.273,1.273,0,0,1,1.278,1.321l-2.813,85a1.38,1.38,0,0,1-1.365,1.321h-126.4A1.273,1.273,0,0,1,294.175,294.9Z" transform="translate(-262.345 -203.193)" fill="#fff" opacity="0.9"/>
            <path id="Path_2854" data-name="Path 2854" d="M387.821,296.224H370.39l20.087-87.646h17.43Z" transform="translate(-266.099 -203.193)" fill="#fff"/>
            <path id="Path_2855" data-name="Path 2855" d="M308.8,296.224H302.53l20.087-87.646h6.271Z" transform="translate(-262.757 -203.193)" fill="#fff"/>
            <path id="Path_2856" data-name="Path 2856" d="M403.426,296.224h-6.271l20.087-87.646h6.271Z" transform="translate(-267.417 -203.193)" fill="#fff"/>
            <path id="Path_2857" data-name="Path 2857" d="M366.075,205.85a1.036,1.036,0,0,1-1.028.994.954.954,0,0,1-.96-.994,1.034,1.034,0,0,1,1.027-.994A.956.956,0,0,1,366.075,205.85Z" transform="translate(-265.788 -203.01)" opacity="0.4"/>
          </g>
        </g>
        <g id="Group_3219" data-name="Group 3219">
          <path id="Path_2858" data-name="Path 2858" d="M355.382,163.07c-1.5,6.5-3.185,18.411,1.212,22.749,0,0-1.9,5.386-13.976,5.386-13.282,0-6.226-5.385-6.226-5.385,7.308-1.731,7.308-7.109,6.221-12.16Z" transform="translate(-244.385 -135.208)" fill="#b55b52"/>
          <path id="Path_2859" data-name="Path 2859" d="M376.225,195.56c.939,1.45,1.726,2.73,2.51,4.119q1.178,2.045,2.286,4.118,2.2,4.159,4.108,8.5c1.249,2.907,2.433,5.855,3.433,8.915a71.27,71.27,0,0,1,2.508,9.477l.123.611.061.305.084.5a13.558,13.558,0,0,1,.152,2.028,17.133,17.133,0,0,1-.364,3.377,28.588,28.588,0,0,1-1.75,5.34,57.129,57.129,0,0,1-4.788,8.647c-1.771,2.648-3.636,5.161-5.6,7.572s-3.988,4.714-6.236,6.964l-5.257-4.108c2.879-5.085,5.812-10.295,8.215-15.453a58,58,0,0,0,3.038-7.6,16.625,16.625,0,0,0,.7-3.331,5.07,5.07,0,0,0,0-1.114c-.026-.108-.044-.2-.068-.216s0,.029-.021-.054l-.071-.242-.143-.486-.568-1.941-.67-1.949c-.441-1.3-.947-2.606-1.459-3.9-1.053-2.6-2.234-5.187-3.463-7.764-1.254-2.569-2.574-5.125-3.936-7.662q-1.014-1.905-2.085-3.779l-2.107-3.636Z" transform="translate(-245.88 -136.808)" fill="#b65b52"/>
          <path id="Path_2860" data-name="Path 2860" d="M373.734,189.1c8.365,1.223,16.981,30.355,16.981,30.355l-18,9.972s-7.3-13.855-10.774-24.143C358.3,194.5,364.763,187.79,373.734,189.1Z" transform="translate(-245.685 -136.482)" fill="#263238"/>
          <path id="Path_2861" data-name="Path 2861" d="M368.6,205.9l-1.36,12.483c1.36,2.995,2.691,5.743,3.727,7.844C371.357,221.188,371.347,213.088,368.6,205.9Z" transform="translate(-245.997 -137.318)" opacity="0.3"/>
          <g id="Group_3215" data-name="Group 3215" transform="translate(124.462 78.87)">
            <path id="Path_2862" data-name="Path 2862" d="M390.827,216.721,391.59,221l-18.5,10.174-2.463-3.518Z" transform="translate(-370.626 -216.721)" fill="#024aad"/>
          </g>
          <path id="Path_2864" data-name="Path 2864" d="M369.668,263.209l-8.848-1.541,4.541,10.24s8.076-.047,7.706-4.209Z" transform="translate(-245.681 -140.064)" fill="#b55b52"/>
          <path id="Path_2865" data-name="Path 2865" d="M353.878,266.814l4.156,8.274,6.985-3.18-4.54-10.24Z" transform="translate(-245.339 -140.064)" fill="#b55b52"/>
          <path id="Path_2866" data-name="Path 2866" d="M321.7,189.449s-11.418,26.832-3.19,76.8H366.04c.58-7.3-2.77-42.885,5.46-77.26a122.375,122.375,0,0,0-15.84-2.009,174.739,174.739,0,0,0-20.2,0A90.955,90.955,0,0,0,321.7,189.449Z" transform="translate(-243.45 -136.371)" fill="#263238"/>
          <path id="Path_2867" data-name="Path 2867" d="M316.6,213.587A161.467,161.467,0,0,0,315.54,231.7c6.465-4.212,8.766-13.871,9.679-20.869Z" transform="translate(-243.451 -137.561)" opacity="0.3"/>
          <path id="Path_2868" data-name="Path 2868" d="M325.318,202.921c-1.808,3.126-3.651,5.992-5.569,8.922q-2.858,4.368-5.955,8.6a150.685,150.685,0,0,1-13.59,16.327,65.553,65.553,0,0,1-8.457,7.409l-1.231.859c-.531.322-1.084.672-1.6.92a22.021,22.021,0,0,1-3.067,1.308,39.769,39.769,0,0,1-5.752,1.451,66.464,66.464,0,0,1-10.9.864c-1.784-.013-3.552-.046-5.318-.181s-3.493-.257-5.32-.525l0-6.671c3.2-.552,6.531-1.168,9.713-1.847,1.6-.334,3.18-.691,4.723-1.1,1.546-.382,3.058-.811,4.491-1.3a28.328,28.328,0,0,0,3.973-1.577,15.2,15.2,0,0,0,1.529-.888c.239-.144.378-.291.565-.422l.82-.654a61.086,61.086,0,0,0,6.514-6.4,173.323,173.323,0,0,0,11.947-15.43c1.9-2.7,3.743-5.455,5.583-8.214,1.813-2.751,3.625-5.618,5.315-8.319Z" transform="translate(-240.644 -136.833)" fill="#b65b52"/>
          <path id="Path_2869" data-name="Path 2869" d="M331.732,197.554c.934,8.35-17.662,28.594-17.662,28.594l-14.731-11.519A181.73,181.73,0,0,1,312.4,195.41C320.047,185.935,330.678,188.127,331.732,197.554Z" transform="translate(-242.653 -136.5)" fill="#263238"/>
          <g id="Group_3216" data-name="Group 3216" transform="translate(56.351 74.276)">
            <path id="Path_2870" data-name="Path 2870" d="M300.4,211.888,298.986,216l15.059,12.359,2.978-3.095Z" transform="translate(-298.986 -211.888)" fill="#024aad"/>
          </g>
          <path id="Path_2872" data-name="Path 2872" d="M258.01,244.625l-10.6.162,4.27,9.916c1.312.432,7.167-1.65,10.115-4.9Z" transform="translate(-240.095 -139.225)" fill="#b55b52"/>
          <path id="Path_2873" data-name="Path 2873" d="M239.716,249.932l5.793,7.269,5.793-2.489-4.27-9.917Z" transform="translate(-239.716 -139.233)" fill="#b55b52"/>
          <path id="Path_2874" data-name="Path 2874" d="M333.261,154.9c-.1.71-.565,1.244-1.031,1.192s-.76-.667-.656-1.378.564-1.244,1.03-1.192S333.363,154.189,333.261,154.9Z" transform="translate(-244.239 -134.738)" fill="#263238"/>
          <path id="Path_2875" data-name="Path 2875" d="M333.338,155.638a26.8,26.8,0,0,1-4.284,5.7c1.09,1.311,3.311,1.011,3.311,1.011Z" transform="translate(-244.116 -134.842)" fill="#a02724"/>
          <path id="Path_2876" data-name="Path 2876" d="M332.119,160.614c-1.586,0-3.025-2.288-3.278-5.216a6.369,6.369,0,0,1,1.086-4.636,1.806,1.806,0,0,1,1.329-.646h.008c1.586,0,3.024,2.288,3.278,5.217h0a6.37,6.37,0,0,1-1.086,4.636,1.806,1.806,0,0,1-1.33.645Zm-.856-10.022h-.006a1.327,1.327,0,0,0-.98.491,5.91,5.91,0,0,0-.963,4.275c.224,2.595,1.508,4.781,2.8,4.781h0a1.327,1.327,0,0,0,.981-.49,5.916,5.916,0,0,0,.963-4.276C333.844,152.78,332.559,150.592,331.264,150.592Z" transform="translate(-244.104 -134.57)" fill="#263238"/>
          <path id="Path_2877" data-name="Path 2877" d="M335.828,151.528a.42.42,0,0,0,.394-.652,4.338,4.338,0,0,0-3.332-2.007.421.421,0,0,0-.014.841,3.506,3.506,0,0,1,2.648,1.633A.414.414,0,0,0,335.828,151.528Z" transform="translate(-244.284 -134.509)" fill="#263238"/>
          <path id="Path_2878" data-name="Path 2878" d="M357.568,154.14c-1.8,8.657-2.417,13.8-7.485,17.788a11.5,11.5,0,0,1-18.669-8.111c-.743-8.038,2.33-20.844,11.4-23.371A11.631,11.631,0,0,1,357.568,154.14Z" transform="translate(-244.227 -134.07)" fill="#b55b52"/>
          <g id="Group_3217" data-name="Group 3217" transform="translate(91.964 129.876)">
            <path id="Path_2879" data-name="Path 2879" d="M369.633,299.267a109.6,109.6,0,0,0-2.518-28.9H336.444a115.739,115.739,0,0,1,3.5,28.9Z" transform="translate(-336.444 -270.369)" fill="#1062d4"/>
          </g>
          <path id="Path_2881" data-name="Path 2881" d="M338.995,156.7c-1.69-.845-3.8-9.3-3.222-12.306s7.395-6.233,14.1-5.018,9.585,3.569,10.881,9.666c1.346,6.338-3.54,16.882-5.956,17.694a10.679,10.679,0,0,1-8.781-.74C343.864,164.636,342.745,154.957,338.995,156.7Z" transform="translate(-244.442 -134.028)" fill="#263238"/>
          <path id="Path_2882" data-name="Path 2882" d="M337.062,147.167c-3.275.185-6.392-5.018-3.381-9.666a8.2,8.2,0,0,1,8.135-3.644s-1.374,2.668,3.2,2.113,13.06.713,16.032,3.908c3.661,3.936,1.451,11.674-4.069,9.773S337.062,147.167,337.062,147.167Z" transform="translate(-244.284 -133.765)" fill="#263238"/>
          <path id="Path_2883" data-name="Path 2883" d="M336.107,147.5a4.834,4.834,0,0,1-3.534-1.807,7.171,7.171,0,0,1-1.081-7.463.238.238,0,0,1,.441.178,6.7,6.7,0,0,0,1,6.974,4.023,4.023,0,0,0,3.868,1.559.238.238,0,1,1,.116.461A3.3,3.3,0,0,1,336.107,147.5Z" transform="translate(-244.208 -133.978)" fill="#263238"/>
          <path id="Path_2884" data-name="Path 2884" d="M344.423,156.265a8.782,8.782,0,0,1-2.022,6.185c-1.922,2.252-4.44.891-5.209-1.819-.693-2.439-.528-6.55,2.028-7.809C341.738,151.582,344.224,153.51,344.423,156.265Z" transform="translate(-244.5 -134.685)" fill="#b55b52"/>
          <g id="Group_3218" data-name="Group 3218" transform="translate(71.049 129.876)">
            <path id="Path_2885" data-name="Path 2885" d="M314.446,299.267h34.087a111.948,111.948,0,0,0,1.21-28.9H318.461S316.7,282.571,314.446,299.267Z" transform="translate(-314.446 -270.369)" fill="#1062d4"/>
          </g>
        </g>
      </g>
    </g>
  </g>
</svg>
