<svg xmlns="http://www.w3.org/2000/svg" xmlns:xlink="http://www.w3.org/1999/xlink" width="30.135" height="30.135" viewBox="0 0 30.135 30.135">
  <defs>
    <clipPath id="clip-path">
      <rect id="Rectangle" width="30.135" height="30.135" transform="translate(20 20)" fill="#fff"/>
    </clipPath>
  </defs>
  <g id="Mask_Group_9" data-name="Mask Group 9" transform="translate(-20 -20)" clip-path="url(#clip-path)">
    <g id="Layer_2" data-name="Layer 2" transform="translate(22.245 20)">
      <g id="Character">
        <path id="Path_2694" data-name="Path 2694" d="M13.118,30.135h-.589c-.167-.051-.337-.1-.5-.154a21.073,21.073,0,0,1-4.632-2.259,15.154,15.154,0,0,1-5.471-6.24,20.954,20.954,0,0,1-1.8-7.409A61.333,61.333,0,0,1,.072,7.106,3.1,3.1,0,0,1,2.16,4.316a8.712,8.712,0,0,1,1.729-.291,12.181,12.181,0,0,0,6.243-2.337c.53-.4,1.011-.867,1.54-1.271A1.753,1.753,0,0,1,13.71.252a6.156,6.156,0,0,1,.985.782,12.048,12.048,0,0,0,2.441,1.673,12.681,12.681,0,0,0,5.217,1.362,3.284,3.284,0,0,1,3.241,3.4,7.159,7.159,0,0,0,.051.725v4.177c-.059.75-.108,1.5-.177,2.25a22.191,22.191,0,0,1-1,5,15.154,15.154,0,0,1-5.858,7.859,20.08,20.08,0,0,1-5.5,2.663ZM23.82,10.66c0-1.12.009-2.235,0-3.352a1.381,1.381,0,0,0-1.253-1.426c-.919-.135-1.852-.2-2.76-.382A13.261,13.261,0,0,1,13.22,2.083c-.388-.366-.4-.366-.793,0A13.273,13.273,0,0,1,5.843,5.5c-.9.181-1.823.243-2.732.377A1.4,1.4,0,0,0,1.828,7.34c-.024,1.166-.055,2.333-.055,3.5a28.925,28.925,0,0,0,.7,6.883,13.832,13.832,0,0,0,3.9,6.943,17.122,17.122,0,0,0,6.3,3.66.648.648,0,0,0,.395-.024,18.823,18.823,0,0,0,4.623-2.334,13.634,13.634,0,0,0,5.431-8.02,26.757,26.757,0,0,0,.7-7.288Z" transform="translate(0 0)" fill="#fff"/>
        <path id="Path_2695" data-name="Path 2695" d="M18.538,12.522a7.5,7.5,0,1,1-7.5-7.5A7.529,7.529,0,0,1,18.538,12.522Zm-1.771.021a5.734,5.734,0,1,0-5.751,5.725,5.751,5.751,0,0,0,5.751-5.725Z" transform="translate(1.789 2.545)" fill="#fff"/>
        <path id="Path_2696" data-name="Path 2696" d="M8.493,12.116a1.912,1.912,0,0,1,.2-.322c1.048-1.056,2.1-2.107,3.154-3.162a.91.91,0,0,1,.949-.308.852.852,0,0,1,.446,1.383c-1.39,1.434-2.808,2.842-4.232,4.243a.8.8,0,0,1-1.146-.022q-.829-.79-1.621-1.619a.876.876,0,0,1,1.232-1.245c.169.149.324.312.481.474S8.263,11.867,8.493,12.116Z" transform="translate(3.041 4.2)" fill="#fff"/>
      </g>
    </g>
  </g>
</svg>
