<svg xmlns="http://www.w3.org/2000/svg" width="293" height="245" viewBox="0 0 293 245">
  <path id="challenge_curve" d="M86.731,245a88.842,88.842,0,0,1-68.853-32.542,3.859,3.859,0,0,1-.815-3.144,3.9,3.9,0,0,1,1.892-2.682l27.885-16.065a3.925,3.925,0,0,1,1.955-.523,3.98,3.98,0,0,1,2.8,1.161,49.529,49.529,0,0,0,83.1-47.169l-.008-.011c-.117-.146-.232-.291-.347-.436l-1.882-2.381,2.632-1.516,30.042-17.307,1.786-1.03,1.427,1.486a49.526,49.526,0,0,0,83.344-48.015l-.576-1.976,1.786-1.028,30.041-17.307L285.566,53l1.124,2.816A88.513,88.513,0,0,1,257.772,159.3a89.106,89.106,0,0,1-53.63,18.023h-.006a89.3,89.3,0,0,1-23.056-3.044c-2.346-.628-4.681-1.353-6.94-2.157-.435,2.377-.975,4.771-1.6,7.116A88.96,88.96,0,0,1,86.731,245ZM49.167,192.389a1.292,1.292,0,0,0-.643.171L20.64,208.593a1.27,1.27,0,0,0-.619.874,1.247,1.247,0,0,0,.264,1.017,85.675,85.675,0,0,0,44.431,28.568,86.291,86.291,0,0,0,105.644-60.746c.653-2.428,1.2-4.9,1.641-7.356A88.388,88.388,0,0,1,138.6,148a51.836,51.836,0,0,1-20.044,49.488A52.282,52.282,0,0,1,50.1,192.776,1.326,1.326,0,0,0,49.167,192.389Zm122.833-64a88.178,88.178,0,0,1,3.272,40.4c2.347.85,4.761,1.609,7.175,2.255a86.149,86.149,0,0,0,105.594-60.912,85.558,85.558,0,0,0-2.213-51.646c-.3-.833-.622-1.669-.948-2.486l-2.3,1.328L254.856,73.32a52.028,52.028,0,0,1-18.6,56.047,52.053,52.053,0,0,1-44.993,8.8A51.792,51.792,0,0,1,172,128.392ZM166.22,125a1.278,1.278,0,0,0-.641.174l-27.932,16.25a1.323,1.323,0,0,0-.6,1.486l.024.089c.319.4.653.806.991,1.21A86.374,86.374,0,0,0,172.107,169a87.568,87.568,0,0,0-4.7-43.179A1.257,1.257,0,0,0,166.22,125ZM9.981,195a3.875,3.875,0,0,1-3.617-2.443A88.844,88.844,0,0,1,110.258,73.21c2.458.609,4.917,1.33,7.309,2.143.406-2.6.933-5.22,1.567-7.78a88.813,88.813,0,0,1,154.94-35.067L276,34.859l-2.6,1.571-29.7,17.92-1.766,1.065-1.454-1.463a49.56,49.56,0,0,0-82.4,49.716l.614,1.97L156.93,106.7l-.274.166a3.878,3.878,0,0,1-1.034.905l-27.567,16.634a3.9,3.9,0,0,1-1.284.493l-2.141,1.292-.8-1.9a4.042,4.042,0,0,1-.541-.437A49.562,49.562,0,0,0,41.3,173.332a3.941,3.941,0,0,1-1.739,4.472L12,194.438A3.9,3.9,0,0,1,9.981,195ZM89.123,73A86.224,86.224,0,0,0,9.17,191.21a1.256,1.256,0,0,0,1.173.79,1.277,1.277,0,0,0,.66-.185L38.547,175.2a1.307,1.307,0,0,0,.571-1.483A52.141,52.141,0,0,1,122,118.689a88.333,88.333,0,0,1-4.528-40.9c-2.466-.854-5.01-1.608-7.562-2.24A86.542,86.542,0,0,0,89.123,73ZM119.6,79a84.228,84.228,0,0,0,5.186,40.586c.309.791.64,1.6.983,2.4l.068.008h.008l2.233-1.326,26.82-15.919a1.229,1.229,0,0,0-.2-1.3A86.726,86.726,0,0,0,119.6,79ZM205.268,2A86.152,86.152,0,0,0,121.6,67.827c-.656,2.662-1.194,5.38-1.6,8.079A88.349,88.349,0,0,1,154.166,99a52.406,52.406,0,0,1,34.164-59.892,51.6,51.6,0,0,1,16.962-2.866,52.037,52.037,0,0,1,37,15.412l27.433-16.61L272,33.665c-.559-.684-1.137-1.372-1.72-2.042A86.286,86.286,0,0,0,205.268,2Z" transform="translate(0 0)" opacity="0.056"/>
</svg>
