<svg xmlns="http://www.w3.org/2000/svg" xmlns:xlink="http://www.w3.org/1999/xlink" width="60" height="60" viewBox="0 0 60 60">
  <defs>
    <clipPath id="clip-path">
      <rect id="Rectangle_75" data-name="Rectangle 75" width="60" height="60" transform="translate(165 2813.5)" fill="#fff" stroke="#707070" stroke-width="1"/>
    </clipPath>
  </defs>
  <g id="Mask_Group_13" data-name="Mask Group 13" transform="translate(-165 -2813.5)" clip-path="url(#clip-path)">
    <g id="Layer_2" data-name="Layer 2" transform="translate(165 2813.506)">
      <g id="Layer_1" data-name="Layer 1">
        <path id="Path_2717" data-name="Path 2717" d="M60,18.047a2.035,2.035,0,0,1-2.344,1.276v3.264A5.254,5.254,0,0,1,52.1,28.125H29.195a5.249,5.249,0,0,1-5.521-5.508V5.684a5.252,5.252,0,0,1,4.3-5.595A.647.647,0,0,0,28.125,0H53.2A.368.368,0,0,0,53.3.066c3,.83,4.359,2.61,4.359,5.718V8.8A2.025,2.025,0,0,1,60,10.078ZM54.141,8.735V5.688c0-1.513-.662-2.173-2.176-2.173H29.359c-1.511,0-2.171.661-2.171,2.171v16.75c0,1.511.664,2.175,2.174,2.175H51.967c.156,0,.313,0,.469-.006a1.635,1.635,0,0,0,1.63-1.412c.1-1.269.026-2.552.026-3.86H52.31a5.3,5.3,0,0,1-5.184-4.714,5.233,5.233,0,0,1,4.2-5.7A22.688,22.688,0,0,1,54.141,8.735Zm2.325,3.57c-1.416,0-2.776-.028-4.136.009A1.77,1.77,0,0,0,50.625,14a1.709,1.709,0,0,0,1.523,1.779c1.429.081,2.864.021,4.317.021Z"/>
        <path id="Path_2718" data-name="Path 2718" d="M0,36.328A6.365,6.365,0,0,1,1.375,33.6a5.2,5.2,0,0,1,3.9-1.72H28.711a5.228,5.228,0,0,1,5.273,5.273v3.417c.081.045.117.08.144.077,1.472-.117,2.279.783,2.22,2.305-.08,2.047-.02,4.1-.02,6.15,0,1.444-.606,2.068-2.038,2.1-.076,0-.152.013-.306.025,0,1.187.014,2.372,0,3.555A4.941,4.941,0,0,1,31.758,59a13.447,13.447,0,0,1-2.216.989H4.453a6.21,6.21,0,0,1-3.132-1.773A6.663,6.663,0,0,1,0,55.547ZM30.469,40.61V37.557c0-1.508-.664-2.169-2.18-2.169H5.687c-1.512,0-2.171.663-2.171,2.175v16.75c0,1.509.662,2.171,2.173,2.171H28.294c.156,0,.313.006.469,0a1.636,1.636,0,0,0,1.63-1.413c.1-1.269.026-2.552.026-3.859H28.635A5.3,5.3,0,0,1,23.452,46.5a5.236,5.236,0,0,1,4.2-5.7A21.852,21.852,0,0,1,30.469,40.61ZM32.8,44.224a4.351,4.351,0,0,0-.441-.045c-1.172,0-2.336-.009-3.5,0a1.763,1.763,0,1,0,0,3.514c1.187.012,2.374,0,3.562,0a3.015,3.015,0,0,0,.386-.054Z"/>
        <path id="Path_2719" data-name="Path 2719" d="M13.008,15.82v9.775a1.764,1.764,0,1,1-3.511,0V14.242A1.75,1.75,0,0,1,11.4,12.3h6.731a1.764,1.764,0,1,1-.015,3.516Z"/>
        <path id="Path_2720" data-name="Path 2720" d="M46.992,44.18V34.345a1.759,1.759,0,1,1,3.509,0V45.819a1.736,1.736,0,0,1-1.85,1.875q-3.424.007-6.848,0a1.757,1.757,0,1,1,.02-3.509C43.521,44.18,45.216,44.18,46.992,44.18Z"/>
      </g>
    </g>
  </g>
</svg>
