<svg xmlns="http://www.w3.org/2000/svg" width="60" height="59.163" viewBox="0 0 60 59.163">
  <g id="Layer_2" data-name="Layer 2" transform="translate(0 0)">
    <g id="Character">
      <path id="Path_2675" data-name="Path 2675" d="M0,21.866a2.727,2.727,0,0,1,2.236-2.005,32.184,32.184,0,0,1,3.81,0,.782.782,0,0,1,.742.892.852.852,0,0,1-.882.832H2.978c-.972,0-1.223.291-1.223,1.223v3.258c0,.882.3,1.183,1.2,1.183H18.046a1.745,1.745,0,0,1,.752.08.822.822,0,0,1,.531.882.8.8,0,0,1-.742.782,5.775,5.775,0,0,1-.592,0H3.138c-1.123,0-1.384.261-1.384,1.364v3.168c0,1,.291,1.243,1.263,1.243H15.68a4.7,4.7,0,0,1,.531,0,.872.872,0,0,1,.842.872.862.862,0,0,1-.862.862H3.158c-1.123,0-1.374.261-1.374,1.384v3.008c0,1.163.251,1.414,1.4,1.414H16.041a4.521,4.521,0,0,1,.521,0,.862.862,0,0,1,.1,1.694,2.767,2.767,0,0,1-.622.11H3.078c-1.063,0-1.323.251-1.323,1.293v3.278c0,.882.321,1.193,1.213,1.193H19.009c1,0,1.384.261,1.394.862s-.441.892-1.374.892H3.008c-1,0-1.293.271-1.293,1.273v3.168c0,1,.271,1.313,1.3,1.313h23.42a3.859,3.859,0,0,1,.592,0,.882.882,0,0,1,.04,1.765,3.759,3.759,0,0,1-.581,0H3.429C1.734,59.152.571,58.63,0,57.026V52.013c.12-.381.11-.8.421-1.1a.211.211,0,0,0,0-.311A2.476,2.476,0,0,1,0,49.527V44.514a2.4,2.4,0,0,1,.391-1.123.231.231,0,0,0,0-.321A2.537,2.537,0,0,1,0,41.908V36.985a2.577,2.577,0,0,1,.361-1.073.321.321,0,0,0,0-.431A2.577,2.577,0,0,1,0,34.408V29.4a2.5,2.5,0,0,1,.421-1,.211.211,0,0,0,0-.311c-.311-.311-.3-.732-.421-1.1Z"/>
      <path id="Path_2676" data-name="Path 2676" d="M39.321,59.152a20.683,20.683,0,1,1,10.517-38.5,1.213,1.213,0,0,1,.6.6.812.812,0,0,1-.251,1,.852.852,0,0,1-1.083.06,18.467,18.467,0,0,0-3.81-1.755,18.929,18.929,0,1,0,12.612,21.4,18.508,18.508,0,0,0-5.594-17.214,3.007,3.007,0,0,1-.251-.251.872.872,0,0,1-.08-1.253.852.852,0,0,1,1.293,0,19.971,19.971,0,0,1,3.459,4.111A20.683,20.683,0,0,1,44.244,58.6c-.682.17-1.374.291-2.065.4a20.933,20.933,0,0,1-2.857.15Z"/>
      <path id="Path_2677" data-name="Path 2677" d="M38.739,55.212a16.392,16.392,0,0,1-11.8-5.514.912.912,0,0,1-.19-1.213.822.822,0,0,1,1-.321,1.343,1.343,0,0,1,.581.481,15.119,15.119,0,0,0,7.7,4.492,14.958,14.958,0,1,0-10.026-7.9,1.434,1.434,0,0,1,.241.772.832.832,0,0,1-.682.782.862.862,0,0,1-1-.511,16.693,16.693,0,1,1,18.2,8.642,18.949,18.949,0,0,1-4.02.291Z"/>
      <path id="Path_2678" data-name="Path 2678" d="M15.4,18.578a2.7,2.7,0,0,1-1.835-.7c-1.133-1-2.256-2.005-3.369-3.088a1.524,1.524,0,0,1-.11-2.326c.441-.5.882-1,1.343-1.474a1.564,1.564,0,0,1,2.3-.09l.742.662c.7.652.7.652,1.353-.08L25.355.822c.932-1.043,1.714-1.093,2.717-.15l1.133,1a1.574,1.574,0,0,1,.14,2.537q-3.689,4.141-7.389,8.251c-1.5,1.694-3.008,3.379-4.532,5.073A2.867,2.867,0,0,1,15.4,18.578Z"/>
      <path id="Path_2679" data-name="Path 2679" d="M17.044,21.525H10.086a3.118,3.118,0,0,1-.531,0,.872.872,0,0,1,0-1.724,1.785,1.785,0,0,1,.461,0h14.1c.732,0,1.133.321,1.123.9s-.391.852-1.093.852h-7.1Z"/>
      <path id="Path_2680" data-name="Path 2680" d="M39.5,29.426a.832.832,0,0,1,.531.912c0,.391,0,.782,0,1.183a3.365,3.365,0,0,1,.782.14,3.619,3.619,0,0,1,2.717,3.429c0,.221,0,.431,0,.642a.692.692,0,0,1-.7.692.712.712,0,0,1-.7-.692,6.526,6.526,0,0,0-.02-1.063,2.105,2.105,0,0,0-1.865-1.694,8.081,8.081,0,0,0-1.775,0,2.186,2.186,0,0,0-1.895,2.005,2.246,2.246,0,0,0,1.4,2.286c1.113.461,2.236.892,3.349,1.353a3.629,3.629,0,0,1-.521,6.888c-.231.06-.471.08-.732.12v1.4a.672.672,0,0,1-.441.652.652.652,0,0,1-.762-.18,1.063,1.063,0,0,1-.19-.511V45.617a3.609,3.609,0,0,1-1.734-.5,3.559,3.559,0,0,1-1.855-3.088v-.662a.7.7,0,0,1,1.394,0v1a2.206,2.206,0,0,0,2.105,1.865,10.587,10.587,0,0,0,1.594,0,2.186,2.186,0,0,0,1.925-2.025,2.216,2.216,0,0,0-1.3-2.276c-1.123-.471-2.266-.912-3.389-1.374a3.559,3.559,0,0,1-2.166-2.376,3.629,3.629,0,0,1,3.078-4.612h.281v-1.2a.832.832,0,0,1,.531-.912Z"/>
    </g>
  </g>
</svg>
