<svg xmlns="http://www.w3.org/2000/svg" xmlns:xlink="http://www.w3.org/1999/xlink" width="60" height="60" viewBox="0 0 60 60">
  <defs>
    <clipPath id="clip-path">
      <rect id="Rectangle_73" data-name="Rectangle 73" width="60" height="60" transform="translate(957 2813.5)" fill="#fff" stroke="#707070" stroke-width="1"/>
    </clipPath>
  </defs>
  <g id="Mask_Group_15" data-name="Mask Group 15" transform="translate(-957 -2813.5)" clip-path="url(#clip-path)">
    <g id="Layer_2" data-name="Layer 2" transform="translate(957 2813.506)">
      <g id="Layer_1" data-name="Layer 1">
        <path id="Path_2724" data-name="Path 2724" d="M28.355,0h3.281a1.662,1.662,0,0,0,.332.1,19.22,19.22,0,0,1,9.257,3.457,1.072,1.072,0,0,0,.7.165,14.313,14.313,0,0,1,4.544.022A15.577,15.577,0,0,1,59.156,14.365,29.506,29.506,0,0,1,60,17.927v2.929c-.135.725-.234,1.459-.41,2.174A15.9,15.9,0,0,1,41.967,35.137a1.418,1.418,0,0,0-.8.175c-1.182.634-2.336,1.321-3.525,1.944a.713.713,0,0,0-.485.735c.021,2.44.011,4.879.013,7.32,0,.15.021.3.037.506,1.137,0,2.245-.011,3.352,0a1.656,1.656,0,0,1,1.708,1.862,2.612,2.612,0,0,1-.7,1.346q-4.829,4.941-9.719,9.82c-.419.421-.914.764-1.373,1.144h-.937a6.313,6.313,0,0,1-.943-.661q-5.137-5.172-10.255-10.366a1.78,1.78,0,0,1-.5-2.07,1.739,1.739,0,0,1,1.827-1.084c1.126.025,2.253,0,3.378,0a1.172,1.172,0,0,0,.055-.217c0-2.558.011-5.115-.012-7.672a.724.724,0,0,0-.352-.49c-1.318-.748-2.649-1.475-3.984-2.193a1.261,1.261,0,0,0-.586-.132,29.382,29.382,0,0,1-4.022.026C7.527,34.254,3.079,30.616.812,24.372A29.035,29.035,0,0,1,0,20.857V17.927L.352,16.1A15.872,15.872,0,0,1,18.015,3.713a1.324,1.324,0,0,0,.851-.223A18.892,18.892,0,0,1,24.986.666C26.1.394,27.232.219,28.355,0ZM45.888,19.407A15.892,15.892,0,1,0,30.049,35.291,15.941,15.941,0,0,0,45.888,19.407ZM14.8,7.177A12.237,12.237,0,0,0,3.547,20.025a11.917,11.917,0,0,0,4.506,8.914A11.766,11.766,0,0,0,14.8,31.67C9.115,23.466,9.117,15.349,14.8,7.177ZM45.242,31.6c2.461.091,6.951-1.64,9.344-5.678a11.926,11.926,0,0,0-.261-13.4c-2.007-3.107-6.7-5.734-9.1-5.3Q53.7,19.4,45.242,31.6ZM26.618,38.549v.7c0,2.732.007,5.464,0,8.2a1.725,1.725,0,0,1-1.843,1.882h-1.1L29.93,55.4l6.264-6.046c-.145-.008-.234-.016-.332-.018-1.659-.027-2.226-.6-2.226-2.28V38.5a20.253,20.253,0,0,1-7.019.047Z"/>
        <path id="Path_2725" data-name="Path 2725" d="M28.238,26.982c-.62,0-1.183.012-1.746,0a1.782,1.782,0,0,1-1.843-1.731,1.8,1.8,0,0,1,1.847-1.8c1.425-.018,2.851-.011,4.277,0,.429,0,.847,0,.984-.514.151-.566-.234-.8-.66-1.012q-1.869-.9-3.731-1.817a4.361,4.361,0,0,1,.78-8.324c0-.352-.012-.715,0-1.081a1.776,1.776,0,1,1,3.55-.059c.022.329,0,.661,0,1.085.651,0,1.269-.019,1.884,0A1.778,1.778,0,0,1,35.308,13.2a1.7,1.7,0,0,1-.926,1.85,2.578,2.578,0,0,1-1.017.2c-1.386.022-2.773.008-4.16.011-.449,0-.88.041-.992.6-.107.535.166.82.63,1.036,1.322.623,2.631,1.275,3.938,1.927a4.334,4.334,0,0,1,2.561,4.117,4.233,4.233,0,0,1-3.121,3.881c-.315.1-.374.258-.377.545a5.951,5.951,0,0,1-.1,1.335,1.738,1.738,0,0,1-3.39-.124C28.271,28.082,28.279,27.572,28.238,26.982Z"/>
      </g>
    </g>
  </g>
</svg>
