<svg xmlns="http://www.w3.org/2000/svg" xmlns:xlink="http://www.w3.org/1999/xlink" width="50" height="50" viewBox="0 0 50 50">
  <defs>
    <clipPath id="clip-path">
      <rect id="Bitmap" width="50" height="50" transform="translate(947 4687)" fill="#024aad"/>
    </clipPath>
  </defs>
  <g id="Mask_Group_19" data-name="Mask Group 19" transform="translate(-947 -4687)" clip-path="url(#clip-path)">
    <g id="Layer_2" data-name="Layer 2" transform="translate(947 4687)">
      <g id="Layer_1" data-name="Layer 1">
        <path id="Path_2733" data-name="Path 2733" d="M32.812,0H34.96a1.04,1.04,0,0,0,.219.089,9.741,9.741,0,0,1,7.284,14.169A.674.674,0,0,0,42.5,15a20.019,20.019,0,0,1,2.647,10.832c.187.047.357.09.526.134a5.583,5.583,0,0,1,3.985,3.54c.148.373.23.769.344,1.154v1.562a7.555,7.555,0,0,1-1.349,2.936c-1.367,1.778-2.7,3.586-4.049,5.381-.072.1-.158.185-.263.3l-3-3.994c-.1.106-.156.178-.219.247-.89.97-1.768,1.953-2.676,2.9a.617.617,0,0,0-.2.718,11.925,11.925,0,0,1,.488,4.333,1.632,1.632,0,0,1-1.758,1.721c-.554,0-1.108-.024-1.66.015a.741.741,0,0,0-.517.3A5,5,0,0,1,33.015,49a23.03,23.03,0,0,1-2.349,1H29c-.039-.027-.074-.071-.117-.079a5.679,5.679,0,0,1-4.021-2.871.72.72,0,0,0-.536-.263c-2.777-.017-5.555-.007-8.332-.019a.592.592,0,0,0-.6.35,5.557,5.557,0,0,1-3.243,2.637c-.272.088-.549.164-.823.246H9.668a.684.684,0,0,0-.168-.086,5.677,5.677,0,0,1-3.981-2.851.671.671,0,0,0-.481-.275c-.977-.025-1.953-.056-2.923,0A1.952,1.952,0,0,1,0,45.6V43.066a2.019,2.019,0,0,1,1.592-1.18V26.124c0-1.33.605-1.93,1.941-1.935H4.857A20.237,20.237,0,0,1,7.9,14.3a5.817,5.817,0,0,1-1.443-3.389,5.641,5.641,0,0,1,3.32-5.582,5.569,5.569,0,0,1,6.3,1.162.5.5,0,0,0,.666.121A19.889,19.889,0,0,1,25.062,4.85a.671.671,0,0,0,.656-.364A9.273,9.273,0,0,1,30.387.664C31.17.375,32,.218,32.812,0ZM17.259,8.164a5.524,5.524,0,0,1-.577,5.6c-1.439,2.009-2.954,3.964-4.434,5.944a1.54,1.54,0,0,0-.106.254l-3.19-4.239A18.257,18.257,0,0,0,6.51,24.194H23.687c.212,0,.424,0,.635.014a1.528,1.528,0,0,1,1.471,1.478c.036.927.016,1.855.02,2.782v.548h7.443a2.458,2.458,0,0,1,2.57,2.014c.37,1.479.73,2.961,1.1,4.44.246.988.5,1.974.791,3.111.735-.857,1.405-1.6,2.033-2.381.562-.7.541-.712.026-1.447a5.624,5.624,0,0,1,3.218-8.76.611.611,0,0,0,.56-.715,18.68,18.68,0,0,0-1.228-6.866c-.3-.77-.665-1.518-1.029-2.344l-7.409,9.425c-.079-.084-.126-.126-.164-.175-2.492-3.171-5-6.333-7.472-9.518a9.6,9.6,0,0,1-1.935-7.57c.086-.586.241-1.152.37-1.758a18.251,18.251,0,0,0-7.427,1.691Zm.514,23.769c-.177-.074-.308-.121-.431-.183-1.091-.542-2.184-1.074-3.265-1.637a.7.7,0,0,0-.722,0c-1.038.536-2.087,1.053-3.132,1.575-.166.083-.336.158-.578.271v-6.12H3.263V41.912c.593,0,1.146-.021,1.7.008a.618.618,0,0,0,.642-.382,5.62,5.62,0,0,1,9.765.011.635.635,0,0,0,.644.37c2.555-.013,5.109-.007,7.664-.008.156,0,.312-.018.488-.027.01-.134.023-.229.023-.324q0-7.662.008-15.327c0-.357-.133-.432-.456-.43-1.871.012-3.742.006-5.613.008a3.278,3.278,0,0,0-.358.042Zm16.082-9.077c.131-.148.231-.252.32-.364,1.959-2.5,3.906-5,5.878-7.483a8.3,8.3,0,0,0,1.763-6.624,8.082,8.082,0,1,0-14.428,6.19c2.062,2.8,4.277,5.491,6.465,8.283Zm-8.014,7.8v9.677c.177-.143.293-.241.418-.338a5.475,5.475,0,0,1,4.128-1.258A5.564,5.564,0,0,1,34.8,41.652a.493.493,0,0,0,.31.247c.563.024,1.128.011,1.7.011a1.134,1.134,0,0,0,0-.2c-.355-1.433-.722-2.862-1.063-4.3-.073-.307-.255-.313-.5-.312q-2.246.009-4.492,0a1.638,1.638,0,0,1-1.739-1.741c0-.391,0-.781,0-1.172a1.7,1.7,0,0,1,1.934-1.953h3.457c-.053-.27-.087-.488-.14-.705-.177-.715-.391-.879-1.117-.879H25.837Zm18.512,7.519c1.172-1.581,2.309-3.064,3.394-4.583a3.579,3.579,0,0,0,.571-2.794,4.012,4.012,0,0,0-7.177-1.751,3.7,3.7,0,0,0-.249,4.383c1.033,1.629,2.261,3.125,3.457,4.748ZM12.089,17.2c1.08-1.437,2.105-2.8,3.125-4.165a5.256,5.256,0,0,0,.4-.609A4.017,4.017,0,0,0,9.472,7.447a3.916,3.916,0,0,0-.781,5.126C9.737,14.135,10.916,15.613,12.089,17.2ZM29.845,48.361a4.027,4.027,0,1,0-4.032-4.024A4.023,4.023,0,0,0,29.845,48.361ZM14.5,44.367a3.987,3.987,0,1,0-1.183,2.845A4.019,4.019,0,0,0,14.5,44.367ZM11.341,29.3c.714-.354,1.383-.706,2.073-1.014a.834.834,0,0,1,.61,0c.684.311,1.356.664,2.069,1.02V25.837H11.341ZM24.207,43.579H16.131V45.1h8.076Zm11.027-8.138-.391-1.532H30.686v1.532ZM1.667,43.576v1.54H4.851v-1.54Zm33.807-.013V45.1h1.585V43.564Z"/>
        <path id="Path_2734" data-name="Path 2734" d="M27.4,22.552h-1.58V21H27.4Z"/>
        <path id="Path_2735" data-name="Path 2735" d="M19.373,20.986h1.571v1.562H19.373Z"/>
        <path id="Path_2736" data-name="Path 2736" d="M24.189,21v1.534h-1.6V21Z"/>
        <path id="Path_2737" data-name="Path 2737" d="M27.421,9.692A6.453,6.453,0,1,1,33.9,16.114a6.439,6.439,0,0,1-6.481-6.422Zm6.465,4.8a4.8,4.8,0,1,0-3.433-1.4A4.816,4.816,0,0,0,33.886,14.5Z"/>
        <path id="Path_2738" data-name="Path 2738" d="M46.776,31.437a2.423,2.423,0,0,1-2.394,2.441,2.432,2.432,0,1,1-.027-4.864,2.432,2.432,0,0,1,2.422,2.423Zm-2.441.8a.76.76,0,0,0,.8-.781.772.772,0,0,0-.743-.793.811.811,0,0,0-.836.765.792.792,0,0,0,.783.81Z"/>
        <path id="Path_2739" data-name="Path 2739" d="M12.027,12.9a2.407,2.407,0,0,1-2.354-2.471A2.431,2.431,0,1,1,12.027,12.9Zm.863-2.425a.824.824,0,0,0-.83-.788.789.789,0,0,0-.748.808.762.762,0,0,0,.818.771A.781.781,0,0,0,12.89,10.471Z"/>
        <path id="Path_2740" data-name="Path 2740" d="M27.423,44.377a2.4,2.4,0,1,1,.713,1.706,2.417,2.417,0,0,1-.713-1.706Zm2.441-.822a.8.8,0,0,0-.811.75.77.77,0,0,0,.765.829.781.781,0,0,0,.816-.734.821.821,0,0,0-.773-.846Z"/>
        <path id="Path_2741" data-name="Path 2741" d="M12.9,44.377a2.4,2.4,0,0,1-2.426,2.4,2.431,2.431,0,0,1-2.417-2.421,2.461,2.461,0,0,1,2.416-2.436A2.428,2.428,0,0,1,12.9,44.377Zm-2.43-.823a.833.833,0,0,0-.781.837.788.788,0,0,0,.812.743.758.758,0,0,0,.767-.82.789.789,0,0,0-.8-.76Z"/>
      </g>
    </g>
  </g>
</svg>
