<svg xmlns="http://www.w3.org/2000/svg" xmlns:xlink="http://www.w3.org/1999/xlink" width="50" height="50" viewBox="0 0 50 50">
  <defs>
    <clipPath id="clip-path">
      <rect id="Bitmap" width="50" height="50" transform="translate(552 4687)" fill="#024aad"/>
    </clipPath>
  </defs>
  <g id="Mask_Group_18" data-name="Mask Group 18" transform="translate(-552 -4687)" clip-path="url(#clip-path)">
    <g id="Layer_2" data-name="Layer 2" transform="translate(552 4687.784)">
      <g id="Layer_1" data-name="Layer 1">
        <path id="Path_2732" data-name="Path 2732" d="M0,47.746V42.279A1.284,1.284,0,0,1,1.337,41.6c.4.029.8,0,1.18,0a1.317,1.317,0,0,0,.035-.169l.006-4.394c0-1.031.331-1.357,1.379-1.361H5.145V21.658H3.8c-.874,0-1.243-.372-1.245-1.251V15.72c-.476,0-.879-.026-1.284.007A1.166,1.166,0,0,1,0,15.039V9.666a1.464,1.464,0,0,1,1.427-.6,3.891,3.891,0,0,0,1.806-.243C6.308,7.547,9.4,6.314,12.476,5.062Q18.686,2.534,24.9,0h.2c.207.087.412.177.62.262q10.212,4.15,20.424,8.307a5.165,5.165,0,0,0,2.587.509,1.131,1.131,0,0,1,1.269.683v5.273a1.172,1.172,0,0,1-1.269.688c-.414-.034-.833-.007-1.284-.007,0,1.622,0,3.18,0,4.739a1.055,1.055,0,0,1-1.2,1.2H44.859V35.639a.852.852,0,0,0,.132.031c.422,0,.845,0,1.269.011.816.021,1.179.391,1.182,1.214,0,1.172,0,2.343,0,3.515V41.6c.448,0,.837.024,1.221,0A1.279,1.279,0,0,1,50,42.281v5.468l-.879.683H.879ZM21.418,35.682V21.707a.586.586,0,0,0-.128-.04c-.439,0-.879,0-1.318-.01a1.018,1.018,0,0,1-1.12-1.122c-.006-.536,0-1.074,0-1.611v-3.17h-4v4.764a1.009,1.009,0,0,1-1.141,1.139c-.465.006-.93,0-1.4,0V35.684c.51,0,.993-.017,1.475,0a.983.983,0,0,1,1.068,1.11c.007,1.384,0,2.767,0,4.15v.614h4V36.881c0-.825.354-1.183,1.185-1.2C20.488,35.674,20.94,35.682,21.418,35.682Zm7.148,0c.513,0,.967-.01,1.42,0a1.026,1.026,0,0,1,1.155,1.181v4.705h4V36.961c0-.965.316-1.275,1.294-1.282h1.251V21.658c-.512,0-1,.01-1.479,0a.986.986,0,0,1-1.062-1.068c-.01-.847,0-1.693,0-2.539v-2.3h-4v4.714c0,.818-.372,1.183-1.2,1.19H28.568ZM1.976,46.364H48.015V43.595H1.976Zm0-32.629H48V11.056H1.973Zm6.07-4.752.02.061H42.045c-.187-.089-.27-.134-.357-.169q-8.161-3.32-16.329-6.621a1.191,1.191,0,0,0-.82.039q-6.054,2.433-12.083,4.9Q10.252,8.092,8.047,8.983ZM10.252,21.7H7.15v13.94h3.1ZM26.538,35.661V21.687H23.452V35.657Zm13.2-13.977V35.647h3.1V21.684ZM29.156,15.759h-8.31v3.871h8.31ZM20.837,41.577h8.319V37.7H20.837Zm-7.97-25.818H4.589v3.884h8.282Zm32.554-.012H37.138v3.887H45.42ZM4.569,41.563h8.287V37.7H4.569ZM37.136,37.7v3.877h8.278V37.7Z"/>
      </g>
    </g>
  </g>
</svg>
