<svg xmlns="http://www.w3.org/2000/svg" xmlns:xlink="http://www.w3.org/1999/xlink" width="50" height="50" viewBox="0 0 50 50">
  <defs>
    <clipPath id="clip-path">
      <rect id="Bitmap" width="50" height="50" transform="translate(156 4687)" fill="#024aad"/>
    </clipPath>
  </defs>
  <g id="Mask_Group_17" data-name="Mask Group 17" transform="translate(-156 -4687)" clip-path="url(#clip-path)">
    <g id="Layer_2" data-name="Layer 2" transform="translate(156.002 4687)">
      <g id="Layer_1" data-name="Layer 1">
        <path id="Path_2728" data-name="Path 2728" d="M49.994,25.828a19.682,19.682,0,0,1-3.105,4.086q-3.085,3.773-6.257,7.467a8.118,8.118,0,0,1-5.265,2.761,13.878,13.878,0,0,1-1.847.093c-4.016.008-8.032.041-12.047-.016a4.231,4.231,0,0,0-3.222,1.726c-.062.066-.045.235-.025.351a3.067,3.067,0,0,1-.9,2.886c-1.5,1.465-2.987,2.94-4.485,4.4A5.284,5.284,0,0,1,12.3,50h-.586a7.276,7.276,0,0,1-.638-.516Q5.877,44.261.689,39.025A8.019,8.019,0,0,1,0,38.109v-.293a9.448,9.448,0,0,1,.706-.906C2.062,35.531,3.44,34.176,4.8,32.8a3.162,3.162,0,0,1,2.478-1.036.65.65,0,0,0,.488-.266C10.5,27.1,14.55,25.379,19.587,25.618a12.156,12.156,0,0,1,3.646.8,2.085,2.085,0,0,0,.712.11q5.025.01,10.052,0a4.174,4.174,0,0,1,3.477,1.429c.1-.09.21-.176.306-.274l5.478-5.619a3.92,3.92,0,0,1,6.612,1.138,1.208,1.208,0,0,0,.127.184ZM16.934,40.436a4.118,4.118,0,0,0,.318-.293,5.78,5.78,0,0,1,4.7-1.9c3.985.062,7.972.017,11.958.021A6.72,6.72,0,0,0,39.5,35.689c.818-1.03,1.685-2.021,2.531-3.027q2.8-3.343,5.6-6.689a1.949,1.949,0,1,0-2.92-2.581l-6.054,6.223a1,1,0,0,0-.293.613,3.968,3.968,0,0,1-4.131,4.155c-2.506.01-5.011,0-7.519,0a1.855,1.855,0,0,1-.574-.078.965.965,0,0,1,.086-1.857,2.748,2.748,0,0,1,.628-.056c2.506,0,5.011.006,7.519-.007a1.912,1.912,0,0,0,1.948-2.372,1.943,1.943,0,0,0-2.067-1.487q-5.273,0-10.546-.008a2.289,2.289,0,0,1-.857-.128,11.156,11.156,0,0,0-6.071-.712,9.775,9.775,0,0,0-7.187,4.589.618.618,0,0,0,.1.936c1.805,1.758,3.579,3.547,5.359,5.33C15.683,39.155,16.293,39.783,16.934,40.436Zm-4.843,7.128c1.314-1.3,2.676-2.619,4-3.971a.934.934,0,0,0-.142-1.389q-4.062-4.064-8.142-8.119a.948.948,0,0,0-1.5,0c-.5.488-.965.964-1.448,1.445-.813.808-1.629,1.615-2.552,2.531,3.271,3.174,6.494,6.311,9.777,9.5Z"/>
        <path id="Path_2729" data-name="Path 2729" d="M29.174,21.482A10.741,10.741,0,1,1,39.951,10.758,10.746,10.746,0,0,1,29.174,21.482Zm0-1.977a8.777,8.777,0,1,0-6.211-2.586A8.778,8.778,0,0,0,29.174,19.5Z"/>
        <path id="Path_2730" data-name="Path 2730" d="M22.395,32.254a.937.937,0,0,1,.95,1,.956.956,0,0,1-.964.949,1,1,0,0,1-.988-.988.962.962,0,0,1,1-.961Z"/>
        <path id="Path_2731" data-name="Path 2731" d="M28.929,17.561a.872.872,0,0,1-.885-.91,1.414,1.414,0,0,0-.939-1.682,2.612,2.612,0,0,1-.888-.814.927.927,0,0,1,.135-1.347.974.974,0,0,1,1.327.059,5.638,5.638,0,0,0,.831.663.815.815,0,0,0,1.074-.108,1.479,1.479,0,0,0,.329-.941c-.026-.442-.391-.684-.839-.751a7.532,7.532,0,0,1-.816-.115A2.91,2.91,0,0,1,27.641,6.2a.593.593,0,0,0,.391-.664,4.418,4.418,0,0,1,0-.781A.96.96,0,0,1,29,3.906c.5,0,1.011.375.949.847A1.489,1.489,0,0,0,31,6.562a1.353,1.353,0,0,1,.441.378.95.95,0,0,1,.044,1.322,1,1,0,0,1-1.323.145c-.187-.13-.354-.293-.55-.4a.98.98,0,0,0-1.222.056.871.871,0,0,0-.3,1,.993.993,0,0,0,1,.7A2.945,2.945,0,0,1,31.887,12.1a2.907,2.907,0,0,1-1.584,3.2.506.506,0,0,0-.33.56,5.928,5.928,0,0,1,0,.781A.945.945,0,0,1,28.929,17.561Z"/>
      </g>
    </g>
  </g>
</svg>
