<svg xmlns="http://www.w3.org/2000/svg" xmlns:xlink="http://www.w3.org/1999/xlink" width="60" height="60" viewBox="0 0 60 60">
  <defs>
    <clipPath id="clip-path">
      <rect id="Rectangle_74" data-name="Rectangle 74" width="60" height="60" transform="translate(561 2813.5)" fill="#fff" stroke="#707070" stroke-width="1"/>
    </clipPath>
  </defs>
  <g id="Mask_Group_14" data-name="Mask Group 14" transform="translate(-561 -2813.5)" clip-path="url(#clip-path)">
    <g id="Layer_2" data-name="Layer 2" transform="translate(561 2813.5)">
      <g id="Layer_1" data-name="Layer 1">
        <path id="Path_2721" data-name="Path 2721" d="M60,4.1c-.111.868-.218,1.737-.333,2.6a44.116,44.116,0,0,1-4.548,14.238,47.512,47.512,0,0,1-10.1,13.464,1.352,1.352,0,0,0-.387.838,31.754,31.754,0,0,1-8.973,20.926,1.475,1.475,0,0,1-1.541.6,1.263,1.263,0,0,1-.953-1.131c-.424-3.047-.865-6.094-1.3-9.148a1.758,1.758,0,0,0-.1-.264l-1.095.968a1.293,1.293,0,0,1-2.051-.034q-7.9-7.888-15.785-15.785a1.29,1.29,0,0,1-.028-2.047l1-1.132c-1.017-.152-1.93-.3-2.845-.425-2.238-.32-4.478-.632-6.715-.954a1.2,1.2,0,0,1-1.038-.838,1.326,1.326,0,0,1,.411-1.43A31.8,31.8,0,0,1,14.605,17.47a32.568,32.568,0,0,1,10.147-2.1,1.361,1.361,0,0,0,.837-.387,47.441,47.441,0,0,1,24.1-13.945C51.594.581,53.57.416,55.513.115c.169-.029.335-.077.5-.115H60ZM29.757,44.617c.117-.1.27-.22.415-.352,3.817-3.408,7.617-6.832,11.453-10.218a48.493,48.493,0,0,0,6.35-6.552,44.138,44.138,0,0,0,9.292-21.78c.131-1.035.152-2.082.227-3.164h-.687A36.619,36.619,0,0,0,45.234,4.922,44.551,44.551,0,0,0,27.422,16.758c-3.255,3.558-6.429,7.192-9.639,10.793-.813.913-1.625,1.827-2.4,2.7ZM7.307,24.7c2.757.4,5.488.8,8.223,1.172a.794.794,0,0,0,.58-.268Q19.365,22,22.593,18.36a1.924,1.924,0,0,0,.165-.28A28.275,28.275,0,0,0,7.307,24.7Zm34.6,12.539c-.081.026-.127.028-.152.052-2.476,2.213-4.959,4.418-7.42,6.652a.963.963,0,0,0-.2.714c.069.736.2,1.466.306,2.2.281,1.938.561,3.877.847,5.851a28.434,28.434,0,0,0,6.618-15.462Z"/>
        <path id="Path_2722" data-name="Path 2722" d="M0,58.359c.51-1.523,1-3.066,1.532-4.588A66.075,66.075,0,0,1,5.612,43.9a7.686,7.686,0,0,1,14.327,2.872,7.455,7.455,0,0,1-3.791,7.575A58.484,58.484,0,0,1,6.231,58.47C4.707,59,3.171,59.491,1.641,60H0Zm3.2-1.586c.259-.063.407-.088.546-.135.959-.321,1.923-.63,2.875-.974a52.569,52.569,0,0,0,8.273-3.495A5.1,5.1,0,0,0,17,45.539a5.224,5.224,0,0,0-6.432-2.745,5.4,5.4,0,0,0-3.273,3.3c-1.225,2.987-2.375,6-3.547,9.011C3.544,55.618,3.4,56.155,3.2,56.774Z"/>
        <path id="Path_2723" data-name="Path 2723" d="M42.86,23.427a6.26,6.26,0,1,1,6.231-6.273,6.26,6.26,0,0,1-6.231,6.273Zm.007-9.977a3.668,3.668,0,1,0,2.63,1.092,3.662,3.662,0,0,0-2.63-1.092Z"/>
      </g>
    </g>
  </g>
</svg>
