<svg xmlns="http://www.w3.org/2000/svg" width="134.787" height="40" viewBox="0 0 134.787 40">
  <g id="logo" transform="translate(0 0)">
    <path id="Combined_Shape" data-name="Combined Shape" d="M20,40h0L9.069,29.07l6.8-6.8L22.3,28.7l-2.143,2.143L15.9,26.584,13.416,29.07l6.707,6.707,6.8-6.8L8.975,11.025,20,0,31.243,11.243l-6.8,6.8-6.583-6.584L20,9.319l4.411,4.41,2.483-2.486L20,4.349l-6.8,6.8L31.025,28.975,20,40ZM6.833,26.833h0L0,20l6.8-6.8,2.174,2.175L4.347,20l4.658,4.659L6.834,26.832ZM33.2,26.8h0l-2.049-2.048,4.626-4.628L31.151,15.5l2.174-2.174L40,20l-6.8,6.8ZM28.7,22.3h0l-2.173-2.172,2.143-2.143,2.174,2.174L28.7,22.3Zm-17.2-.125h0L9.316,20l2.145-2.142,2.174,2.173-2.142,2.142Z" fill="#004aad"/>
    <path id="Path" d="M7.307,19.173A8.079,8.079,0,0,0,10.96,18.4a5.7,5.7,0,0,0,2.36-2.08,5.39,5.39,0,0,0,.813-2.907,4.354,4.354,0,0,0-.827-2.747,5.61,5.61,0,0,0-1.96-1.627A24.662,24.662,0,0,0,8.4,7.867,13.988,13.988,0,0,1,5.733,6.773,1.57,1.57,0,0,1,4.88,5.36a1.587,1.587,0,0,1,.507-1.267,1.961,1.961,0,0,1,1.333-.44,2.349,2.349,0,0,1,1.573.52A1.929,1.929,0,0,1,8.96,5.6h4.933a5.3,5.3,0,0,0-2.027-4.12A7.87,7.87,0,0,0,6.88,0,7.78,7.78,0,0,0,1.947,1.48,4.906,4.906,0,0,0,.053,5.573,4.607,4.607,0,0,0,.88,8.427,5.469,5.469,0,0,0,2.853,10.08a21.051,21.051,0,0,0,2.96,1.12,18.445,18.445,0,0,1,1.933.667,3.765,3.765,0,0,1,1.147.747A1.531,1.531,0,0,1,9.36,13.76a1.561,1.561,0,0,1-.587,1.293,2.5,2.5,0,0,1-1.6.467,2.315,2.315,0,0,1-1.6-.547,2.355,2.355,0,0,1-.72-1.587H0a5.391,5.391,0,0,0,1.027,3.147,6,6,0,0,0,2.6,1.973A9.63,9.63,0,0,0,7.307,19.173Z" transform="translate(49 10.747)" fill="#17181c"/>
    <path id="Path-2" data-name="Path" d="M4.56,19.733v-8.08a3.266,3.266,0,0,1,.773-2.32,2.712,2.712,0,0,1,2.08-.827,2.712,2.712,0,0,1,2.08.827,3.266,3.266,0,0,1,.773,2.32h0v8.08H14.8V11.04a6.64,6.64,0,0,0-1.547-4.653A5.294,5.294,0,0,0,9.147,4.693a6.051,6.051,0,0,0-2.693.587A4.874,4.874,0,0,0,4.56,6.853h0V0H0V19.733Z" transform="translate(65.933 10)" fill="#17181c"/>
    <path id="Path-3" data-name="Path" d="M5.76,15.04a5.737,5.737,0,0,0,2.627-.6,5,5,0,0,0,1.88-1.587h0V14.88h4.56V0h-4.56V8.08a3.266,3.266,0,0,1-.773,2.32,2.745,2.745,0,0,1-2.107.827,2.712,2.712,0,0,1-2.08-.827,3.266,3.266,0,0,1-.773-2.32h0V0H0V8.693A7.487,7.487,0,0,0,.72,12.08a5.124,5.124,0,0,0,2.027,2.2A5.883,5.883,0,0,0,5.76,15.04Z" transform="translate(83.773 14.854)" fill="#17181c"/>
    <path id="Path-4" data-name="Path" d="M9.147,19.947A6.1,6.1,0,0,0,12.48,19a6.542,6.542,0,0,0,2.36-2.693,8.978,8.978,0,0,0,.867-4.04A8.893,8.893,0,0,0,14.84,8.24a6.465,6.465,0,0,0-2.36-2.667A6.161,6.161,0,0,0,9.147,4.64,5.747,5.747,0,0,0,6.4,5.28,4.693,4.693,0,0,0,4.56,6.96h0V0H0V19.733H4.56v-2.08A4.846,4.846,0,0,0,6.4,19.32,5.746,5.746,0,0,0,9.147,19.947Z" transform="translate(101.88 10)" fill="#17181c"/>
    <path id="Path-5" data-name="Path" d="M3.253,7.36A3.076,3.076,0,0,1,.947,6.373,3.728,3.728,0,0,1,0,3.68,3.728,3.728,0,0,1,.947.987,3.076,3.076,0,0,1,3.253,0,3.127,3.127,0,0,1,5.587.973a3.681,3.681,0,0,1,.947,2.68,3.745,3.745,0,0,1-.96,2.707A3.1,3.1,0,0,1,3.253,7.36Z" transform="translate(106.413 18.613)" fill="#fff"/>
    <path id="Path-6" data-name="Path" d="M4.56,19.733v-8.08a3.266,3.266,0,0,1,.773-2.32,2.712,2.712,0,0,1,2.08-.827,2.712,2.712,0,0,1,2.08.827,3.266,3.266,0,0,1,.773,2.32h0v8.08H14.8V11.04a6.64,6.64,0,0,0-1.547-4.653A5.294,5.294,0,0,0,9.147,4.693a6.051,6.051,0,0,0-2.693.587A4.874,4.874,0,0,0,4.56,6.853h0V0H0V19.733Z" transform="translate(119.987 10)" fill="#17181c"/>
  </g>
</svg>
